{"glyphs":{"0":{"ha":413,"x_min":0,"x_max":0,"o":"m 265 406 l 265 133 b 224 92 265 113 247 92 l 189 92 b 147 133 168 92 147 110 l 147 335 l 357 722 l 357 846 b 231 972 357 913 300 972 l 182 972 b 56 846 115 972 56 915 l 56 475 l 147 636 l 147 839 b 189 881 147 860 165 881 l 224 881 b 265 839 244 881 265 863 l 265 704 l 56 319 l 56 126 b 182 0 56 56 111 0 l 231 0 b 357 126 297 0 357 53 l 357 567 z "},"1":{"ha":396,"x_min":0,"x_max":0,"o":"m 246 972 l 56 972 l 56 881 l 156 881 l 156 553 l 246 553 z m 156 482 l 156 92 l 61 92 l 61 0 l 340 0 l 340 92 l 246 92 l 246 482 z "},"2":{"ha":419,"x_min":0,"x_max":0,"o":"m 317 553 l 342 603 b 364 733 358 638 364 678 l 364 846 b 238 972 364 913 308 972 l 182 972 b 56 846 115 972 56 915 l 56 733 l 147 733 l 147 839 b 189 881 147 860 165 881 l 231 881 b 274 839 251 881 274 863 l 274 733 b 258 638 274 701 272 668 l 218 553 z m 106 318 b 63 135 78 258 63 200 l 63 0 l 357 0 l 357 92 l 154 92 l 154 135 b 189 281 154 189 167 233 l 285 482 l 185 482 z "},"3":{"ha":424,"x_min":0,"x_max":0,"o":"m 368 501 b 258 619 368 571 328 619 b 221 607 242 619 228 613 l 331 810 l 229 810 l 78 518 l 156 485 b 232 535 174 519 193 535 b 276 490 256 535 276 515 l 276 350 l 368 350 z m 276 279 l 276 133 b 235 92 276 110 258 92 l 189 92 b 147 133 167 92 147 110 l 147 279 l 56 279 l 56 126 b 182 0 56 57 113 0 l 242 0 b 368 126 311 0 368 57 l 368 279 z m 354 972 l 56 972 l 56 881 l 354 881 z "},"4":{"ha":469,"x_min":0,"x_max":0,"o":"m 142 279 l 274 857 l 256 536 l 256 350 l 347 350 l 347 972 l 217 972 l 49 279 l 49 194 l 256 194 l 256 0 l 347 0 l 347 194 l 428 194 l 428 279 z "},"5":{"ha":426,"x_min":0,"x_max":0,"o":"m 371 500 b 239 626 371 569 307 626 b 147 596 203 626 171 617 l 147 810 l 56 810 l 56 415 l 149 415 b 228 535 149 486 168 535 b 281 486 254 535 281 514 l 281 350 l 371 350 z m 281 279 l 281 133 b 239 92 281 110 261 92 l 190 92 b 147 133 167 92 147 111 l 147 279 l 56 279 l 56 126 b 183 0 56 57 113 0 l 246 0 b 371 126 315 0 371 57 l 371 279 z m 351 881 l 351 972 l 56 972 l 56 881 z "},"6":{"ha":426,"x_min":0,"x_max":0,"o":"m 371 493 b 238 619 371 563 314 619 b 147 585 203 619 171 606 l 147 839 b 189 881 147 861 167 881 l 238 881 b 281 839 261 881 281 861 l 281 733 l 371 733 l 371 846 b 244 972 371 915 314 972 l 182 972 b 56 846 113 972 56 915 l 56 350 l 147 350 l 147 408 b 238 528 147 469 167 528 b 281 486 260 528 281 510 l 281 350 l 371 350 z m 281 279 l 281 133 b 238 92 281 110 261 92 l 189 92 b 147 133 167 92 147 111 l 147 279 l 56 279 l 56 126 b 182 0 56 57 113 0 l 244 0 b 371 126 314 0 371 57 l 371 279 z "},"7":{"ha":417,"x_min":0,"x_max":0,"o":"m 254 810 b 138 0 149 551 142 333 l 229 0 b 350 810 235 338 236 546 z m 375 881 l 375 972 l 42 972 l 42 881 z "},"8":{"ha":417,"x_min":0,"x_max":0,"o":"m 56 279 l 56 126 b 183 0 56 57 113 0 l 235 0 b 361 126 304 0 361 57 l 361 279 l 269 279 l 269 133 b 228 92 269 111 251 92 l 190 92 b 147 133 167 92 147 110 l 147 279 z m 154 839 b 197 881 154 861 174 881 l 221 881 b 263 839 244 881 263 861 l 263 821 l 354 821 l 354 846 b 228 972 354 915 297 972 l 190 972 b 63 846 119 972 63 915 l 63 821 l 154 821 z m 63 750 l 63 664 b 128 576 63 619 97 588 b 56 474 92 563 56 531 l 56 350 l 147 350 l 147 485 b 190 528 147 508 167 528 l 228 528 b 269 485 251 528 269 508 l 269 350 l 361 350 l 361 474 b 290 576 361 536 318 564 b 354 664 317 585 354 614 l 354 750 l 263 750 l 263 660 b 221 618 263 636 244 618 l 196 618 b 154 660 174 618 154 636 l 154 750 z "},"9":{"ha":426,"x_min":0,"x_max":0,"o":"m 371 846 b 243 972 371 915 313 972 l 182 972 b 56 846 113 972 56 915 l 56 750 l 146 750 l 146 839 b 189 881 146 861 165 881 l 236 881 b 279 839 260 881 279 861 l 279 750 l 371 750 z m 279 679 l 279 613 b 189 493 279 551 260 493 b 146 535 165 493 146 513 l 146 679 l 56 679 l 56 528 b 189 401 56 460 119 401 b 279 439 224 401 253 414 l 279 133 b 236 92 279 111 260 92 l 189 92 b 146 133 165 92 146 111 l 146 279 l 56 279 l 56 126 b 182 0 56 57 111 0 l 243 0 b 371 126 313 0 371 57 l 371 679 z "}," ":{"ha":250,"x_min":0,"x_max":0,"o":""},"E":{"ha":363,"x_min":0,"x_max":0,"o":"m 56 92 l 56 0 l 319 0 l 319 92 z m 147 163 l 147 482 l 299 482 l 299 567 l 147 567 l 147 810 l 56 810 l 56 163 z m 56 881 l 321 881 l 321 972 l 56 972 z "},"F":{"ha":335,"x_min":0,"x_max":0,"o":"m 147 411 l 147 0 l 56 0 l 56 411 z m 147 810 l 56 810 l 56 482 l 300 482 l 300 567 l 147 567 z m 321 881 l 321 972 l 56 972 l 56 881 z "},"G":{"ha":432,"x_min":0,"x_max":0,"o":"m 376 397 l 225 397 l 225 482 l 376 482 z m 376 326 l 376 131 b 246 0 376 58 318 0 l 186 0 b 56 131 114 0 56 58 l 56 482 l 147 482 l 147 131 b 186 92 147 108 165 92 l 246 92 b 285 131 267 92 285 108 l 285 326 z m 147 553 l 147 842 b 186 881 147 863 165 881 l 246 881 b 285 842 268 881 285 863 l 285 733 l 376 733 l 376 842 b 246 972 376 914 318 972 l 186 972 b 56 842 115 972 56 913 l 56 553 z "},"H":{"ha":465,"x_min":0,"x_max":0,"o":"m 318 411 l 318 0 l 410 0 l 410 411 z m 410 482 l 410 972 l 318 972 l 318 567 l 56 567 l 56 0 l 147 0 l 147 482 z m 147 638 l 147 972 l 56 972 l 56 638 z "},"I":{"ha":361,"x_min":0,"x_max":0,"o":"m 135 482 l 135 92 l 56 92 l 56 0 l 306 0 l 306 92 l 226 92 l 226 482 z m 226 553 l 226 881 l 306 881 l 306 972 l 56 972 l 56 881 l 135 881 l 135 553 z "},"J":{"ha":411,"x_min":0,"x_max":0,"o":"m 264 482 l 264 131 b 225 92 264 108 247 92 l 165 92 b 126 131 144 92 126 108 l 126 279 l 35 279 l 35 131 b 165 0 35 58 94 0 l 225 0 b 356 131 297 0 356 58 l 356 482 z m 264 553 l 356 553 l 356 972 l 133 972 l 133 881 l 264 881 z "},"K":{"ha":422,"x_min":0,"x_max":0,"o":"m 197 411 l 306 0 l 400 0 l 292 411 z m 274 482 l 258 539 l 401 972 l 307 972 l 182 567 l 56 567 l 56 0 l 147 0 l 147 482 z m 56 638 l 147 638 l 147 972 l 56 972 z "},"L":{"ha":361,"x_min":0,"x_max":0,"o":"m 56 92 l 56 0 l 319 0 l 319 92 z m 56 163 l 147 163 l 147 972 l 56 972 z "},"M":{"ha":661,"x_min":0,"x_max":0,"o":"m 279 0 l 381 0 l 554 881 l 606 881 l 606 972 l 478 972 l 329 204 l 183 972 l 56 972 l 56 881 l 107 881 z m 514 333 l 514 0 l 606 0 l 606 796 l 593 796 z m 147 328 l 147 0 l 56 0 l 56 796 l 68 796 z "},"N":{"ha":503,"x_min":0,"x_max":0,"o":"m 147 500 l 76 796 l 56 796 l 56 0 l 147 0 z m 393 92 l 174 972 l 56 972 l 56 881 l 110 881 l 329 0 l 447 0 l 447 92 z m 356 472 l 426 176 l 447 176 l 447 972 l 356 972 z "},"O":{"ha":464,"x_min":0,"x_max":0,"o":"m 197 881 l 197 972 l 186 972 b 56 842 115 972 56 914 l 56 131 b 186 0 56 58 115 0 l 197 0 l 197 92 l 186 92 b 147 131 165 92 147 108 l 147 842 b 186 881 147 863 165 881 z m 268 881 l 278 881 b 317 842 299 881 317 863 l 317 131 b 278 92 317 108 299 92 l 268 92 l 268 0 l 278 0 b 408 131 350 0 408 58 l 408 842 b 278 972 408 914 350 972 l 268 972 z "},"P":{"ha":438,"x_min":0,"x_max":0,"o":"m 147 810 l 56 810 l 56 0 l 147 0 z m 218 396 l 267 396 b 389 525 340 396 389 454 l 389 842 b 258 972 389 914 329 972 l 56 972 l 56 881 l 258 881 b 297 842 279 881 297 863 l 297 532 b 253 482 297 507 281 482 l 218 482 z "},"Q":{"ha":463,"x_min":0,"x_max":0,"o":"m 108 -37 l 108 -115 b 231 -157 160 -115 189 -129 b 404 -215 290 -197 331 -215 l 404 -137 b 282 -96 353 -137 324 -122 b 108 -37 222 -56 182 -37 z m 108 -37 l 108 -115 b 231 -157 160 -115 189 -129 b 404 -215 290 -197 331 -215 l 404 -137 b 282 -96 353 -137 324 -122 b 108 -37 222 -56 182 -37 z m 197 881 l 197 972 l 186 972 b 56 842 115 972 56 914 l 56 131 b 186 0 56 58 115 0 l 197 0 l 197 92 l 186 92 b 147 131 165 92 147 108 l 147 842 b 186 881 147 863 165 881 z m 267 881 l 276 881 b 315 842 297 881 315 863 l 315 131 b 276 92 315 108 297 92 l 267 92 l 267 0 l 276 0 b 407 131 349 0 407 58 l 407 842 b 276 972 407 914 349 972 l 267 972 z "},"R":{"ha":449,"x_min":0,"x_max":0,"o":"m 218 567 l 218 482 l 232 482 b 301 413 278 482 301 460 l 301 0 l 393 0 l 393 419 b 311 525 393 469 367 513 b 393 650 369 553 393 592 l 393 842 b 263 972 393 913 333 972 l 56 972 l 56 881 l 263 881 b 301 842 283 881 301 863 l 301 649 b 224 567 301 596 278 567 z m 147 810 l 56 810 l 56 0 l 147 0 z "},"S":{"ha":436,"x_min":0,"x_max":0,"o":"m 183 628 l 176 636 b 147 729 154 664 147 694 l 147 842 b 186 881 147 863 165 881 l 250 881 b 289 842 271 881 289 863 l 289 733 l 381 733 l 381 842 b 250 972 381 914 321 972 l 186 972 b 56 842 115 972 56 913 l 56 729 b 101 582 56 675 68 624 l 183 482 z m 254 539 l 254 396 l 260 389 b 289 296 282 363 289 331 l 289 131 b 250 92 289 108 271 92 l 186 92 b 147 131 165 92 147 108 l 147 279 l 56 279 l 56 131 b 186 0 56 58 114 0 l 250 0 b 381 131 321 0 381 58 l 381 296 b 333 443 381 350 368 401 z "},"T":{"ha":386,"x_min":0,"x_max":0,"o":"m 147 810 l 147 0 l 239 0 l 239 810 z m 351 881 l 351 972 l 35 972 l 35 881 z "},"U":{"ha":465,"x_min":0,"x_max":0,"o":"m 268 92 l 268 0 l 279 0 b 410 131 350 0 410 58 l 410 972 l 318 972 l 318 131 b 279 92 318 108 300 92 z m 197 92 l 186 92 b 147 131 164 92 147 108 l 147 972 l 56 972 l 56 131 b 186 0 56 58 114 0 l 197 0 z "},"V":{"ha":465,"x_min":0,"x_max":0,"o":"m 149 92 l 163 0 l 300 0 l 451 972 l 357 972 l 228 92 z m 197 358 l 108 972 l 14 972 l 138 163 l 168 163 z "},"W":{"ha":744,"x_min":0,"x_max":0,"o":"m 508 92 l 457 551 l 418 781 l 446 972 l 300 972 l 326 781 l 288 551 l 235 92 l 154 92 l 168 0 l 301 0 l 369 571 l 375 571 l 442 0 l 575 0 l 589 92 z m 572 163 l 599 163 l 717 972 l 624 972 l 547 394 z m 197 392 l 119 972 l 28 972 l 144 163 l 171 163 z "},"X":{"ha":497,"x_min":0,"x_max":0,"o":"m 249 578 l 153 578 l 169 521 l 21 0 l 117 0 l 249 464 l 343 464 l 326 521 l 463 972 l 367 972 z m 228 649 l 131 972 l 36 972 l 132 649 z m 363 393 l 269 393 l 382 0 l 476 0 z "},"Y":{"ha":435,"x_min":0,"x_max":0,"o":"m 169 425 l 169 92 l 90 92 l 90 0 l 340 0 l 340 92 l 261 92 l 261 444 l 421 972 l 326 972 z m 181 713 l 108 972 l 14 972 l 136 558 z "},"Z":{"ha":400,"x_min":0,"x_max":0,"o":"m 51 92 l 28 0 l 343 0 l 343 92 z m 69 163 l 168 163 l 331 810 l 232 810 z m 349 881 l 372 972 l 58 972 l 58 881 z "},"x":{"ha":483,"x_min":0,"x_max":0,"o":"m 319 401 l 446 750 l 353 750 l 250 444 l 147 444 l 163 401 l 21 0 l 113 0 l 231 358 l 335 358 z m 275 288 l 371 0 l 463 0 l 360 288 z m 129 750 l 36 750 l 121 515 b 208 515 121 515 208 515 z "},"a":{"ha":483,"x_min":0,"x_max":0,"o":"m 335 178 l 367 0 l 456 0 l 422 178 z m 408 249 l 315 750 l 168 750 l 104 406 l 192 406 l 239 664 l 244 664 l 306 335 l 90 335 l 28 0 l 115 0 l 163 249 z "},"b":{"ha":468,"x_min":0,"x_max":0,"o":"m 283 663 b 326 619 307 663 326 643 l 326 510 b 261 444 326 474 297 444 l 142 444 l 142 592 l 56 592 l 56 0 l 142 0 l 142 358 l 261 358 b 326 293 297 358 326 329 l 326 129 b 283 86 326 106 307 86 l 213 86 l 213 0 l 283 0 b 413 129 356 0 413 58 l 413 300 b 339 401 413 342 386 388 b 413 503 381 417 413 456 l 413 619 b 283 750 413 692 354 750 l 56 750 l 56 663 z "},"c":{"ha":439,"x_min":0,"x_max":0,"o":"m 56 365 l 56 129 b 185 0 56 58 114 0 l 253 0 b 383 129 325 0 383 58 l 383 247 l 296 247 l 296 129 b 253 86 296 106 276 86 l 185 86 b 142 129 161 86 142 106 l 142 365 z m 56 436 l 142 436 l 142 619 b 185 663 142 643 161 663 l 253 663 b 296 619 276 663 296 643 l 296 547 l 383 547 l 383 619 b 253 750 383 692 325 750 l 185 750 b 56 619 114 750 56 692 z "},"d":{"ha":465,"x_min":0,"x_max":0,"o":"m 142 592 l 56 592 l 56 0 l 142 0 z m 279 0 b 410 129 351 0 410 58 l 410 619 b 279 750 410 692 351 750 l 56 750 l 56 663 l 279 663 b 324 619 304 663 324 643 l 324 129 b 279 86 324 106 304 86 l 213 86 l 213 0 z "},"e":{"ha":367,"x_min":0,"x_max":0,"o":"m 56 288 l 56 0 l 325 0 l 325 86 l 142 86 l 142 288 z m 56 592 l 56 358 l 304 358 l 304 444 l 142 444 l 142 592 z m 56 663 l 325 663 l 325 750 l 56 750 z "},"f":{"ha":340,"x_min":0,"x_max":0,"o":"m 326 663 l 326 750 l 56 750 l 56 663 z m 304 358 l 304 444 l 143 444 l 143 592 l 56 592 l 56 358 z m 56 288 l 56 0 l 143 0 l 143 288 z "},"g":{"ha":439,"x_min":0,"x_max":0,"o":"m 383 358 l 229 358 l 229 272 l 383 272 z m 143 619 b 186 663 143 643 163 663 l 254 663 b 297 619 278 663 297 643 l 297 547 l 383 547 l 383 619 b 254 750 383 692 325 750 l 186 750 b 56 619 114 750 56 692 l 56 436 l 143 436 z m 56 365 l 56 129 b 186 0 56 58 114 0 l 254 0 b 383 129 325 0 383 58 l 383 201 l 297 201 l 297 129 b 254 86 297 106 278 86 l 186 86 b 143 129 163 86 143 106 l 143 365 z "},"h":{"ha":474,"x_min":0,"x_max":0,"o":"m 142 750 l 56 750 l 56 515 l 142 515 z m 418 358 l 418 750 l 332 750 l 332 444 l 56 444 l 56 0 l 142 0 l 142 358 z m 332 0 l 418 0 l 418 288 l 332 288 z "},"i":{"ha":367,"x_min":0,"x_max":0,"o":"m 226 365 l 140 365 l 140 86 l 56 86 l 56 0 l 311 0 l 311 86 l 226 86 z m 226 436 l 226 663 l 311 663 l 311 750 l 56 750 l 56 663 l 140 663 l 140 436 z "},"j":{"ha":418,"x_min":0,"x_max":0,"o":"m 363 750 l 143 750 l 143 663 l 276 663 l 276 436 l 363 436 z m 276 365 l 276 129 b 233 86 276 106 257 86 l 165 86 b 122 129 142 86 122 106 l 122 247 l 35 247 l 35 129 b 165 0 35 58 93 0 l 233 0 b 363 129 304 0 363 58 l 363 365 z "},"k":{"ha":433,"x_min":0,"x_max":0,"o":"m 142 515 l 142 750 l 56 750 l 56 515 z m 272 358 l 256 400 l 413 750 l 319 750 l 181 444 l 56 444 l 56 0 l 142 0 l 142 358 z m 319 0 l 411 0 l 299 288 l 206 288 z "},"l":{"ha":368,"x_min":0,"x_max":0,"o":"m 143 750 l 56 750 l 56 157 l 143 157 z m 56 86 l 56 0 l 326 0 l 326 86 z "},"m":{"ha":646,"x_min":0,"x_max":0,"o":"m 56 0 l 143 0 l 143 325 l 85 592 l 56 592 z m 590 750 l 460 750 l 322 153 l 186 750 l 56 750 l 56 663 l 125 663 l 269 0 l 376 0 l 521 663 l 590 663 z m 560 592 l 503 331 l 503 0 l 590 0 l 590 592 z "},"n":{"ha":511,"x_min":0,"x_max":0,"o":"m 393 88 l 176 750 l 56 750 l 56 663 l 118 663 l 333 0 l 456 0 l 456 88 z m 456 158 l 456 750 l 369 750 l 369 354 l 431 158 z m 56 592 l 56 0 l 142 0 l 142 393 l 78 592 z "},"o":{"ha":472,"x_min":0,"x_max":0,"o":"m 286 663 b 329 619 310 663 329 643 l 329 129 b 286 86 329 106 310 86 l 272 86 l 272 0 l 286 0 b 417 129 358 0 417 58 l 417 619 b 286 750 417 692 357 750 l 272 750 l 272 663 z m 201 750 l 186 750 b 56 619 114 750 56 690 l 56 129 b 186 0 56 58 114 0 l 201 0 l 201 86 l 186 86 b 143 129 163 86 143 106 l 143 619 b 186 663 143 643 163 663 l 201 663 z "},"p":{"ha":444,"x_min":0,"x_max":0,"o":"m 265 272 b 396 401 338 272 396 331 l 396 619 b 265 750 396 692 338 750 l 56 750 l 56 663 l 265 663 b 308 619 289 663 308 643 l 308 401 b 265 358 308 378 289 358 l 213 358 l 213 272 z m 142 592 l 56 592 l 56 0 l 142 0 z "},"q":{"ha":478,"x_min":0,"x_max":0,"o":"m 99 -117 b 239 -161 164 -117 201 -137 b 422 -215 286 -189 333 -215 l 422 -129 b 283 -87 357 -129 321 -110 b 99 -31 236 -58 189 -31 z m 99 -117 b 239 -161 164 -117 201 -137 b 422 -215 286 -189 333 -215 l 422 -129 b 283 -87 357 -129 321 -110 b 99 -31 236 -58 189 -31 z m 286 663 b 329 619 310 663 329 643 l 329 129 b 286 86 329 106 310 86 l 272 86 l 272 0 l 286 0 b 417 129 358 0 417 58 l 417 619 b 286 750 417 692 357 750 l 272 750 l 272 663 z m 201 750 l 186 750 b 56 619 114 750 56 690 l 56 129 b 186 0 56 58 114 0 l 201 0 l 201 86 l 186 86 b 143 129 163 86 143 106 l 143 619 b 186 663 143 643 163 663 l 201 663 z "},"r":{"ha":456,"x_min":0,"x_max":0,"o":"m 253 358 b 314 294 289 358 314 331 l 314 0 l 400 0 l 400 303 b 332 401 400 346 372 386 b 400 507 372 424 400 465 l 400 619 b 271 750 400 692 342 750 l 56 750 l 56 663 l 271 663 b 314 619 293 663 314 643 l 314 510 b 249 444 314 476 285 444 l 204 444 l 204 358 z m 143 592 l 56 592 l 56 0 l 143 0 z "},"s":{"ha":443,"x_min":0,"x_max":0,"o":"m 186 465 l 176 475 b 143 551 154 497 143 519 l 143 619 b 186 663 143 643 163 663 l 257 663 b 301 619 282 663 301 643 l 301 547 l 388 547 l 388 619 b 257 750 388 692 329 750 l 186 750 b 56 619 115 750 56 692 l 56 544 b 114 410 56 486 71 451 l 186 338 z m 257 396 l 257 268 l 272 253 b 301 188 292 233 301 214 l 301 129 b 257 86 301 106 282 86 l 186 86 b 143 129 163 86 143 106 l 143 247 l 56 247 l 56 129 b 186 0 56 58 115 0 l 257 0 b 388 129 329 0 388 58 l 388 194 b 339 315 388 247 376 278 z "},"t":{"ha":393,"x_min":0,"x_max":0,"o":"m 153 592 l 153 0 l 239 0 l 239 592 z m 358 663 l 358 750 l 35 750 l 35 663 z "},"u":{"ha":474,"x_min":0,"x_max":0,"o":"m 203 0 l 203 86 l 186 86 b 142 129 161 86 142 106 l 142 750 l 56 750 l 56 129 b 186 0 56 58 114 0 z m 274 0 l 288 0 b 418 129 360 0 418 58 l 418 750 l 332 750 l 332 129 b 288 86 332 106 313 86 l 274 86 z "},"v":{"ha":490,"x_min":0,"x_max":0,"o":"m 157 86 l 174 0 l 317 0 l 469 750 l 382 750 l 250 86 z m 108 750 l 21 750 l 142 157 l 194 157 l 211 238 z "},"w":{"ha":760,"x_min":0,"x_max":0,"o":"m 193 157 l 210 249 l 115 750 l 28 750 l 142 157 z m 732 750 l 643 750 l 549 249 l 567 157 l 617 157 z m 508 86 l 424 549 l 461 750 l 296 750 l 335 549 l 250 86 l 156 86 l 172 0 l 318 0 l 379 358 l 440 0 l 586 0 l 603 86 z "},"y":{"ha":446,"x_min":0,"x_max":0,"o":"m 268 288 l 181 288 l 181 86 l 97 86 l 97 0 l 353 0 l 353 86 l 268 86 z m 283 358 l 432 750 l 339 750 l 229 444 l 219 444 l 107 750 l 14 750 l 165 358 z "},"z":{"ha":382,"x_min":0,"x_max":0,"o":"m 328 663 l 354 750 l 44 750 l 44 663 z m 76 157 l 171 157 l 306 592 l 211 592 z m 54 86 l 28 0 l 338 0 l 338 86 z "},"А":{"ha":485,"x_min":0,"x_max":0,"o":"m 332 215 l 364 0 l 456 0 l 425 215 z m 417 286 l 324 972 l 158 972 l 88 442 l 179 442 l 238 882 l 244 882 l 313 371 l 78 371 l 26 0 l 119 0 l 160 286 z "},"Б":{"ha":456,"x_min":0,"x_max":0,"o":"m 379 881 l 379 972 l 56 972 l 56 881 z m 147 810 l 56 810 l 56 0 l 147 0 l 147 482 l 269 482 b 308 443 290 482 308 465 l 308 131 b 269 92 308 110 290 92 l 218 92 l 218 0 l 269 0 b 400 131 342 0 400 58 l 400 438 b 269 567 400 510 342 567 l 147 567 z "},"В":{"ha":461,"x_min":0,"x_max":0,"o":"m 218 881 l 275 881 b 314 842 297 881 314 863 l 314 661 b 243 567 314 608 297 567 l 147 567 l 147 972 l 56 972 l 56 163 l 147 163 l 147 482 l 243 482 b 314 407 289 482 314 457 l 314 131 b 275 92 314 108 297 92 l 56 92 l 56 0 l 275 0 b 406 131 347 0 406 58 l 406 403 b 326 524 406 450 381 504 b 406 657 381 546 406 610 l 406 842 b 275 972 406 914 347 972 l 218 972 z "},"Г":{"ha":349,"x_min":0,"x_max":0,"o":"m 335 881 l 335 972 l 56 972 l 56 881 z m 147 810 l 56 810 l 56 0 l 147 0 z "},"Д":{"ha":575,"x_min":0,"x_max":0,"o":"m 321 92 l 192 92 b 253 521 246 225 253 385 l 239 810 l 147 810 l 161 521 b 90 92 161 392 156 206 l 14 92 l 14 -215 l 106 -215 l 106 0 l 321 0 z m 392 0 l 469 0 l 469 -215 l 561 -215 l 561 92 l 483 92 l 483 972 l 147 972 l 147 881 l 392 881 z "},"Е":{"ha":363,"x_min":0,"x_max":0,"o":"m 56 92 l 56 0 l 319 0 l 319 92 z m 147 163 l 147 482 l 299 482 l 299 567 l 147 567 l 147 810 l 56 810 l 56 163 z m 56 881 l 321 881 l 321 972 l 56 972 z "},"Ж":{"ha":639,"x_min":0,"x_max":0,"o":"m 274 386 l 274 0 l 365 0 l 365 386 z m 247 542 b 174 617 204 542 174 574 l 174 832 b 36 972 174 908 114 972 l 21 972 l 21 881 l 36 881 b 82 832 63 879 82 857 l 82 607 b 160 483 82 554 110 504 l 21 0 l 121 0 l 249 457 l 390 457 l 517 0 l 618 0 l 478 483 b 556 607 528 503 556 554 l 556 832 b 603 881 556 857 578 879 l 618 881 l 618 972 l 603 972 b 464 832 526 972 464 908 l 464 615 b 392 542 464 574 435 542 z m 274 613 l 365 613 l 365 972 l 274 972 z "},"З":{"ha":404,"x_min":0,"x_max":0,"o":"m 257 279 l 257 131 b 218 92 257 110 240 92 l 165 92 b 126 131 144 92 126 110 l 126 279 l 35 279 l 35 131 b 165 0 35 58 94 0 l 218 0 b 349 131 290 0 349 60 l 349 279 z m 257 663 l 257 657 b 181 567 257 608 232 567 l 135 567 l 135 482 l 181 482 b 257 411 229 482 257 465 l 257 350 l 349 350 l 349 426 b 275 533 349 476 321 517 b 349 657 325 554 349 604 l 349 663 z m 257 733 l 349 733 l 349 842 b 218 972 349 914 290 972 l 165 972 b 35 842 94 972 35 914 l 35 733 l 126 733 l 126 842 b 165 881 126 864 144 881 l 218 881 b 257 842 239 881 257 864 z "},"И":{"ha":503,"x_min":0,"x_max":0,"o":"m 147 972 l 56 972 l 56 176 l 76 176 l 147 472 z m 447 881 l 447 972 l 329 972 l 110 92 l 56 92 l 56 0 l 174 0 l 393 881 z m 356 0 l 447 0 l 447 796 l 426 796 l 356 500 z "},"Й":{"ha":503,"x_min":0,"x_max":0,"o":"m 108 1150 l 108 1139 b 203 1042 108 1083 147 1042 l 292 1042 b 386 1139 347 1042 386 1083 l 386 1150 l 318 1150 l 318 1135 b 290 1106 318 1119 306 1106 l 204 1106 b 176 1135 189 1106 176 1119 l 176 1150 z m 147 972 l 56 972 l 56 176 l 76 176 l 147 472 z m 447 881 l 447 972 l 329 972 l 110 92 l 56 92 l 56 0 l 174 0 l 393 881 z m 356 0 l 447 0 l 447 796 l 426 796 l 356 500 z "},"К":{"ha":424,"x_min":0,"x_max":0,"o":"m 297 411 l 201 411 l 308 0 l 403 0 z m 56 567 l 56 0 l 147 0 l 147 482 l 206 482 b 350 644 307 482 350 576 l 350 832 b 396 882 350 858 369 879 l 403 882 l 403 972 l 396 972 b 258 832 319 972 258 908 l 258 639 b 189 567 258 597 232 567 z m 147 638 l 147 972 l 56 972 l 56 638 z "},"Л":{"ha":488,"x_min":0,"x_max":0,"o":"m 104 810 l 104 358 b 28 76 104 289 104 76 l 28 -15 b 196 393 196 -15 196 224 l 196 810 z m 104 881 l 340 881 l 340 0 l 432 0 l 432 972 l 104 972 z "},"М":{"ha":661,"x_min":0,"x_max":0,"o":"m 279 0 l 381 0 l 554 881 l 606 881 l 606 972 l 478 972 l 329 204 l 183 972 l 56 972 l 56 881 l 107 881 z m 514 333 l 514 0 l 606 0 l 606 796 l 593 796 z m 147 328 l 147 0 l 56 0 l 56 796 l 68 796 z "},"Н":{"ha":465,"x_min":0,"x_max":0,"o":"m 318 411 l 318 0 l 410 0 l 410 411 z m 410 482 l 410 972 l 318 972 l 318 567 l 56 567 l 56 0 l 147 0 l 147 482 z m 147 638 l 147 972 l 56 972 l 56 638 z "},"О":{"ha":464,"x_min":0,"x_max":0,"o":"m 197 881 l 197 972 l 186 972 b 56 842 115 972 56 914 l 56 131 b 186 0 56 58 115 0 l 197 0 l 197 92 l 186 92 b 147 131 165 92 147 108 l 147 842 b 186 881 147 863 165 881 z m 268 881 l 278 881 b 317 842 299 881 317 863 l 317 131 b 278 92 317 108 299 92 l 268 92 l 268 0 l 278 0 b 408 131 350 0 408 58 l 408 842 b 278 972 408 914 350 972 l 268 972 z "},"П":{"ha":460,"x_min":0,"x_max":0,"o":"m 56 810 l 56 0 l 147 0 l 147 810 z m 56 881 l 313 881 l 313 0 l 404 0 l 404 972 l 56 972 z "},"Р":{"ha":438,"x_min":0,"x_max":0,"o":"m 147 810 l 56 810 l 56 0 l 147 0 z m 218 396 l 267 396 b 389 525 340 396 389 454 l 389 842 b 258 972 389 914 329 972 l 56 972 l 56 881 l 258 881 b 297 842 279 881 297 863 l 297 532 b 253 482 297 507 281 482 l 218 482 z "},"С":{"ha":432,"x_min":0,"x_max":0,"o":"m 186 92 b 147 131 165 92 147 108 l 147 482 l 56 482 l 56 131 b 186 0 56 58 115 0 l 246 0 b 376 131 318 0 376 58 l 376 279 l 285 279 l 285 131 b 246 92 285 108 267 92 z m 285 733 l 376 733 l 376 842 b 246 972 376 914 318 972 l 186 972 b 56 842 115 972 56 914 l 56 553 l 147 553 l 147 842 b 186 881 147 863 165 881 l 246 881 b 285 842 268 881 285 863 z "},"Т":{"ha":386,"x_min":0,"x_max":0,"o":"m 147 810 l 147 0 l 239 0 l 239 810 z m 351 881 l 351 972 l 35 972 l 35 881 z "},"У":{"ha":413,"x_min":0,"x_max":0,"o":"m 119 371 l 135 279 l 219 279 l 186 0 l 279 0 l 392 972 l 299 972 l 229 371 z m 108 442 l 200 442 l 114 972 l 21 972 z "},"Ф":{"ha":583,"x_min":0,"x_max":0,"o":"m 436 482 l 436 222 b 397 183 436 200 418 183 l 338 183 l 338 789 l 397 789 b 436 750 418 789 436 771 l 436 553 l 528 553 l 528 750 b 397 881 528 822 469 881 l 338 881 l 338 986 l 246 986 l 246 881 l 186 881 b 56 750 114 881 56 822 l 56 553 l 147 553 l 147 750 b 186 789 147 771 164 789 l 246 789 l 246 183 l 186 183 b 147 222 164 183 147 200 l 147 482 l 56 482 l 56 222 b 186 92 56 150 114 92 l 246 92 l 246 0 l 338 0 l 338 92 l 397 92 b 528 222 469 92 528 150 l 528 482 z "},"Х":{"ha":497,"x_min":0,"x_max":0,"o":"m 249 578 l 153 578 l 169 521 l 21 0 l 117 0 l 249 464 l 343 464 l 326 521 l 463 972 l 367 972 z m 228 649 l 131 972 l 36 972 l 132 649 z m 363 393 l 269 393 l 382 0 l 476 0 z "},"Ц":{"ha":496,"x_min":0,"x_max":0,"o":"m 406 163 l 406 972 l 314 972 l 314 163 z m 147 92 l 147 972 l 56 972 l 56 0 l 390 0 l 390 -215 l 482 -215 l 482 92 z "},"Ч":{"ha":463,"x_min":0,"x_max":0,"o":"m 407 482 l 186 482 b 147 521 165 482 147 500 l 147 972 l 56 972 l 56 526 b 186 396 56 454 114 396 l 315 396 l 315 0 l 407 0 z m 407 568 l 407 972 l 315 972 l 315 568 z "},"Ш":{"ha":719,"x_min":0,"x_max":0,"o":"m 406 163 l 406 972 l 314 972 l 314 163 z m 147 92 l 147 972 l 56 972 l 56 0 l 664 0 l 664 972 l 572 972 l 572 92 z "},"Щ":{"ha":754,"x_min":0,"x_max":0,"o":"m 314 163 l 406 163 l 406 972 l 314 972 z m 147 92 l 147 972 l 56 972 l 56 0 l 649 0 l 649 -215 l 740 -215 l 740 92 l 664 92 l 664 972 l 572 972 l 572 92 z "},"Ъ":{"ha":553,"x_min":0,"x_max":0,"o":"m 310 0 l 367 0 b 497 131 439 0 497 58 l 497 521 b 367 651 497 592 439 651 l 239 651 l 239 972 l 28 972 l 28 888 l 147 888 l 147 567 l 367 567 b 406 528 389 567 406 549 l 406 131 b 367 92 406 110 388 92 l 310 92 z m 239 0 l 239 496 l 147 496 l 147 0 z "},"Ы":{"ha":644,"x_min":0,"x_max":0,"o":"m 497 0 l 589 0 l 589 972 l 497 972 z m 147 0 l 147 496 l 56 496 l 56 0 z m 147 0 l 147 496 l 56 496 l 56 0 z m 147 972 l 56 972 l 56 567 l 275 567 b 314 528 297 567 314 549 l 314 131 b 275 92 314 110 296 92 l 218 92 l 218 0 l 275 0 b 406 131 347 0 406 58 l 406 521 b 275 651 406 592 347 651 l 147 651 z "},"Ь":{"ha":461,"x_min":0,"x_max":0,"o":"m 56 972 l 56 567 l 275 567 b 314 528 297 567 314 549 l 314 131 b 275 92 314 110 296 92 l 218 92 l 218 0 l 275 0 b 406 131 347 0 406 58 l 406 521 b 275 651 406 592 347 651 l 147 651 l 147 972 z m 147 0 l 147 496 l 56 496 l 56 0 z "},"Э":{"ha":385,"x_min":0,"x_max":0,"o":"m 126 567 l 126 482 l 238 482 l 238 131 b 199 92 238 110 219 92 l 158 92 b 119 131 138 92 119 110 l 119 279 l 28 279 l 28 131 b 158 0 28 58 86 0 l 199 0 b 329 131 269 0 329 58 l 329 567 z m 238 638 l 329 638 l 329 842 b 199 972 329 914 269 972 l 158 972 b 28 842 86 972 28 914 l 28 733 l 119 733 l 119 842 b 158 881 119 864 138 881 l 199 881 b 238 842 219 881 238 864 z "},"Ю":{"ha":650,"x_min":0,"x_max":0,"o":"m 147 567 l 147 972 l 56 972 l 56 482 l 250 482 l 250 131 b 381 0 250 58 308 0 l 464 0 b 594 131 536 0 594 58 l 594 842 b 464 972 594 914 536 972 l 381 972 b 250 842 308 972 250 914 l 250 638 l 342 638 l 342 842 b 381 881 342 864 360 881 l 464 881 b 503 842 485 881 503 864 l 503 131 b 464 92 503 110 485 92 l 381 92 b 342 131 360 92 342 110 l 342 567 z m 147 411 l 56 411 l 56 0 l 147 0 z "},"Я":{"ha":444,"x_min":0,"x_max":0,"o":"m 136 411 l 28 0 l 124 0 l 232 411 z m 296 482 l 296 0 l 389 0 l 389 810 l 296 810 l 296 567 l 213 567 b 136 649 156 567 136 593 l 136 842 b 175 881 136 864 154 881 l 389 881 l 389 972 l 175 972 b 44 842 104 972 44 914 l 44 649 b 200 482 44 575 82 482 z "},"а":{"ha":483,"x_min":0,"x_max":0,"o":"m 335 178 l 367 0 l 456 0 l 422 178 z m 410 249 l 315 750 l 168 750 l 104 406 l 192 406 l 239 664 l 244 664 l 306 335 l 90 335 l 28 0 l 115 0 l 163 249 z "},"б":{"ha":461,"x_min":0,"x_max":0,"o":"m 385 663 l 385 750 l 56 750 l 56 663 z m 142 358 l 254 358 b 319 294 290 358 319 331 l 319 129 b 276 86 319 106 300 86 l 213 86 l 213 0 l 276 0 b 406 129 347 0 406 58 l 406 294 b 254 444 406 378 339 444 l 142 444 l 142 592 l 56 592 l 56 0 l 142 0 z "},"в":{"ha":468,"x_min":0,"x_max":0,"o":"m 283 663 b 326 619 307 663 326 643 l 326 510 b 261 444 326 474 297 444 l 142 444 l 142 592 l 56 592 l 56 0 l 142 0 l 142 358 l 261 358 b 326 293 297 358 326 329 l 326 129 b 283 86 326 106 307 86 l 213 86 l 213 0 l 283 0 b 413 129 356 0 413 58 l 413 300 b 339 401 413 342 386 388 b 413 503 381 417 413 456 l 413 619 b 283 750 413 692 354 750 l 56 750 l 56 663 z "},"г":{"ha":356,"x_min":0,"x_max":0,"o":"m 342 664 l 342 750 l 56 750 l 56 664 z m 56 592 l 56 0 l 142 0 l 142 592 z "},"д":{"ha":568,"x_min":0,"x_max":0,"o":"m 156 86 b 217 531 214 226 217 381 l 217 592 l 129 592 l 129 531 b 61 86 129 382 128 222 l 7 86 l 7 -140 l 94 -140 l 94 0 l 318 0 l 318 86 z m 389 0 l 456 0 l 456 -140 l 542 -140 l 542 86 l 476 86 l 476 750 l 129 750 l 129 663 l 389 663 z "},"е":{"ha":367,"x_min":0,"x_max":0,"o":"m 56 288 l 56 0 l 325 0 l 325 86 l 142 86 l 142 288 z m 56 592 l 56 358 l 304 358 l 304 444 l 142 444 l 142 592 z m 56 663 l 325 663 l 325 750 l 56 750 z "},"ж":{"ha":654,"x_min":0,"x_max":0,"o":"m 371 750 l 283 750 l 283 496 l 371 496 z m 235 425 b 176 483 203 425 176 451 l 176 613 b 39 750 176 688 114 750 l 22 750 l 22 663 l 39 663 b 90 613 67 663 90 640 l 90 482 b 175 351 90 424 122 374 l 21 0 l 113 0 l 261 339 l 393 339 l 542 0 l 633 0 l 481 351 b 564 482 531 375 564 424 l 564 613 b 615 663 564 640 588 663 l 633 663 l 633 750 l 615 750 b 478 613 540 750 478 688 l 478 483 b 419 425 478 451 451 425 z m 283 268 l 283 0 l 371 0 l 371 268 z "},"з":{"ha":411,"x_min":0,"x_max":0,"o":"m 356 176 l 269 176 l 269 129 b 226 86 269 106 250 86 l 165 86 b 122 129 142 86 122 106 l 122 247 l 35 247 l 35 129 b 165 0 35 58 93 0 l 226 0 b 356 129 297 0 356 58 z m 356 547 l 269 547 l 269 542 b 179 444 269 489 233 444 l 122 444 l 122 358 l 188 358 b 269 279 239 358 269 338 l 269 247 l 356 247 l 356 307 b 283 401 356 358 328 388 b 356 524 332 426 356 471 z m 356 617 l 356 624 b 226 750 356 694 297 750 l 165 750 b 35 621 93 750 35 692 l 35 547 l 122 547 l 122 619 b 165 663 122 643 140 663 l 226 663 b 269 622 250 663 269 646 l 269 617 z "},"и":{"ha":511,"x_min":0,"x_max":0,"o":"m 456 663 l 456 750 l 332 750 l 117 88 l 56 88 l 56 0 l 178 0 l 394 663 z m 456 592 l 456 0 l 368 0 l 368 396 l 432 592 z m 79 158 l 143 357 l 143 750 l 56 750 l 56 158 z "},"й":{"ha":511,"x_min":0,"x_max":0,"o":"m 456 663 l 456 750 l 332 750 l 117 88 l 56 88 l 56 0 l 178 0 l 394 663 z m 432 592 l 368 396 l 368 0 l 456 0 l 456 592 z m 79 158 l 143 357 l 143 750 l 56 750 l 56 158 z m 121 972 l 121 961 b 215 864 121 906 160 864 l 304 864 b 399 961 360 864 399 906 l 399 972 l 331 972 l 331 957 b 303 928 331 942 318 928 l 217 928 b 189 957 201 928 189 942 l 189 972 z "},"к":{"ha":431,"x_min":0,"x_max":0,"o":"m 142 750 l 56 750 l 56 515 l 142 515 z m 229 358 b 357 501 317 358 357 446 l 357 613 b 404 663 357 640 376 663 l 410 663 l 410 750 l 404 750 b 269 613 329 750 269 688 l 269 504 b 213 444 269 472 244 444 l 56 444 l 56 0 l 142 0 l 142 358 z m 318 0 l 410 0 l 304 288 l 211 288 z "},"л":{"ha":497,"x_min":0,"x_max":0,"o":"m 356 663 l 356 0 l 442 0 l 442 750 l 106 750 l 106 663 z m 106 592 l 106 375 b 28 79 106 221 101 79 l 28 -7 b 193 385 185 -7 193 183 l 193 592 z "},"м":{"ha":646,"x_min":0,"x_max":0,"o":"m 56 0 l 143 0 l 143 325 l 85 592 l 56 592 z m 590 750 l 460 750 l 322 153 l 186 750 l 56 750 l 56 663 l 125 663 l 269 0 l 376 0 l 521 663 l 590 663 z m 560 592 l 503 331 l 503 0 l 590 0 l 590 592 z "},"н":{"ha":474,"x_min":0,"x_max":0,"o":"m 142 750 l 56 750 l 56 515 l 142 515 z m 418 358 l 418 750 l 332 750 l 332 444 l 56 444 l 56 0 l 142 0 l 142 358 z m 332 0 l 418 0 l 418 288 l 332 288 z "},"о":{"ha":472,"x_min":0,"x_max":0,"o":"m 286 663 b 329 619 310 663 329 643 l 329 129 b 286 86 329 106 310 86 l 272 86 l 272 0 l 286 0 b 417 129 358 0 417 58 l 417 619 b 286 750 417 692 357 750 l 272 750 l 272 663 z m 201 750 l 186 750 b 56 619 114 750 56 690 l 56 129 b 186 0 56 58 114 0 l 201 0 l 201 86 l 186 86 b 143 129 163 86 143 106 l 143 619 b 186 663 143 643 163 663 l 201 663 z "},"п":{"ha":465,"x_min":0,"x_max":0,"o":"m 324 663 l 324 0 l 410 0 l 410 750 l 56 750 l 56 663 z m 56 592 l 56 0 l 142 0 l 142 592 z "},"р":{"ha":444,"x_min":0,"x_max":0,"o":"m 265 272 b 396 401 338 272 396 331 l 396 619 b 265 750 396 692 338 750 l 56 750 l 56 663 l 265 663 b 308 619 289 663 308 643 l 308 401 b 265 358 308 378 289 358 l 213 358 l 213 272 z m 142 592 l 56 592 l 56 0 l 142 0 z "},"с":{"ha":439,"x_min":0,"x_max":0,"o":"m 56 365 l 56 129 b 185 0 56 58 114 0 l 253 0 b 383 129 325 0 383 58 l 383 247 l 296 247 l 296 129 b 253 86 296 106 276 86 l 185 86 b 142 129 161 86 142 106 l 142 365 z m 56 436 l 142 436 l 142 619 b 185 663 142 643 161 663 l 253 663 b 296 619 276 663 296 643 l 296 547 l 383 547 l 383 619 b 253 750 383 692 325 750 l 185 750 b 56 619 114 750 56 692 z "},"т":{"ha":393,"x_min":0,"x_max":0,"o":"m 153 592 l 153 0 l 239 0 l 239 592 z m 358 663 l 358 750 l 35 750 l 35 663 z "},"у":{"ha":413,"x_min":0,"x_max":0,"o":"m 124 335 l 147 247 l 203 247 l 151 0 l 239 0 l 392 750 l 304 750 l 221 335 z m 103 750 l 14 750 l 106 406 l 193 406 z "},"ф":{"ha":603,"x_min":0,"x_max":0,"o":"m 461 365 l 461 194 b 425 158 461 175 444 158 l 344 158 l 344 603 l 425 603 b 461 567 444 603 461 586 l 461 436 l 547 436 l 547 553 b 410 690 547 628 485 690 l 344 690 l 344 771 l 258 771 l 258 690 l 193 690 b 56 553 117 690 56 628 l 56 436 l 142 436 l 142 567 b 178 603 142 586 158 603 l 258 603 l 258 158 l 178 158 b 142 194 158 158 142 175 l 142 365 l 56 365 l 56 210 b 193 72 56 135 117 72 l 258 72 l 258 0 l 344 0 l 344 72 l 410 72 b 547 210 485 72 547 135 l 547 365 z "},"х":{"ha":483,"x_min":0,"x_max":0,"o":"m 163 401 l 21 0 l 113 0 l 231 358 l 335 358 l 319 401 l 446 750 l 353 750 l 250 444 l 147 444 z m 275 288 l 371 0 l 463 0 l 360 288 z m 208 515 l 129 750 l 36 750 l 121 515 z "},"ц":{"ha":504,"x_min":0,"x_max":0,"o":"m 428 157 l 428 750 l 340 750 l 340 157 z m 142 86 l 142 750 l 56 750 l 56 0 l 404 0 l 404 -139 l 490 -139 l 490 86 z "},"ч":{"ha":449,"x_min":0,"x_max":0,"o":"m 400 750 l 313 750 l 313 429 l 400 429 z m 164 358 b 128 394 144 358 128 375 l 128 750 l 42 750 l 42 410 b 179 272 42 333 103 272 l 313 272 l 313 0 l 400 0 l 400 358 z "},"ш":{"ha":735,"x_min":0,"x_max":0,"o":"m 411 750 l 324 750 l 324 157 l 411 157 z m 143 86 l 143 750 l 56 750 l 56 0 l 679 0 l 679 750 l 592 750 l 592 86 z "},"щ":{"ha":769,"x_min":0,"x_max":0,"o":"m 410 750 l 324 750 l 324 157 l 410 157 z m 142 86 l 142 750 l 56 750 l 56 0 l 669 0 l 669 -139 l 756 -139 l 756 86 l 678 86 l 678 750 l 592 750 l 592 86 z "},"ъ":{"ha":564,"x_min":0,"x_max":0,"o":"m 371 0 b 508 138 447 0 508 63 l 508 393 b 371 531 508 469 447 531 l 240 531 l 240 750 l 28 750 l 28 664 l 153 664 l 153 444 l 386 444 b 422 408 406 444 422 428 l 422 122 b 386 86 422 103 406 86 l 311 86 l 311 0 z m 240 374 l 153 374 l 153 0 l 240 0 z "},"ы":{"ha":624,"x_min":0,"x_max":0,"o":"m 568 0 l 568 750 l 481 750 l 481 0 z m 260 0 b 397 138 336 0 397 63 l 397 393 b 260 531 397 469 336 531 l 143 531 l 143 750 l 56 750 l 56 444 l 275 444 b 311 408 294 444 311 428 l 311 122 b 275 86 311 103 294 86 l 214 86 l 214 0 z m 143 374 l 56 374 l 56 0 l 143 0 z "},"ь":{"ha":456,"x_min":0,"x_max":0,"o":"m 263 0 b 400 138 339 0 400 63 l 400 393 b 263 531 400 469 339 531 l 143 531 l 143 750 l 56 750 l 56 444 l 278 444 b 314 408 297 444 314 428 l 314 122 b 278 86 314 103 297 86 l 214 86 l 214 0 z m 143 374 l 56 374 l 56 0 l 143 0 z "},"э":{"ha":390,"x_min":0,"x_max":0,"o":"m 335 444 l 114 444 l 114 358 l 249 358 l 249 129 b 204 86 249 106 229 86 l 157 86 b 114 129 133 86 114 106 l 114 247 l 28 247 l 28 129 b 157 0 28 58 86 0 l 204 0 b 335 129 276 0 335 58 z m 335 515 l 335 621 b 204 750 335 692 276 750 l 157 750 b 28 621 86 750 28 692 l 28 547 l 114 547 l 114 619 b 157 663 114 643 133 663 l 204 663 b 249 619 229 663 249 643 l 249 515 z "},"ю":{"ha":661,"x_min":0,"x_max":0,"o":"m 244 288 l 244 129 b 375 0 244 60 304 0 l 475 0 b 606 129 547 0 606 58 l 606 621 b 475 750 606 692 547 750 l 375 750 b 244 621 304 750 244 692 l 244 444 l 56 444 l 56 0 l 142 0 l 142 358 l 332 358 l 332 619 b 375 663 332 643 351 663 l 475 663 b 518 619 499 663 518 643 l 518 129 b 475 86 518 106 499 86 l 375 86 b 332 129 351 86 332 106 l 332 288 z m 142 750 l 56 750 l 56 515 l 142 515 z "},"я":{"ha":440,"x_min":0,"x_max":0,"o":"m 299 358 l 299 0 l 385 0 l 385 592 l 299 592 l 299 444 l 186 444 b 121 508 150 444 121 474 l 121 619 b 164 663 121 643 140 663 l 385 663 l 385 750 l 164 750 b 35 621 93 750 35 692 l 35 510 b 189 358 35 442 85 358 z m 119 288 l 28 0 l 121 0 l 210 288 z "},".":{"ha":182,"x_min":0,"x_max":0,"o":"m 42 0 l 140 0 l 140 99 l 42 99 z "},":":{"ha":182,"x_min":0,"x_max":0,"o":"m 42 624 l 140 624 l 140 722 l 42 722 z m 42 0 l 140 0 l 140 99 l 42 99 z "},",":{"ha":182,"x_min":0,"x_max":0,"o":"m 42 99 l 42 0 l 78 0 l 42 -150 l 74 -150 l 140 0 l 140 99 z "},";":{"ha":182,"x_min":0,"x_max":0,"o":"m 42 722 l 42 624 l 140 624 l 140 722 z m 42 99 l 42 0 l 78 0 l 42 -150 l 74 -150 l 140 0 l 140 99 z "},"„":{"ha":363,"x_min":0,"x_max":0,"o":"m 222 99 l 222 0 l 258 0 l 222 -150 l 254 -150 l 321 0 l 321 99 z m 42 99 l 42 0 l 78 0 l 42 -150 l 74 -150 l 140 0 l 140 99 z "},"”":{"ha":347,"x_min":0,"x_max":0,"o":"m 42 972 l 42 874 l 78 874 l 42 724 l 74 724 l 140 874 l 140 972 z m 207 972 l 207 874 l 243 874 l 207 724 l 239 724 l 306 874 l 306 972 z "},"“":{"ha":347,"x_min":0,"x_max":0,"o":"m 306 724 l 306 822 l 269 822 l 306 972 l 274 972 l 207 822 l 207 724 z m 140 724 l 140 822 l 104 822 l 140 972 l 108 972 l 42 822 l 42 724 z "},"‘":{"ha":182,"x_min":0,"x_max":0,"o":"m 140 724 l 140 822 l 104 822 l 140 972 l 108 972 l 42 822 l 42 724 z "},"’":{"ha":182,"x_min":0,"x_max":0,"o":"m 42 972 l 42 874 l 78 874 l 42 724 l 74 724 l 140 874 l 140 972 z "},"¨":{"ha":329,"x_min":0,"x_max":0,"o":"m 204 972 l 204 874 l 288 874 l 288 972 z m 42 972 l 42 874 l 126 874 l 126 972 z "},"™":{"ha":493,"x_min":0,"x_max":0,"o":"m 185 932 l 185 972 l 42 972 l 42 932 l 92 932 l 92 549 l 135 549 l 135 932 z m 392 972 l 338 613 l 283 972 l 224 972 l 224 549 l 267 549 l 267 660 l 253 915 l 314 549 l 360 549 l 422 915 l 408 660 l 408 549 l 451 549 l 451 972 z "},"!":{"ha":168,"x_min":0,"x_max":0,"o":"m 42 99 l 42 0 l 126 0 l 126 99 z m 42 972 l 42 186 l 126 186 l 126 972 z "},"#":{"ha":554,"x_min":0,"x_max":0,"o":"m 465 325 l 465 396 l 389 396 l 435 621 l 513 621 l 513 690 l 450 690 l 508 972 l 436 972 l 378 690 l 268 690 l 326 972 l 254 972 l 196 690 l 104 690 l 104 621 l 364 621 l 317 396 l 207 396 l 239 550 l 168 550 l 136 396 l 42 396 l 42 325 l 121 325 l 54 0 l 126 0 l 193 325 z m 236 0 l 308 0 l 360 254 l 289 254 z "},"$":{"ha":364,"x_min":0,"x_max":0,"o":"m 217 321 b 238 239 228 294 238 263 l 238 144 b 196 111 238 122 217 111 l 168 111 b 126 144 147 111 126 122 l 126 308 l 42 308 l 42 144 b 146 28 42 85 88 38 l 146 -83 l 217 -83 l 217 28 b 322 144 274 38 322 85 l 322 250 b 289 364 322 293 306 329 l 217 521 z m 146 675 b 126 738 136 696 126 717 l 126 814 b 168 849 126 836 149 849 l 196 849 b 238 814 215 849 238 836 l 238 693 l 322 693 l 322 814 b 217 931 322 874 275 922 l 217 1042 l 146 1042 l 146 931 b 42 814 88 922 42 872 l 42 743 b 75 628 42 700 58 663 l 146 475 z "},"%":{"ha":600,"x_min":0,"x_max":0,"o":"m 519 682 l 35 340 l 74 286 l 558 629 z m 269 728 l 269 671 b 207 613 269 628 247 613 b 144 671 169 613 144 629 l 144 728 l 78 728 l 78 668 b 204 547 78 596 135 547 l 210 547 b 336 668 281 547 336 596 l 336 728 z m 336 851 b 210 972 336 921 283 972 l 204 972 b 78 851 132 972 78 921 l 78 799 l 144 799 l 144 846 b 207 908 144 893 169 908 b 269 846 247 908 269 888 l 269 799 l 336 799 z m 456 181 l 456 124 b 393 65 456 81 433 65 b 331 124 356 65 331 82 l 331 181 l 264 181 l 264 121 b 390 0 264 49 321 0 l 396 0 b 522 121 467 0 522 49 l 522 181 z m 522 304 b 396 425 522 374 469 425 l 390 425 b 264 304 318 425 264 374 l 264 251 l 331 251 l 331 299 b 393 361 331 346 356 361 b 456 299 433 361 456 340 l 456 251 l 522 251 z "},"(":{"ha":282,"x_min":0,"x_max":0,"o":"m 163 1042 b 42 421 86 836 42 638 b 161 -214 42 206 85 -8 l 240 -214 b 131 421 174 -8 131 204 b 240 1042 131 638 176 836 z "},"*":{"ha":369,"x_min":0,"x_max":0,"o":"m 290 932 l 206 865 l 221 972 l 147 972 l 163 865 l 78 932 l 42 869 l 142 828 l 42 788 l 78 725 l 163 792 l 147 685 l 221 685 l 206 792 l 290 725 l 328 788 l 226 828 l 328 869 z "},"?":{"ha":364,"x_min":0,"x_max":0,"o":"m 140 99 l 140 0 l 225 0 l 225 99 z m 126 735 l 126 846 b 168 888 126 869 144 888 l 196 888 b 238 846 219 888 238 869 l 238 735 b 140 297 238 603 140 449 l 140 186 l 225 186 l 225 297 b 322 735 225 442 322 593 l 322 846 b 196 972 322 915 267 972 l 168 972 b 42 846 99 972 42 915 l 42 735 z "},"№":{"ha":810,"x_min":0,"x_max":0,"o":"m 768 482 l 768 392 b 642 272 768 322 711 272 l 635 272 b 508 392 565 272 508 322 l 508 482 l 585 482 l 585 392 b 639 343 585 361 615 343 b 692 392 665 343 692 360 l 692 482 z m 768 553 l 692 553 l 692 638 b 639 686 692 669 665 686 b 585 638 615 686 585 675 l 585 553 l 508 553 l 508 638 b 635 757 508 707 565 757 l 642 757 b 768 638 711 757 768 707 z m 522 186 l 754 186 l 754 117 l 522 117 z m 133 500 l 63 796 l 42 796 l 42 0 l 133 0 z m 379 92 l 160 972 l 42 972 l 42 881 l 96 881 l 315 0 l 433 0 l 433 92 z m 342 472 l 413 176 l 433 176 l 433 972 l 342 972 z "},"+":{"ha":540,"x_min":0,"x_max":0,"o":"m 235 750 l 235 557 l 42 557 l 42 486 l 235 486 l 235 293 l 306 293 l 306 486 l 499 486 l 499 557 l 306 557 l 306 750 z "},"-":{"ha":357,"x_min":0,"x_max":0,"o":"m 42 372 l 315 372 l 315 447 l 42 447 z "},"=":{"ha":632,"x_min":0,"x_max":0,"o":"m 42 328 l 590 328 l 590 411 l 42 411 z m 42 597 l 590 597 l 590 682 l 42 682 z "},"«":{"ha":410,"x_min":0,"x_max":0,"o":"m 169 656 l 42 375 l 169 93 l 232 93 l 139 375 l 232 656 z m 306 656 l 213 375 l 306 93 l 368 93 l 304 375 l 368 656 z "},"»":{"ha":410,"x_min":0,"x_max":0,"o":"m 178 656 l 271 375 l 178 93 l 240 93 l 368 375 l 240 656 z m 42 656 l 106 375 l 42 93 l 104 93 l 197 375 l 104 656 z "},")":{"ha":282,"x_min":0,"x_max":0,"o":"m 42 1042 b 151 421 106 836 151 638 b 42 -214 151 204 108 -8 l 121 -214 b 240 421 197 -8 240 206 b 119 1042 240 638 196 836 z "},"|":{"ha":161,"x_min":0,"x_max":0,"o":"m 42 972 l 42 -214 l 119 -214 l 119 972 z "},"†":{"ha":457,"x_min":0,"x_max":0,"o":"m 415 679 l 415 750 l 264 750 l 264 972 l 193 972 l 193 750 l 42 750 l 42 679 z m 193 608 l 193 0 l 264 0 l 264 608 z "},"©":{"ha":688,"x_min":0,"x_max":0,"o":"m 381 -15 l 386 -15 b 646 246 529 -15 646 103 l 646 726 b 386 988 646 869 529 988 l 381 988 l 381 917 l 386 917 b 576 726 490 917 576 831 l 576 246 b 386 56 576 146 492 56 l 381 56 z m 303 56 b 113 246 197 56 113 140 l 113 726 b 303 917 113 832 197 917 l 310 917 l 310 988 l 303 988 b 42 726 158 988 42 871 l 42 246 b 303 -15 42 101 158 -15 l 310 -15 l 310 56 z m 268 715 b 311 758 268 739 288 758 l 378 758 b 419 715 400 758 419 739 l 419 646 l 504 646 l 504 715 b 378 842 504 785 446 842 l 311 842 b 185 715 242 842 185 785 l 185 540 l 268 540 z m 185 469 l 185 264 b 311 136 185 193 242 136 l 378 136 b 504 264 447 136 504 193 l 504 396 l 419 396 l 419 264 b 378 221 419 240 400 221 l 311 221 b 268 264 288 221 268 240 l 268 469 z "},"®":{"ha":689,"x_min":0,"x_max":0,"o":"m 361 474 b 415 418 396 474 415 453 l 415 136 l 499 136 l 499 424 b 433 515 499 464 472 500 b 499 622 472 538 499 582 l 499 715 b 372 842 499 785 442 842 l 206 842 l 206 758 l 372 758 b 415 715 396 758 415 738 l 415 618 b 361 558 415 583 397 558 z m 290 688 l 206 688 l 206 136 l 290 136 z m 381 -15 l 386 -15 b 646 246 529 -15 646 103 l 646 726 b 386 988 646 869 529 988 l 381 988 l 381 917 l 386 917 b 576 726 490 917 576 831 l 576 246 b 386 56 576 146 492 56 l 381 56 z m 303 56 b 113 246 197 56 113 140 l 113 726 b 303 917 113 832 197 917 l 310 917 l 310 988 l 303 988 b 42 726 158 988 42 871 l 42 246 b 303 -15 42 101 158 -15 l 310 -15 l 310 56 z "},"°":{"ha":394,"x_min":0,"x_max":0,"o":"m 164 744 b 104 832 128 757 104 792 b 199 925 104 883 146 925 b 292 832 247 925 292 883 b 235 746 292 793 268 760 l 235 681 b 353 832 303 697 353 758 b 199 988 353 914 285 988 b 42 832 113 988 42 918 b 164 681 42 757 94 696 z "},"±":{"ha":540,"x_min":0,"x_max":0,"o":"m 235 750 l 235 557 l 42 557 l 42 486 l 235 486 l 235 293 l 306 293 l 306 486 l 499 486 l 499 557 l 306 557 l 306 750 z m 42 182 l 42 111 l 499 111 l 499 182 z "},"[":{"ha":257,"x_min":0,"x_max":0,"o":"m 215 972 l 42 972 l 42 -214 l 215 -214 l 215 -128 l 128 -128 l 128 888 l 215 888 z "},"{":{"ha":296,"x_min":0,"x_max":0,"o":"m 197 853 b 232 888 197 871 214 888 l 254 888 l 254 972 l 218 972 b 113 867 161 972 113 924 l 113 499 b 78 464 113 479 97 464 l 42 464 l 42 379 l 78 379 b 113 344 97 379 113 364 l 113 -108 b 218 -214 113 -165 161 -214 l 254 -214 l 254 -129 l 232 -129 b 197 -94 214 -129 197 -112 l 197 340 b 144 421 197 383 179 413 b 197 508 178 431 197 458 z "},"~":{"ha":640,"x_min":0,"x_max":0,"o":"m 97 346 b 211 411 125 383 164 411 b 417 339 279 411 322 339 b 599 432 483 339 556 378 l 544 490 b 418 424 514 453 464 424 b 213 494 344 424 314 494 b 43 403 142 494 83 457 z "},"¶":{"ha":374,"x_min":0,"x_max":0,"o":"m 332 0 l 332 972 l 176 972 b 42 839 101 972 42 913 l 42 646 b 167 513 42 572 93 513 l 218 513 l 218 897 l 257 897 l 257 0 z "},"]":{"ha":257,"x_min":0,"x_max":0,"o":"m 42 888 l 129 888 l 129 -128 l 42 -128 l 42 -214 l 215 -214 l 215 972 l 42 972 z "},"}":{"ha":296,"x_min":0,"x_max":0,"o":"m 99 508 b 151 421 99 458 118 431 b 99 340 117 413 99 383 l 99 -94 b 64 -129 99 -112 82 -129 l 42 -129 l 42 -214 l 78 -214 b 183 -108 135 -214 183 -165 l 183 344 b 218 379 183 364 199 379 l 254 379 l 254 464 l 218 464 b 183 499 199 464 183 479 l 183 867 b 78 972 183 924 135 972 l 42 972 l 42 888 l 64 888 b 99 853 82 888 99 871 z "},"&":{"ha":472,"x_min":0,"x_max":0,"o":"m 128 844 b 169 888 128 864 147 888 l 324 888 l 324 972 l 169 972 b 43 846 103 972 43 917 l 43 733 l 128 733 z m 126 401 b 193 482 126 450 144 482 l 431 482 l 431 567 l 201 567 b 128 654 151 567 128 606 l 128 663 l 43 663 l 43 656 b 111 529 43 582 72 551 b 42 417 72 510 42 467 l 42 350 l 126 350 z m 42 279 l 42 128 b 168 0 42 61 97 0 l 358 0 l 358 411 l 274 411 l 274 86 l 168 86 b 126 129 147 86 126 106 l 126 279 z "},"§":{"ha":374,"x_min":0,"x_max":0,"o":"m 297 369 b 332 468 318 397 332 431 b 289 590 332 515 319 554 l 157 744 b 126 847 126 779 126 804 b 174 894 126 878 143 894 l 201 894 b 247 850 228 894 247 876 l 247 779 l 325 779 l 325 857 b 201 972 325 924 268 972 l 174 972 b 49 850 103 972 49 922 b 99 693 49 782 51 749 l 229 540 b 254 468 249 518 254 496 b 244 431 254 454 250 442 z m 146 438 b 119 510 126 460 119 481 b 129 547 119 524 124 536 l 76 608 b 42 510 54 581 42 547 b 86 386 42 463 54 424 l 217 233 b 247 124 247 199 247 168 b 201 78 247 94 229 78 l 167 78 b 119 115 144 78 119 93 l 119 194 l 42 194 l 42 115 b 167 0 42 50 101 0 l 201 0 b 325 124 272 0 325 51 b 276 283 325 192 322 229 z "},"¡":{"ha":168,"x_min":0,"x_max":0,"o":"m 126 651 l 126 750 l 42 750 l 42 651 z m 126 -222 l 126 564 l 42 564 l 42 -222 z "},"¿":{"ha":392,"x_min":0,"x_max":0,"o":"m 238 651 l 238 750 l 153 750 l 153 651 z m 251 15 l 251 -96 b 210 -137 251 -119 233 -137 l 182 -137 b 140 -96 158 -137 140 -119 l 140 15 b 238 453 140 147 238 301 l 238 564 l 153 564 l 153 453 b 56 15 153 308 56 157 l 56 -96 b 182 -222 56 -165 111 -222 l 210 -222 b 336 -96 279 -222 336 -165 l 336 15 z "},">":{"ha":718,"x_min":0,"x_max":0,"o":"m 42 658 l 549 411 l 42 163 l 42 72 l 676 383 l 676 438 l 42 750 z "},"_":{"ha":847,"x_min":0,"x_max":0,"o":"m 806 -211 l 42 -211 l 42 -278 l 806 -278 z "},"<":{"ha":718,"x_min":0,"x_max":0,"o":"m 676 750 l 42 438 l 42 383 l 676 72 l 676 163 l 169 411 l 676 658 z "},"‰":{"ha":883,"x_min":0,"x_max":0,"o":"m 526 682 l 42 340 l 81 286 l 565 629 z m 276 728 l 276 671 b 214 613 276 628 254 613 b 151 671 176 613 151 629 l 151 728 l 85 728 l 85 668 b 211 547 85 596 142 547 l 217 547 b 343 668 288 547 343 596 l 343 728 z m 343 851 b 217 972 343 921 290 972 l 211 972 b 85 851 139 972 85 921 l 85 799 l 151 799 l 151 846 b 214 908 151 893 176 908 b 276 846 254 908 276 888 l 276 799 l 343 799 z m 778 181 l 778 124 b 715 65 778 81 756 65 b 653 124 678 65 653 82 l 653 181 l 586 181 l 586 121 b 713 0 586 49 643 0 l 718 0 b 844 121 789 0 844 49 l 844 181 z m 844 304 b 718 425 844 374 792 425 l 713 425 b 586 304 640 425 586 374 l 586 251 l 653 251 l 653 299 b 715 361 653 346 678 361 b 778 299 756 361 778 340 l 778 251 l 844 251 z m 463 181 l 463 124 b 400 65 463 81 440 65 b 338 124 363 65 338 82 l 338 181 l 271 181 l 271 121 b 397 0 271 49 328 0 l 403 0 b 529 121 474 0 529 49 l 529 181 z m 529 304 b 403 425 529 374 476 425 l 397 425 b 271 304 325 425 271 374 l 271 251 l 338 251 l 338 299 b 400 361 338 346 363 361 b 463 299 440 361 463 340 l 463 251 l 529 251 z "},"•":{"ha":328,"x_min":0,"x_max":0,"o":"m 164 653 b 42 531 96 653 42 599 b 164 410 42 465 96 410 b 286 531 232 410 286 465 b 164 653 286 599 232 653 z "},"⚓":{"ha":442,"x_min":0,"x_max":0,"o":"m 256 772 b 221 736 256 753 242 736 b 186 772 201 736 186 753 l 135 772 b 193 689 135 735 158 700 l 193 560 l 79 560 l 79 504 l 193 504 l 193 172 b 94 304 147 204 115 249 l 42 283 b 221 99 78 197 129 131 b 400 283 314 131 364 196 l 349 304 b 249 172 326 249 296 203 l 249 504 l 364 504 l 364 560 l 249 560 l 249 689 b 308 772 285 701 308 733 z "},"@":{"ha":726,"x_min":0,"x_max":0,"o":"m 325 871 l 306 871 b 49 615 165 871 49 756 l 49 156 b 306 -101 49 14 164 -101 l 442 -101 l 442 -18 l 317 -18 b 129 168 214 -18 129 65 l 129 603 b 315 789 129 706 213 789 l 325 789 z m 396 871 l 396 789 l 410 789 b 597 601 513 789 597 704 l 597 208 b 556 157 597 179 585 157 b 499 206 524 157 504 175 l 422 649 l 299 649 l 256 406 l 325 406 l 354 579 l 364 579 l 406 335 l 243 335 l 207 128 l 278 128 l 303 274 l 417 274 l 431 193 b 558 82 442 128 490 82 b 678 211 624 82 678 132 l 678 615 b 419 871 678 756 561 871 z "},"⁞":{"ha":167,"x_min":0,"x_max":0,"o":"m 42 99 l 42 0 l 125 0 l 125 99 z m 42 972 l 42 872 l 125 872 l 125 972 z m 42 392 l 42 292 l 125 292 l 125 392 z m 42 682 l 42 582 l 125 582 l 125 682 z "},"☼":{"ha":793,"x_min":0,"x_max":0,"o":"m 276 631 l 197 710 l 160 672 l 239 593 z m 554 500 b 396 633 542 575 478 633 b 239 500 317 633 251 575 l 292 500 b 396 581 304 546 346 581 b 501 500 446 581 490 547 z m 500 447 b 472 397 494 428 486 411 b 396 367 453 378 426 367 b 292 447 346 367 303 400 l 239 447 b 396 314 251 371 317 314 b 510 360 442 314 482 331 b 554 447 533 383 549 414 z m 424 671 l 424 849 l 371 849 l 371 671 z m 424 99 l 424 276 l 371 276 l 371 99 z m 554 593 l 635 672 l 597 710 l 517 631 z m 594 447 l 751 447 l 751 500 l 594 500 z m 42 447 l 200 447 l 200 500 l 42 500 z m 517 317 l 597 236 l 635 274 l 554 354 z m 239 354 l 160 274 l 197 236 l 276 317 z "},"‚":{"ha":182,"x_min":0,"x_max":0,"o":"m 42 99 l 42 0 l 78 0 l 42 -150 l 74 -150 l 140 0 l 140 99 z "},"·":{"ha":182,"x_min":0,"x_max":0,"o":"m 42 569 l 42 471 l 140 471 l 140 569 z "},"/":{"ha":486,"x_min":0,"x_max":0,"o":"m 392 1042 l 14 -214 l 94 -214 l 472 1042 z "},"\\":{"ha":493,"x_min":0,"x_max":0,"o":"m 14 1042 l 392 -214 l 479 -214 l 101 1042 z "},"Œ":{"ha":624,"x_min":0,"x_max":0,"o":"m 410 411 l 317 411 l 317 92 l 186 92 b 147 131 165 92 147 108 l 147 842 b 186 881 147 863 165 881 l 582 881 l 582 972 l 186 972 b 56 842 115 972 56 914 l 56 131 b 186 0 56 58 115 0 l 582 0 l 582 92 l 410 92 z m 561 482 l 561 567 l 410 567 l 410 810 l 317 810 l 317 482 z "},"œ":{"ha":640,"x_min":0,"x_max":0,"o":"m 415 358 l 578 358 l 578 444 l 415 444 l 415 592 l 329 592 l 329 157 l 415 157 z m 186 86 b 143 129 163 86 143 106 l 143 619 b 186 663 143 643 163 663 l 599 663 l 599 750 l 186 750 b 56 619 114 750 56 690 l 56 129 b 186 0 56 58 114 0 l 599 0 l 599 86 z "},"æ":{"ha":672,"x_min":0,"x_max":0,"o":"m 631 663 l 631 750 l 246 750 l 146 404 l 233 404 l 308 663 z m 361 592 l 361 333 l 125 333 l 28 0 l 118 0 l 190 247 l 447 247 l 447 358 l 610 358 l 610 444 l 447 444 l 447 592 z m 361 176 l 361 0 l 631 0 l 631 86 l 447 86 l 447 176 z "},"Æ":{"ha":665,"x_min":0,"x_max":0,"o":"m 451 208 l 358 208 l 358 0 l 624 0 l 624 92 l 451 92 z m 451 279 l 451 482 l 603 482 l 603 567 l 451 567 l 451 810 l 358 810 l 358 364 l 106 364 l 28 0 l 121 0 l 182 279 z m 624 881 l 624 972 l 236 972 l 121 435 l 214 435 l 308 881 z "},"\"":{"ha":292,"x_min":0,"x_max":0,"o":"m 42 986 l 42 763 l 111 763 l 111 986 z m 181 986 l 181 763 l 250 763 l 250 986 z "},"'":{"ha":153,"x_min":0,"x_max":0,"o":"m 42 986 l 42 763 l 111 763 l 111 986 z "},"…":{"ha":636,"x_min":0,"x_max":0,"o":"m 496 0 l 594 0 l 594 99 l 496 99 z m 42 0 l 140 0 l 140 99 l 42 99 z m 271 0 l 369 0 l 369 99 l 271 99 z "},"¼":{"ha":639,"x_min":0,"x_max":0,"o":"m 428 172 l 499 461 l 490 308 l 490 207 l 551 207 l 551 563 l 468 563 l 367 168 l 367 113 l 490 113 l 490 0 l 551 0 l 551 113 l 597 113 l 597 172 z m 44 475 l 44 411 l 215 411 l 215 475 l 164 475 l 164 972 l 42 972 l 42 908 l 97 908 l 97 475 z m 456 972 l 135 0 l 208 0 l 529 972 z "},"½":{"ha":671,"x_min":0,"x_max":0,"o":"m 490 411 l 490 478 b 511 499 490 488 500 499 l 547 499 b 568 478 557 499 568 489 l 568 422 b 558 368 568 404 567 386 l 453 188 b 428 82 433 153 428 118 l 428 0 l 629 0 l 629 64 l 494 64 l 494 92 b 510 154 494 119 500 135 l 618 344 b 629 408 626 365 629 382 l 629 485 b 554 561 629 526 597 561 l 504 561 b 428 485 464 561 428 528 l 428 411 z m 44 475 l 44 411 l 215 411 l 215 475 l 164 475 l 164 972 l 42 972 l 42 908 l 97 908 l 97 475 z m 456 972 l 135 0 l 208 0 l 529 972 z "},"¾":{"ha":640,"x_min":0,"x_max":0,"o":"m 43 907 l 156 907 l 42 711 l 104 678 b 142 706 113 696 125 706 b 164 685 154 706 164 696 l 164 494 b 143 474 164 483 154 474 l 126 474 b 108 494 118 474 108 483 l 108 576 l 43 576 l 43 488 b 118 411 43 444 78 411 l 151 411 b 229 488 194 411 229 444 l 229 704 b 167 771 229 747 203 771 b 140 764 156 771 146 768 l 229 913 l 229 972 l 43 972 z m 457 972 l 136 0 l 210 0 l 531 972 z m 429 172 l 500 461 l 492 308 l 492 207 l 553 207 l 553 563 l 469 563 l 368 168 l 368 113 l 492 113 l 492 0 l 553 0 l 553 113 l 599 113 l 599 172 z "},"²":{"ha":238,"x_min":0,"x_max":0,"o":"m 96 854 l 96 913 b 103 921 96 917 97 921 l 135 921 b 142 913 140 921 142 918 l 142 864 b 136 829 142 851 140 839 b 42 626 103 764 42 706 l 42 561 l 196 561 l 196 615 l 96 615 l 96 626 b 186 808 96 697 156 746 b 196 863 193 822 196 840 l 196 914 b 135 972 196 947 169 972 l 103 972 b 42 914 71 972 42 949 l 42 854 z "},"³":{"ha":233,"x_min":0,"x_max":0,"o":"m 42 918 l 131 918 l 46 774 l 93 751 b 121 775 101 767 108 775 b 138 760 131 775 138 768 l 138 622 b 131 615 138 618 135 615 l 104 615 b 96 622 100 615 96 618 l 96 686 l 42 686 l 42 622 b 104 561 42 588 69 561 l 131 561 b 192 622 164 561 192 588 l 192 776 b 146 822 192 801 174 822 b 128 818 142 822 132 821 l 192 922 l 192 972 l 42 972 z "},"♥":{"ha":531,"x_min":0,"x_max":0,"o":"m 265 204 b 489 626 396 426 489 461 b 375 750 489 701 436 750 b 265 669 324 750 279 718 b 156 750 251 718 207 750 b 42 626 94 750 42 701 b 265 204 42 461 135 426 z "},"❤":{"ha":650,"x_min":0,"x_max":0,"o":"m 325 213 b 608 626 461 421 608 453 b 464 781 608 711 549 781 b 325 690 407 781 340 744 b 186 781 310 744 243 781 b 42 626 101 781 42 711 b 325 213 42 453 189 419 z "},"←":{"ha":640,"x_min":0,"x_max":0,"o":"m 599 524 l 169 524 l 289 624 l 243 678 l 42 508 l 42 472 l 243 300 l 289 353 l 169 453 l 599 453 z "},"↑":{"ha":461,"x_min":0,"x_max":0,"o":"m 265 210 l 265 638 l 365 519 l 419 565 l 250 767 l 214 767 l 42 565 l 94 519 l 194 638 l 194 210 z "},"→":{"ha":640,"x_min":0,"x_max":0,"o":"m 42 453 l 471 453 l 351 353 l 397 300 l 599 472 l 599 508 l 397 678 l 351 624 l 471 524 l 42 524 z "},"↓":{"ha":461,"x_min":0,"x_max":0,"o":"m 194 767 l 194 339 l 94 457 l 42 411 l 214 210 l 250 210 l 419 411 l 365 457 l 265 339 l 265 767 z "},"↖":{"ha":486,"x_min":0,"x_max":0,"o":"m 444 303 l 164 628 l 317 603 l 329 674 l 69 715 l 42 692 l 42 428 l 111 428 l 111 582 l 390 257 z "},"↘":{"ha":486,"x_min":0,"x_max":0,"o":"m 42 669 l 322 344 l 169 369 l 157 299 l 417 257 l 444 281 l 444 544 l 375 544 l 375 390 l 96 715 z "},"↤":{"ha":685,"x_min":0,"x_max":0,"o":"m 42 508 l 42 471 l 244 299 l 290 351 l 168 451 l 572 451 l 572 364 l 643 364 l 643 610 l 572 610 l 572 522 l 168 522 l 289 622 l 244 676 z "},"↦":{"ha":685,"x_min":0,"x_max":0,"o":"m 440 676 l 396 622 l 517 522 l 113 522 l 113 610 l 42 610 l 42 364 l 113 364 l 113 451 l 517 451 l 394 351 l 440 299 l 643 471 l 643 508 z "},"↥":{"ha":461,"x_min":0,"x_max":0,"o":"m 42 586 l 96 542 l 196 663 l 196 258 l 108 258 l 108 188 l 354 188 l 354 258 l 267 258 l 267 663 l 367 540 l 419 586 l 247 789 l 210 789 z "},"↧":{"ha":461,"x_min":0,"x_max":0,"o":"m 210 188 l 247 188 l 419 390 l 367 436 l 267 314 l 267 718 l 354 718 l 354 789 l 108 789 l 108 718 l 196 718 l 196 314 l 96 435 l 42 390 z "},"↔":{"ha":1056,"x_min":0,"x_max":0,"o":"m 169 451 l 886 451 l 767 351 l 813 299 l 1014 471 l 1014 507 l 813 676 l 767 622 l 886 522 l 169 522 l 289 622 l 243 676 l 42 507 l 42 471 l 243 299 l 289 351 z "},"↕":{"ha":461,"x_min":0,"x_max":0,"o":"m 194 844 l 194 128 l 94 247 l 42 201 l 214 0 l 250 0 l 419 201 l 365 247 l 265 128 l 265 844 l 365 725 l 419 771 l 250 972 l 214 972 l 42 771 l 94 725 z "},"ë":{"ha":367,"x_min":0,"x_max":0,"o":"m 56 288 l 56 0 l 325 0 l 325 86 l 142 86 l 142 288 z m 56 592 l 56 358 l 304 358 l 304 444 l 142 444 l 142 592 z m 56 663 l 325 663 l 325 750 l 56 750 z m 231 972 l 231 874 l 314 874 l 314 972 z m 68 972 l 68 874 l 153 874 l 153 972 z "},"ä":{"ha":483,"x_min":0,"x_max":0,"o":"m 335 178 l 367 0 l 456 0 l 422 178 z m 410 249 l 315 750 l 168 750 l 104 406 l 192 406 l 239 664 l 244 664 l 306 335 l 90 335 l 28 0 l 115 0 l 163 249 z m 282 972 l 282 874 l 365 874 l 365 972 z m 119 972 l 119 874 l 204 874 l 204 972 z "},"Ö":{"ha":464,"x_min":0,"x_max":0,"o":"m 197 881 l 197 972 l 186 972 b 56 842 115 972 56 914 l 56 131 b 186 0 56 58 115 0 l 197 0 l 197 92 l 186 92 b 147 131 165 92 147 108 l 147 842 b 186 881 147 863 165 881 z m 268 881 l 278 881 b 317 842 299 881 317 863 l 317 131 b 278 92 317 108 299 92 l 268 92 l 268 0 l 278 0 b 408 131 350 0 408 58 l 408 842 b 278 972 408 914 350 972 l 268 972 z m 272 1140 l 272 1042 l 356 1042 l 356 1140 z m 110 1140 l 110 1042 l 194 1042 l 194 1140 z "},"Ï":{"ha":361,"x_min":0,"x_max":0,"o":"m 135 482 l 135 92 l 56 92 l 56 0 l 306 0 l 306 92 l 226 92 l 226 482 z m 226 553 l 226 881 l 306 881 l 306 972 l 56 972 l 56 881 l 135 881 l 135 553 z m 221 1140 l 221 1042 l 304 1042 l 304 1140 z m 58 1140 l 58 1042 l 143 1042 l 143 1140 z "},"Ë":{"ha":363,"x_min":0,"x_max":0,"o":"m 56 92 l 56 0 l 319 0 l 319 92 z m 147 163 l 147 482 l 299 482 l 299 567 l 147 567 l 147 810 l 56 810 l 56 163 z m 56 881 l 321 881 l 321 972 l 56 972 z m 228 1140 l 228 1042 l 311 1042 l 311 1140 z m 65 1140 l 65 1042 l 150 1042 l 150 1140 z "},"ü":{"ha":474,"x_min":0,"x_max":0,"o":"m 203 0 l 203 86 l 186 86 b 142 129 161 86 142 106 l 142 750 l 56 750 l 56 129 b 186 0 56 58 114 0 z m 274 0 l 288 0 b 418 129 360 0 418 58 l 418 750 l 332 750 l 332 129 b 288 86 332 106 313 86 l 274 86 z m 276 972 l 276 874 l 360 874 l 360 972 z m 114 972 l 114 874 l 199 874 l 199 972 z "},"ÿ":{"ha":446,"x_min":0,"x_max":0,"o":"m 268 288 l 181 288 l 181 86 l 97 86 l 97 0 l 353 0 l 353 86 l 268 86 z m 283 358 l 432 750 l 339 750 l 229 444 l 219 444 l 107 750 l 14 750 l 165 358 z m 263 972 l 263 874 l 346 874 l 346 972 z m 100 972 l 100 874 l 185 874 l 185 972 z "},"ï":{"ha":367,"x_min":0,"x_max":0,"o":"m 226 365 l 140 365 l 140 86 l 56 86 l 56 0 l 311 0 l 311 86 l 226 86 z m 226 436 l 226 663 l 311 663 l 311 750 l 56 750 l 56 663 l 140 663 l 140 436 z m 224 972 l 224 874 l 307 874 l 307 972 z m 61 972 l 61 874 l 146 874 l 146 972 z "},"ö":{"ha":472,"x_min":0,"x_max":0,"o":"m 286 663 b 329 619 310 663 329 643 l 329 129 b 286 86 329 106 310 86 l 272 86 l 272 0 l 286 0 b 417 129 358 0 417 58 l 417 619 b 286 750 417 692 357 750 l 272 750 l 272 663 z m 201 750 l 186 750 b 56 619 114 750 56 690 l 56 129 b 186 0 56 58 114 0 l 201 0 l 201 86 l 186 86 b 143 129 163 86 143 106 l 143 619 b 186 663 143 643 163 663 l 201 663 z m 276 972 l 276 874 l 360 874 l 360 972 z m 114 972 l 114 874 l 199 874 l 199 972 z "},"Ä":{"ha":485,"x_min":0,"x_max":0,"o":"m 333 215 l 365 0 l 457 0 l 426 215 z m 418 286 l 325 972 l 160 972 l 89 442 l 181 442 l 239 882 l 246 882 l 314 371 l 79 371 l 28 0 l 121 0 l 161 286 z m 282 1140 l 282 1042 l 365 1042 l 365 1140 z m 119 1140 l 119 1042 l 204 1042 l 204 1140 z "},"Ÿ":{"ha":435,"x_min":0,"x_max":0,"o":"m 169 425 l 169 92 l 90 92 l 90 0 l 340 0 l 340 92 l 261 92 l 261 444 l 421 972 l 326 972 z m 181 713 l 108 972 l 14 972 l 136 558 z m 254 1140 l 254 1042 l 338 1042 l 338 1140 z m 92 1140 l 92 1042 l 176 1042 l 176 1140 z "},"Ü":{"ha":465,"x_min":0,"x_max":0,"o":"m 268 92 l 268 0 l 279 0 b 410 131 350 0 410 58 l 410 972 l 318 972 l 318 131 b 279 92 318 108 300 92 z m 197 92 l 186 92 b 147 131 164 92 147 108 l 147 972 l 56 972 l 56 131 b 186 0 56 58 114 0 l 197 0 z m 272 1140 l 272 1042 l 356 1042 l 356 1140 z m 110 1140 l 110 1042 l 194 1042 l 194 1140 z "},"˜":{"ha":418,"x_min":0,"x_max":0,"o":"m 121 872 b 160 911 121 896 135 911 b 265 872 194 911 213 872 b 356 972 321 872 356 917 l 297 972 b 263 935 297 949 288 935 b 154 972 224 935 208 972 b 63 872 99 972 63 929 z "},"Ã":{"ha":485,"x_min":0,"x_max":0,"o":"m 333 215 l 365 0 l 457 0 l 426 215 z m 418 286 l 325 972 l 160 972 l 89 442 l 181 442 l 239 882 l 246 882 l 314 371 l 79 371 l 28 0 l 121 0 l 161 286 z m 154 1042 b 193 1081 154 1065 168 1081 b 299 1042 228 1081 246 1042 b 389 1142 354 1042 389 1086 l 331 1142 b 296 1104 331 1118 321 1104 b 188 1142 257 1104 242 1142 b 96 1042 132 1142 96 1099 z "},"õ":{"ha":472,"x_min":0,"x_max":0,"o":"m 286 663 b 329 619 310 663 329 643 l 329 129 b 286 86 329 106 310 86 l 272 86 l 272 0 l 286 0 b 417 129 358 0 417 58 l 417 619 b 286 750 417 692 357 750 l 272 750 l 272 663 z m 201 750 l 186 750 b 56 619 114 750 56 690 l 56 129 b 186 0 56 58 114 0 l 201 0 l 201 86 l 186 86 b 143 129 163 86 143 106 l 143 619 b 186 663 143 643 163 663 l 201 663 z m 149 872 b 188 911 149 896 163 911 b 293 872 222 911 240 872 b 383 972 349 872 383 917 l 325 972 b 290 935 325 949 315 935 b 182 972 251 935 236 972 b 90 872 126 972 90 929 z "},"ˆ":{"ha":392,"x_min":0,"x_max":0,"o":"m 104 842 l 196 900 l 288 842 l 329 894 l 206 972 l 188 972 l 63 894 z "},"ã":{"ha":483,"x_min":0,"x_max":0,"o":"m 335 178 l 367 0 l 456 0 l 422 178 z m 410 249 l 315 750 l 168 750 l 104 406 l 192 406 l 239 664 l 244 664 l 306 335 l 90 335 l 28 0 l 115 0 l 163 249 z m 154 872 b 193 911 154 896 168 911 b 299 872 228 911 246 872 b 389 972 354 872 389 917 l 331 972 b 296 935 331 949 321 935 b 188 972 257 935 242 972 b 96 872 132 972 96 929 z "},"Ñ":{"ha":503,"x_min":0,"x_max":0,"o":"m 171 1042 b 210 1081 171 1065 185 1081 b 315 1042 244 1081 263 1042 b 406 1142 371 1042 406 1086 l 347 1142 b 313 1104 347 1118 338 1104 b 204 1142 274 1104 258 1142 b 113 1042 149 1142 113 1099 z m 147 500 l 76 796 l 56 796 l 56 0 l 147 0 z m 393 92 l 174 972 l 56 972 l 56 881 l 110 881 l 329 0 l 447 0 l 447 92 z m 356 472 l 426 176 l 447 176 l 447 972 l 356 972 z "},"Õ":{"ha":464,"x_min":0,"x_max":0,"o":"m 197 881 l 197 972 l 186 972 b 56 842 115 972 56 914 l 56 131 b 186 0 56 58 115 0 l 197 0 l 197 92 l 186 92 b 147 131 165 92 147 108 l 147 842 b 186 881 147 863 165 881 z m 268 881 l 278 881 b 317 842 299 881 317 863 l 317 131 b 278 92 317 108 299 92 l 268 92 l 268 0 l 278 0 b 408 131 350 0 408 58 l 408 842 b 278 972 408 914 350 972 l 268 972 z m 144 1042 b 183 1081 144 1065 158 1081 b 289 1042 218 1081 236 1042 b 379 1142 344 1042 379 1086 l 321 1142 b 286 1104 321 1118 311 1104 b 178 1142 247 1104 232 1142 b 86 1042 122 1142 86 1099 z "},"ñ":{"ha":511,"x_min":0,"x_max":0,"o":"m 182 872 b 221 911 182 896 196 911 b 326 872 256 911 274 872 b 417 972 382 872 417 917 l 358 972 b 324 935 358 949 349 935 b 215 972 285 935 269 972 b 124 872 160 972 124 929 z m 394 88 l 178 750 l 56 750 l 56 663 l 117 663 l 332 0 l 456 0 l 456 88 z m 456 158 l 456 750 l 368 750 l 368 354 l 432 158 z m 56 592 l 56 0 l 143 0 l 143 393 l 79 592 z "},"î":{"ha":378,"x_min":0,"x_max":0,"o":"m 232 365 l 146 365 l 146 86 l 61 86 l 61 0 l 317 0 l 317 86 l 232 86 z m 232 436 l 232 663 l 317 663 l 317 750 l 61 750 l 61 663 l 146 663 l 146 436 z m 97 842 l 189 900 l 281 842 l 322 894 l 199 972 l 181 972 l 56 894 z "},"ô":{"ha":472,"x_min":0,"x_max":0,"o":"m 146 842 l 238 900 l 329 842 l 371 894 l 247 972 l 229 972 l 104 894 z m 288 663 b 331 619 311 663 331 643 l 331 129 b 288 86 331 106 311 86 l 274 86 l 274 0 l 288 0 b 418 129 360 0 418 58 l 418 619 b 288 750 418 692 358 750 l 274 750 l 274 663 z m 203 750 l 188 750 b 57 619 115 750 57 690 l 57 129 b 188 0 57 58 115 0 l 203 0 l 203 86 l 188 86 b 144 129 164 86 144 106 l 144 619 b 188 663 144 643 164 663 l 203 663 z "},"ê":{"ha":367,"x_min":0,"x_max":0,"o":"m 56 288 l 56 0 l 325 0 l 325 86 l 142 86 l 142 288 z m 56 592 l 56 358 l 304 358 l 304 444 l 142 444 l 142 592 z m 56 663 l 325 663 l 325 750 l 56 750 z m 99 842 l 190 900 l 282 842 l 324 894 l 200 972 l 182 972 l 57 894 z "},"â":{"ha":483,"x_min":0,"x_max":0,"o":"m 335 178 l 367 0 l 456 0 l 422 178 z m 410 249 l 315 750 l 168 750 l 104 406 l 192 406 l 239 664 l 244 664 l 306 335 l 90 335 l 28 0 l 115 0 l 163 249 z m 150 842 l 242 900 l 333 842 l 375 894 l 251 972 l 233 972 l 108 894 z "},"û":{"ha":474,"x_min":0,"x_max":0,"o":"m 203 0 l 203 86 l 186 86 b 142 129 161 86 142 106 l 142 750 l 56 750 l 56 129 b 186 0 56 58 114 0 z m 274 0 l 288 0 b 418 129 360 0 418 58 l 418 750 l 332 750 l 332 129 b 288 86 332 106 313 86 l 274 86 z m 144 842 l 236 900 l 328 842 l 369 894 l 246 972 l 228 972 l 103 894 z "},"Ô":{"ha":464,"x_min":0,"x_max":0,"o":"m 197 881 l 197 972 l 186 972 b 56 842 115 972 56 914 l 56 131 b 186 0 56 58 115 0 l 197 0 l 197 92 l 186 92 b 147 131 165 92 147 108 l 147 842 b 186 881 147 863 165 881 z m 268 881 l 278 881 b 317 842 299 881 317 863 l 317 131 b 278 92 317 108 299 92 l 268 92 l 268 0 l 278 0 b 408 131 350 0 408 58 l 408 842 b 278 972 408 914 350 972 l 268 972 z m 140 1042 l 232 1100 l 324 1042 l 365 1094 l 242 1172 l 224 1172 l 99 1094 z "},"Â":{"ha":485,"x_min":0,"x_max":0,"o":"m 333 215 l 365 0 l 457 0 l 426 215 z m 418 286 l 325 972 l 160 972 l 89 442 l 181 442 l 239 882 l 246 882 l 314 371 l 79 371 l 28 0 l 121 0 l 161 286 z m 150 1042 l 242 1100 l 333 1042 l 375 1094 l 251 1172 l 233 1172 l 108 1094 z "},"Ê":{"ha":364,"x_min":0,"x_max":0,"o":"m 57 92 l 57 0 l 321 0 l 321 92 z m 149 163 l 149 482 l 300 482 l 300 567 l 149 567 l 149 810 l 57 810 l 57 163 z m 57 881 l 322 881 l 322 972 l 57 972 z m 97 1042 l 189 1100 l 281 1042 l 322 1094 l 199 1172 l 181 1172 l 56 1094 z "},"Î":{"ha":378,"x_min":0,"x_max":0,"o":"m 143 482 l 143 92 l 64 92 l 64 0 l 314 0 l 314 92 l 235 92 l 235 482 z m 235 553 l 235 881 l 314 881 l 314 972 l 64 972 l 64 881 l 143 881 l 143 553 z m 97 1042 l 189 1100 l 281 1042 l 322 1094 l 199 1172 l 181 1172 l 56 1094 z "},"Û":{"ha":465,"x_min":0,"x_max":0,"o":"m 268 92 l 268 0 l 279 0 b 410 131 350 0 410 58 l 410 972 l 318 972 l 318 131 b 279 92 318 108 300 92 z m 197 92 l 186 92 b 147 131 164 92 147 108 l 147 972 l 56 972 l 56 131 b 186 0 56 58 114 0 l 197 0 z m 140 1042 l 232 1100 l 324 1042 l 365 1094 l 242 1172 l 224 1172 l 99 1094 z "},"ˇ":{"ha":350,"x_min":0,"x_max":0,"o":"m 42 919 l 167 842 l 185 842 l 308 919 l 267 972 l 175 914 l 83 972 z "},"Š":{"ha":436,"x_min":0,"x_max":0,"o":"m 183 628 l 176 636 b 147 729 154 664 147 694 l 147 842 b 186 881 147 863 165 881 l 250 881 b 289 842 271 881 289 863 l 289 733 l 381 733 l 381 842 b 250 972 381 914 321 972 l 186 972 b 56 842 115 972 56 913 l 56 729 b 101 582 56 675 68 624 l 183 482 z m 254 539 l 254 396 l 260 389 b 289 296 282 363 289 331 l 289 131 b 250 92 289 108 271 92 l 186 92 b 147 131 165 92 147 108 l 147 279 l 56 279 l 56 131 b 186 0 56 58 114 0 l 250 0 b 381 131 321 0 381 58 l 381 296 b 333 443 381 350 368 401 z m 85 1119 l 210 1042 l 228 1042 l 351 1119 l 310 1172 l 218 1114 l 126 1172 z "},"Ž":{"ha":400,"x_min":0,"x_max":0,"o":"m 51 92 l 28 0 l 343 0 l 343 92 z m 69 163 l 168 163 l 331 810 l 232 810 z m 349 881 l 372 972 l 58 972 l 58 881 z m 67 1119 l 192 1042 l 210 1042 l 333 1119 l 292 1172 l 200 1114 l 108 1172 z "},"š":{"ha":443,"x_min":0,"x_max":0,"o":"m 186 465 l 176 475 b 143 551 154 497 143 519 l 143 619 b 186 663 143 643 163 663 l 257 663 b 301 619 282 663 301 643 l 301 547 l 388 547 l 388 619 b 257 750 388 692 329 750 l 186 750 b 56 619 115 750 56 692 l 56 544 b 114 410 56 486 71 451 l 186 338 z m 257 396 l 257 268 l 272 253 b 301 188 292 233 301 214 l 301 129 b 257 86 301 106 282 86 l 186 86 b 143 129 163 86 143 106 l 143 247 l 56 247 l 56 129 b 186 0 56 58 115 0 l 257 0 b 388 129 329 0 388 58 l 388 194 b 339 315 388 247 376 278 z m 88 919 l 213 842 l 231 842 l 354 919 l 313 972 l 221 914 l 129 972 z "},"ž":{"ha":382,"x_min":0,"x_max":0,"o":"m 44 663 l 44 750 l 354 750 l 328 663 z m 211 592 l 306 592 l 171 157 l 76 157 z m 338 86 l 338 0 l 28 0 l 54 86 z m 57 919 l 182 842 l 200 842 l 324 919 l 282 972 l 190 914 l 99 972 z "},"­":{"ha":343,"x_min":0,"x_max":0,"o":"m 42 346 l 301 346 l 301 417 l 42 417 z "},"−":{"ha":540,"x_min":0,"x_max":0,"o":"m 42 557 l 42 482 l 499 482 l 499 557 z "},"–":{"ha":610,"x_min":0,"x_max":0,"o":"m 42 486 l 42 411 l 568 411 l 568 486 z "},"—":{"ha":721,"x_min":0,"x_max":0,"o":"m 42 486 l 42 411 l 679 411 l 679 486 z "},"¦":{"ha":154,"x_min":0,"x_max":0,"o":"m 42 972 l 42 504 l 113 504 l 113 972 z m 42 308 l 42 -214 l 113 -214 l 113 308 z "},"`":{"ha":290,"x_min":0,"x_max":0,"o":"m 63 919 l 186 828 l 228 881 l 104 972 z "},"À":{"ha":485,"x_min":0,"x_max":0,"o":"m 333 215 l 365 0 l 457 0 l 426 215 z m 418 286 l 325 972 l 160 972 l 89 442 l 181 442 l 239 882 l 246 882 l 314 371 l 79 371 l 28 0 l 121 0 l 161 286 z m 160 1133 l 283 1042 l 325 1094 l 201 1186 z "},"à":{"ha":483,"x_min":0,"x_max":0,"o":"m 335 178 l 367 0 l 456 0 l 422 178 z m 410 249 l 315 750 l 168 750 l 104 406 l 192 406 l 239 664 l 244 664 l 306 335 l 90 335 l 28 0 l 115 0 l 163 249 z m 160 919 l 283 828 l 325 881 l 201 972 z "},"È":{"ha":363,"x_min":0,"x_max":0,"o":"m 56 92 l 56 0 l 319 0 l 319 92 z m 147 163 l 147 482 l 299 482 l 299 567 l 147 567 l 147 810 l 56 810 l 56 163 z m 56 881 l 321 881 l 321 972 l 56 972 z m 106 1133 l 229 1042 l 271 1094 l 147 1186 z "},"Ì":{"ha":361,"x_min":0,"x_max":0,"o":"m 135 482 l 135 92 l 56 92 l 56 0 l 306 0 l 306 92 l 226 92 l 226 482 z m 226 553 l 226 881 l 306 881 l 306 972 l 56 972 l 56 881 l 135 881 l 135 553 z m 99 1133 l 222 1042 l 264 1094 l 140 1186 z "},"Ò":{"ha":464,"x_min":0,"x_max":0,"o":"m 197 881 l 197 972 l 186 972 b 56 842 115 972 56 914 l 56 131 b 186 0 56 58 115 0 l 197 0 l 197 92 l 186 92 b 147 131 165 92 147 108 l 147 842 b 186 881 147 863 165 881 z m 268 881 l 278 881 b 317 842 299 881 317 863 l 317 131 b 278 92 317 108 299 92 l 268 92 l 268 0 l 278 0 b 408 131 350 0 408 58 l 408 842 b 278 972 408 914 350 972 l 268 972 z m 150 1133 l 274 1042 l 315 1094 l 192 1186 z "},"Ù":{"ha":465,"x_min":0,"x_max":0,"o":"m 268 92 l 268 0 l 279 0 b 410 131 350 0 410 58 l 410 972 l 318 972 l 318 131 b 279 92 318 108 300 92 z m 197 92 l 186 92 b 147 131 164 92 147 108 l 147 972 l 56 972 l 56 131 b 186 0 56 58 114 0 l 197 0 z m 150 1133 l 274 1042 l 315 1094 l 192 1186 z "},"è":{"ha":367,"x_min":0,"x_max":0,"o":"m 56 288 l 56 0 l 325 0 l 325 86 l 142 86 l 142 288 z m 56 592 l 56 358 l 304 358 l 304 444 l 142 444 l 142 592 z m 56 663 l 325 663 l 325 750 l 56 750 z m 108 919 l 232 828 l 274 881 l 150 972 z "},"ì":{"ha":367,"x_min":0,"x_max":0,"o":"m 226 365 l 140 365 l 140 86 l 56 86 l 56 0 l 311 0 l 311 86 l 226 86 z m 226 436 l 226 663 l 311 663 l 311 750 l 56 750 l 56 663 l 140 663 l 140 436 z m 101 919 l 225 828 l 267 881 l 143 972 z "},"ò":{"ha":472,"x_min":0,"x_max":0,"o":"m 286 663 b 329 619 310 663 329 643 l 329 129 b 286 86 329 106 310 86 l 272 86 l 272 0 l 286 0 b 417 129 358 0 417 58 l 417 619 b 286 750 417 692 357 750 l 272 750 l 272 663 z m 201 750 l 186 750 b 56 619 114 750 56 690 l 56 129 b 186 0 56 58 114 0 l 201 0 l 201 86 l 186 86 b 143 129 163 86 143 106 l 143 619 b 186 663 143 643 163 663 l 201 663 z m 154 919 l 278 828 l 319 881 l 196 972 z "},"ù":{"ha":474,"x_min":0,"x_max":0,"o":"m 203 0 l 203 86 l 186 86 b 142 129 161 86 142 106 l 142 750 l 56 750 l 56 129 b 186 0 56 58 114 0 z m 274 0 l 288 0 b 418 129 360 0 418 58 l 418 750 l 332 750 l 332 129 b 288 86 332 106 313 86 l 274 86 z m 154 919 l 278 828 l 319 881 l 196 972 z "},"´":{"ha":290,"x_min":0,"x_max":0,"o":"m 186 972 l 63 881 l 104 828 l 228 919 z "},"Á":{"ha":485,"x_min":0,"x_max":0,"o":"m 333 215 l 365 0 l 457 0 l 426 215 z m 418 286 l 325 972 l 160 972 l 89 442 l 181 442 l 239 882 l 246 882 l 314 371 l 79 371 l 28 0 l 121 0 l 161 286 z m 283 1186 l 160 1094 l 201 1042 l 325 1133 z "},"É":{"ha":363,"x_min":0,"x_max":0,"o":"m 56 92 l 56 0 l 319 0 l 319 92 z m 147 163 l 147 482 l 299 482 l 299 567 l 147 567 l 147 810 l 56 810 l 56 163 z m 56 881 l 321 881 l 321 972 l 56 972 z m 229 1186 l 106 1094 l 147 1042 l 271 1133 z "},"Í":{"ha":361,"x_min":0,"x_max":0,"o":"m 135 482 l 135 92 l 56 92 l 56 0 l 306 0 l 306 92 l 226 92 l 226 482 z m 226 553 l 226 881 l 306 881 l 306 972 l 56 972 l 56 881 l 135 881 l 135 553 z m 222 1186 l 99 1094 l 140 1042 l 264 1133 z "},"Ó":{"ha":464,"x_min":0,"x_max":0,"o":"m 197 881 l 197 972 l 186 972 b 56 842 115 972 56 914 l 56 131 b 186 0 56 58 115 0 l 197 0 l 197 92 l 186 92 b 147 131 165 92 147 108 l 147 842 b 186 881 147 863 165 881 z m 268 881 l 278 881 b 317 842 299 881 317 863 l 317 131 b 278 92 317 108 299 92 l 268 92 l 268 0 l 278 0 b 408 131 350 0 408 58 l 408 842 b 278 972 408 914 350 972 l 268 972 z m 274 1186 l 150 1094 l 192 1042 l 315 1133 z "},"Ú":{"ha":465,"x_min":0,"x_max":0,"o":"m 268 92 l 268 0 l 279 0 b 410 131 350 0 410 58 l 410 972 l 318 972 l 318 131 b 279 92 318 108 300 92 z m 197 92 l 186 92 b 147 131 164 92 147 108 l 147 972 l 56 972 l 56 131 b 186 0 56 58 114 0 l 197 0 z m 274 1186 l 150 1094 l 192 1042 l 315 1133 z "},"Ý":{"ha":435,"x_min":0,"x_max":0,"o":"m 169 425 l 169 92 l 90 92 l 90 0 l 340 0 l 340 92 l 261 92 l 261 444 l 421 972 l 326 972 z m 181 713 l 108 972 l 14 972 l 136 558 z m 258 1186 l 135 1094 l 176 1042 l 300 1133 z "},"á":{"ha":483,"x_min":0,"x_max":0,"o":"m 335 178 l 367 0 l 456 0 l 422 178 z m 410 249 l 315 750 l 168 750 l 104 406 l 192 406 l 239 664 l 244 664 l 306 335 l 90 335 l 28 0 l 115 0 l 163 249 z m 283 972 l 160 881 l 201 828 l 325 919 z "},"é":{"ha":367,"x_min":0,"x_max":0,"o":"m 56 288 l 56 0 l 325 0 l 325 86 l 142 86 l 142 288 z m 56 592 l 56 358 l 304 358 l 304 444 l 142 444 l 142 592 z m 56 663 l 325 663 l 325 750 l 56 750 z m 232 972 l 108 881 l 150 828 l 274 919 z "},"í":{"ha":367,"x_min":0,"x_max":0,"o":"m 226 365 l 140 365 l 140 86 l 56 86 l 56 0 l 311 0 l 311 86 l 226 86 z m 226 436 l 226 663 l 311 663 l 311 750 l 56 750 l 56 663 l 140 663 l 140 436 z m 225 972 l 101 881 l 143 828 l 267 919 z "},"ó":{"ha":472,"x_min":0,"x_max":0,"o":"m 272 663 l 272 750 l 286 750 b 417 619 357 750 417 692 l 417 129 b 286 0 417 58 358 0 l 272 0 l 272 86 l 286 86 b 329 129 310 86 329 106 l 329 619 b 286 663 329 643 310 663 z m 201 663 l 186 663 b 143 619 163 663 143 643 l 143 129 b 186 86 143 106 163 86 l 201 86 l 201 0 l 186 0 b 56 129 114 0 56 58 l 56 619 b 186 750 56 690 114 750 l 201 750 z m 278 972 l 154 881 l 196 828 l 319 919 z "},"ú":{"ha":474,"x_min":0,"x_max":0,"o":"m 203 0 l 203 86 l 186 86 b 142 129 161 86 142 106 l 142 750 l 56 750 l 56 129 b 186 0 56 58 114 0 z m 274 0 l 288 0 b 418 129 360 0 418 58 l 418 750 l 332 750 l 332 129 b 288 86 332 106 313 86 l 274 86 z m 278 972 l 154 881 l 196 828 l 319 919 z "},"ý":{"ha":446,"x_min":0,"x_max":0,"o":"m 268 288 l 181 288 l 181 86 l 97 86 l 97 0 l 353 0 l 353 86 l 268 86 z m 283 358 l 432 750 l 339 750 l 229 444 l 219 444 l 107 750 l 14 750 l 165 358 z m 264 972 l 140 881 l 182 828 l 306 919 z "},"Ð":{"ha":457,"x_min":0,"x_max":0,"o":"m 218 0 l 272 0 b 401 131 343 0 401 58 l 401 842 b 272 972 401 914 343 972 l 56 972 l 56 881 l 272 881 b 310 842 293 881 310 864 l 310 131 b 272 92 310 110 293 92 l 218 92 z m 147 0 l 56 0 l 56 489 l -24 489 l -24 560 l 56 560 l 56 810 l 147 810 l 147 560 l 250 560 l 250 489 l 147 489 z "},"£":{"ha":433,"x_min":0,"x_max":0,"o":"m 122 376 l 122 85 l 42 85 l 42 0 l 392 0 l 392 85 l 207 85 l 207 376 z m 331 447 l 331 525 l 207 525 l 207 846 b 249 889 207 869 225 889 l 265 889 b 308 846 289 889 308 869 l 308 750 l 392 750 l 392 846 b 265 972 392 915 335 972 l 249 972 b 122 846 178 972 122 915 l 122 525 l 42 525 l 42 447 z "},"ƒ":{"ha":389,"x_min":0,"x_max":0,"o":"m 333 676 l 338 750 l 246 750 l 251 846 b 294 889 251 869 272 889 l 343 889 l 347 972 l 294 972 b 168 846 225 972 168 915 l 163 750 l 92 750 l 88 676 z m 154 606 l 115 -87 b 72 -129 114 -111 96 -129 l 47 -129 l 42 -214 l 72 -214 b 199 -87 143 -214 194 -157 l 238 606 z "},"€":{"ha":456,"x_min":0,"x_max":0,"o":"m 42 457 l 42 389 l 124 389 l 124 128 b 250 0 124 57 181 0 l 288 0 b 414 128 357 0 414 57 l 414 279 l 331 279 l 331 128 b 288 85 331 104 311 85 l 250 85 b 207 128 226 85 207 104 l 207 389 l 331 389 l 331 457 z m 331 547 l 331 617 l 207 617 l 207 846 b 250 889 207 869 226 889 l 288 889 b 331 846 311 889 331 869 l 331 733 l 414 733 l 414 846 b 288 972 414 915 357 972 l 250 972 b 124 846 181 972 124 915 l 124 617 l 42 617 l 42 547 z "},"¥":{"ha":490,"x_min":0,"x_max":0,"o":"m 56 415 l 56 344 l 197 344 l 197 85 l 118 85 l 118 0 l 368 0 l 368 85 l 289 85 l 289 344 l 435 344 l 435 415 z m 435 506 l 435 582 l 331 582 l 449 972 l 354 972 l 243 585 l 136 972 l 42 972 l 157 582 l 56 582 l 56 506 z "},"Þ":{"ha":444,"x_min":0,"x_max":0,"o":"m 147 588 l 56 588 l 56 0 l 147 0 z m 218 193 l 267 193 b 389 322 340 193 389 251 l 389 619 b 258 750 389 692 329 750 l 147 750 l 147 972 l 56 972 l 56 658 l 258 658 b 297 619 279 658 297 640 l 297 329 b 253 279 297 304 281 279 l 218 279 z "},"þ":{"ha":451,"x_min":0,"x_max":0,"o":"m 142 476 l 56 476 l 56 0 l 142 0 z m 213 161 l 265 161 b 396 290 338 161 396 219 l 396 504 b 265 635 396 576 338 635 l 142 635 l 142 750 l 56 750 l 56 547 l 265 547 b 308 504 289 547 308 528 l 308 290 b 265 247 308 267 289 247 l 213 247 z "},"¸":{"ha":231,"x_min":0,"x_max":0,"o":"m 103 28 l 51 28 l 51 -107 l 108 -107 b 125 -124 118 -107 125 -115 l 125 -135 b 108 -153 125 -144 115 -153 l 42 -153 l 42 -215 l 108 -215 b 189 -133 153 -215 189 -175 l 189 -125 b 108 -46 189 -81 150 -46 l 103 -46 z "},"Ç":{"ha":432,"x_min":0,"x_max":0,"o":"m 186 92 b 147 131 165 92 147 108 l 147 482 l 56 482 l 56 131 b 182 0 56 60 113 1 l 182 -107 l 239 -107 b 256 -124 249 -107 256 -115 l 256 -135 b 239 -153 256 -144 246 -153 l 172 -153 l 172 -215 l 239 -215 b 319 -133 283 -215 319 -175 l 319 -125 b 239 -46 319 -81 281 -46 l 233 -46 l 233 0 l 246 0 b 376 131 318 0 376 58 l 376 279 l 285 279 l 285 131 b 246 92 285 108 267 92 z m 285 733 l 376 733 l 376 842 b 246 972 376 914 318 972 l 186 972 b 56 842 115 972 56 914 l 56 553 l 147 553 l 147 842 b 186 881 147 863 165 881 l 246 881 b 285 842 268 881 285 863 z "},"ç":{"ha":439,"x_min":0,"x_max":0,"o":"m 56 365 l 56 129 b 179 0 56 60 110 3 l 179 -107 l 236 -107 b 253 -124 246 -107 253 -115 l 253 -135 b 236 -153 253 -144 243 -153 l 169 -153 l 169 -215 l 236 -215 b 317 -133 281 -215 317 -175 l 317 -125 b 236 -46 317 -81 278 -46 l 231 -46 l 231 0 l 253 0 b 383 129 325 0 383 58 l 383 247 l 296 247 l 296 129 b 253 86 296 106 276 86 l 185 86 b 142 129 161 86 142 106 l 142 365 z m 56 436 l 142 436 l 142 619 b 185 663 142 643 161 663 l 253 663 b 296 619 276 663 296 643 l 296 547 l 383 547 l 383 619 b 253 750 383 692 325 750 l 185 750 b 56 619 114 750 56 692 z "},"ð":{"ha":465,"x_min":0,"x_max":0,"o":"m 279 0 b 410 129 351 0 410 58 l 410 619 b 279 750 410 692 351 750 l 56 750 l 56 663 l 279 663 b 324 619 304 663 324 643 l 324 129 b 279 86 324 106 304 86 l 213 86 l 213 0 z m 142 367 l 260 367 l 260 438 l 142 438 l 142 592 l 56 592 l 56 438 l -14 438 l -14 367 l 56 367 l 56 0 l 142 0 z "},"‹":{"ha":274,"x_min":0,"x_max":0,"o":"m 169 656 l 42 375 l 169 93 l 232 93 l 139 375 l 232 656 z "},"›":{"ha":274,"x_min":0,"x_max":0,"o":"m 42 656 l 135 375 l 42 93 l 104 93 l 232 375 l 104 656 z "},"¢":{"ha":397,"x_min":0,"x_max":0,"o":"m 126 693 b 168 736 126 714 144 736 l 229 736 b 271 693 250 736 271 717 l 271 613 l 356 613 l 356 693 b 233 819 356 758 301 817 l 233 972 l 163 972 l 163 819 b 42 693 97 817 42 760 l 42 540 l 126 540 z m 42 469 l 42 278 b 163 151 42 213 94 154 l 163 0 l 233 0 l 233 151 b 356 278 297 153 356 208 l 356 363 l 271 363 l 271 278 b 229 236 271 256 254 236 l 168 236 b 126 278 146 236 126 253 l 126 469 z "},"˘":{"ha":361,"x_min":0,"x_max":0,"o":"m 42 972 l 42 961 b 136 864 42 906 81 864 l 225 864 b 319 961 281 864 319 906 l 319 972 l 251 972 l 251 957 b 224 928 251 942 239 928 l 138 928 b 110 957 122 928 110 942 l 110 972 z "},"˚":{"ha":281,"x_min":0,"x_max":0,"o":"m 42 901 b 140 803 42 846 85 803 b 239 901 196 803 239 846 b 140 1000 239 957 196 1000 b 42 901 85 1000 42 957 z m 92 901 b 140 950 92 928 114 950 b 189 901 167 950 189 928 b 140 853 189 875 167 853 b 92 901 114 853 92 875 z "},"å":{"ha":483,"x_min":0,"x_max":0,"o":"m 335 178 l 367 0 l 456 0 l 422 178 z m 410 249 l 315 750 l 168 750 l 104 406 l 192 406 l 239 664 l 244 664 l 306 335 l 90 335 l 28 0 l 115 0 l 163 249 z m 272 939 b 290 901 283 931 290 917 b 242 853 290 875 268 853 b 193 901 215 853 193 875 b 213 940 193 917 201 932 l 213 996 b 143 901 171 983 143 947 b 242 803 143 846 186 803 b 340 901 297 803 340 846 b 272 996 340 946 313 983 z "},"Å":{"ha":485,"x_min":0,"x_max":0,"o":"m 333 215 l 365 0 l 457 0 l 426 215 z m 418 286 l 325 972 l 160 972 l 89 442 l 181 442 l 239 882 l 246 882 l 314 371 l 79 371 l 28 0 l 121 0 l 161 286 z m 272 1161 b 290 1124 283 1153 290 1139 b 242 1075 290 1097 268 1075 b 193 1124 215 1075 193 1097 b 213 1163 193 1139 201 1154 l 213 1218 b 143 1124 171 1206 143 1169 b 242 1025 143 1068 186 1025 b 340 1124 297 1025 340 1068 b 272 1218 340 1168 313 1206 z "},"▲":{"ha":608,"x_min":0,"x_max":0,"o":"m 42 0 l 567 0 l 307 372 z "},"▼":{"ha":608,"x_min":0,"x_max":0,"o":"m 307 378 l 567 750 l 42 750 z "},"◀":{"ha":456,"x_min":0,"x_max":0,"o":"m 42 403 l 414 143 l 414 668 z "},"▶":{"ha":456,"x_min":0,"x_max":0,"o":"m 42 668 l 42 143 l 414 403 z "},"Ā":{"ha":485,"x_min":0,"x_max":0,"o":"m 333 215 l 365 0 l 457 0 l 426 215 z m 418 286 l 325 972 l 160 972 l 89 442 l 181 442 l 239 882 l 246 882 l 314 371 l 79 371 l 28 0 l 121 0 l 161 286 z m 110 1131 l 110 1060 l 375 1060 l 375 1131 z "},"ā":{"ha":483,"x_min":0,"x_max":0,"o":"m 335 178 l 367 0 l 456 0 l 422 178 z m 410 249 l 315 750 l 168 750 l 104 406 l 192 406 l 239 664 l 244 664 l 306 335 l 90 335 l 28 0 l 115 0 l 163 249 z m 110 972 l 110 901 l 375 901 l 375 972 z "},"Ă":{"ha":485,"x_min":0,"x_max":0,"o":"m 333 215 l 365 0 l 457 0 l 426 215 z m 418 286 l 325 972 l 160 972 l 89 442 l 181 442 l 239 882 l 246 882 l 314 371 l 79 371 l 28 0 l 121 0 l 161 286 z m 103 1150 l 103 1139 b 197 1042 103 1083 142 1042 l 286 1042 b 381 1139 342 1042 381 1083 l 381 1150 l 313 1150 l 313 1135 b 285 1106 313 1119 300 1106 l 199 1106 b 171 1135 183 1106 171 1119 l 171 1150 z "},"ă":{"ha":483,"x_min":0,"x_max":0,"o":"m 335 178 l 367 0 l 456 0 l 422 178 z m 410 249 l 315 750 l 168 750 l 104 406 l 192 406 l 239 664 l 244 664 l 306 335 l 90 335 l 28 0 l 115 0 l 163 249 z m 103 972 l 103 961 b 197 864 103 906 142 864 l 286 864 b 381 961 342 864 381 906 l 381 972 l 313 972 l 313 957 b 285 928 313 942 300 928 l 199 928 b 171 957 183 928 171 942 l 171 972 z "},"Ą":{"ha":486,"x_min":0,"x_max":0,"o":"m 418 286 l 325 972 l 160 972 l 89 442 l 181 442 l 239 882 l 246 882 l 314 371 l 79 371 l 28 0 l 121 0 l 161 286 z m 406 -111 b 451 0 406 -71 424 -35 l 457 0 l 456 6 b 464 15 458 8 461 13 l 454 15 l 426 215 l 333 215 l 365 0 l 392 0 b 338 -122 360 -37 338 -74 b 404 -193 338 -158 360 -193 l 458 -193 l 458 -132 l 426 -132 b 406 -111 413 -132 406 -124 z "},"ą":{"ha":485,"x_min":0,"x_max":0,"o":"m 335 178 l 367 0 l 390 0 b 336 -122 358 -37 336 -74 b 403 -193 336 -158 358 -193 l 457 -193 l 457 -132 l 425 -132 b 404 -111 411 -132 404 -124 b 456 0 404 -79 422 -40 l 422 178 z m 408 249 l 315 750 l 168 750 l 103 406 l 192 406 l 239 664 l 244 664 l 306 335 l 90 335 l 28 0 l 115 0 l 163 249 z "},"Ć":{"ha":432,"x_min":0,"x_max":0,"o":"m 186 92 b 147 131 165 92 147 108 l 147 482 l 56 482 l 56 131 b 186 0 56 58 115 0 l 246 0 b 376 131 318 0 376 58 l 376 279 l 285 279 l 285 131 b 246 92 285 108 267 92 z m 285 733 l 376 733 l 376 842 b 246 972 376 914 318 972 l 186 972 b 56 842 115 972 56 914 l 56 553 l 147 553 l 147 842 b 186 881 147 863 165 881 l 246 881 b 285 842 268 881 285 863 z m 257 1186 l 133 1094 l 175 1042 l 299 1133 z "},"ć":{"ha":439,"x_min":0,"x_max":0,"o":"m 56 365 l 56 129 b 185 0 56 58 114 0 l 253 0 b 383 129 325 0 383 58 l 383 247 l 296 247 l 296 129 b 253 86 296 106 276 86 l 185 86 b 142 129 161 86 142 106 l 142 365 z m 56 436 l 142 436 l 142 619 b 185 663 142 643 161 663 l 253 663 b 296 619 276 663 296 643 l 296 547 l 383 547 l 383 619 b 253 750 383 692 325 750 l 185 750 b 56 619 114 750 56 692 z m 261 972 l 138 881 l 179 828 l 303 919 z "},"Ĉ":{"ha":432,"x_min":0,"x_max":0,"o":"m 186 92 b 147 131 165 92 147 108 l 147 482 l 56 482 l 56 131 b 186 0 56 58 115 0 l 246 0 b 376 131 318 0 376 58 l 376 279 l 285 279 l 285 131 b 246 92 285 108 267 92 z m 285 733 l 376 733 l 376 842 b 246 972 376 914 318 972 l 186 972 b 56 842 115 972 56 914 l 56 553 l 147 553 l 147 842 b 186 881 147 863 165 881 l 246 881 b 285 842 268 881 285 863 z m 124 1042 l 215 1100 l 307 1042 l 349 1094 l 225 1172 l 207 1172 l 82 1094 z "},"ĉ":{"ha":439,"x_min":0,"x_max":0,"o":"m 56 365 l 56 129 b 185 0 56 58 114 0 l 253 0 b 383 129 325 0 383 58 l 383 247 l 296 247 l 296 129 b 253 86 296 106 276 86 l 185 86 b 142 129 161 86 142 106 l 142 365 z m 56 436 l 142 436 l 142 619 b 185 663 142 643 161 663 l 253 663 b 296 619 276 663 296 643 l 296 547 l 383 547 l 383 619 b 253 750 383 692 325 750 l 185 750 b 56 619 114 750 56 692 z m 129 842 l 221 900 l 313 842 l 354 894 l 231 972 l 213 972 l 88 894 z "},"Ċ":{"ha":432,"x_min":0,"x_max":0,"o":"m 186 92 b 147 131 165 92 147 108 l 147 482 l 56 482 l 56 131 b 186 0 56 58 115 0 l 246 0 b 376 131 318 0 376 58 l 376 279 l 285 279 l 285 131 b 246 92 285 108 267 92 z m 285 733 l 376 733 l 376 842 b 246 972 376 914 318 972 l 186 972 b 56 842 115 972 56 914 l 56 553 l 147 553 l 147 842 b 186 881 147 863 165 881 l 246 881 b 285 842 268 881 285 863 z m 174 1140 l 174 1042 l 258 1042 l 258 1140 z "},"ċ":{"ha":439,"x_min":0,"x_max":0,"o":"m 56 365 l 56 129 b 185 0 56 58 114 0 l 253 0 b 383 129 325 0 383 58 l 383 247 l 296 247 l 296 129 b 253 86 296 106 276 86 l 185 86 b 142 129 161 86 142 106 l 142 365 z m 56 436 l 142 436 l 142 619 b 185 663 142 643 161 663 l 253 663 b 296 619 276 663 296 643 l 296 547 l 383 547 l 383 619 b 253 750 383 692 325 750 l 185 750 b 56 619 114 750 56 692 z m 178 972 l 178 874 l 263 874 l 263 972 z "},"Č":{"ha":432,"x_min":0,"x_max":0,"o":"m 186 92 b 147 131 165 92 147 108 l 147 482 l 56 482 l 56 131 b 186 0 56 58 115 0 l 246 0 b 376 131 318 0 376 58 l 376 279 l 285 279 l 285 131 b 246 92 285 108 267 92 z m 285 733 l 376 733 l 376 842 b 246 972 376 914 318 972 l 186 972 b 56 842 115 972 56 914 l 56 553 l 147 553 l 147 842 b 186 881 147 863 165 881 l 246 881 b 285 842 268 881 285 863 z m 82 1119 l 207 1042 l 225 1042 l 349 1119 l 307 1172 l 215 1114 l 124 1172 z "},"č":{"ha":439,"x_min":0,"x_max":0,"o":"m 56 365 l 56 129 b 185 0 56 58 114 0 l 253 0 b 383 129 325 0 383 58 l 383 247 l 296 247 l 296 129 b 253 86 296 106 276 86 l 185 86 b 142 129 161 86 142 106 l 142 365 z m 56 436 l 142 436 l 142 619 b 185 663 142 643 161 663 l 253 663 b 296 619 276 663 296 643 l 296 547 l 383 547 l 383 619 b 253 750 383 692 325 750 l 185 750 b 56 619 114 750 56 692 z m 86 919 l 211 842 l 229 842 l 353 919 l 311 972 l 219 914 l 128 972 z "},"Ď":{"ha":457,"x_min":0,"x_max":0,"o":"m 218 0 l 272 0 b 401 131 343 0 401 58 l 401 842 b 272 972 401 914 343 972 l 56 972 l 56 881 l 272 881 b 310 842 293 881 310 864 l 310 131 b 272 92 310 110 293 92 l 218 92 z m 147 0 l 56 0 l 56 810 l 147 810 z m 67 1119 l 192 1042 l 210 1042 l 333 1119 l 292 1172 l 200 1114 l 108 1172 z "},"ď":{"ha":465,"x_min":0,"x_max":0,"o":"m 142 0 l 56 0 l 56 592 l 142 592 z m 213 0 l 213 86 l 279 86 b 324 129 304 86 324 106 l 324 619 b 279 663 324 643 304 663 l 56 663 l 56 750 l 279 750 b 410 619 351 750 410 692 l 410 129 b 279 0 410 58 351 0 z m 76 919 l 201 842 l 219 842 l 343 919 l 301 972 l 210 914 l 118 972 z "},"Đ":{"ha":499,"x_min":0,"x_max":0,"o":"m 260 0 l 314 0 b 443 131 385 0 443 58 l 443 842 b 314 972 443 914 385 972 l 97 972 l 97 881 l 314 881 b 351 842 335 881 351 864 l 351 131 b 314 92 351 110 335 92 l 260 92 z m 189 0 l 97 0 l 97 489 l 28 489 l 28 560 l 97 560 l 97 810 l 189 810 l 189 560 l 301 560 l 301 489 l 189 489 z "},"đ":{"ha":507,"x_min":0,"x_max":0,"o":"m 321 0 b 451 129 393 0 451 58 l 451 619 b 321 750 451 692 393 750 l 97 750 l 97 663 l 321 663 b 365 619 346 663 365 643 l 365 129 b 321 86 365 106 346 86 l 254 86 l 254 0 z m 183 367 l 301 367 l 301 438 l 183 438 l 183 592 l 97 592 l 97 438 l 28 438 l 28 367 l 97 367 l 97 0 l 183 0 z "},"Ē":{"ha":363,"x_min":0,"x_max":0,"o":"m 56 92 l 56 0 l 319 0 l 319 92 z m 147 163 l 147 482 l 299 482 l 299 567 l 147 567 l 147 810 l 56 810 l 56 163 z m 56 881 l 321 881 l 321 972 l 56 972 z m 56 1131 l 56 1060 l 321 1060 l 321 1131 z "},"ē":{"ha":367,"x_min":0,"x_max":0,"o":"m 56 288 l 56 0 l 325 0 l 325 86 l 142 86 l 142 288 z m 56 592 l 56 358 l 304 358 l 304 444 l 142 444 l 142 592 z m 56 663 l 325 663 l 325 750 l 56 750 z m 58 972 l 58 901 l 324 901 l 324 972 z "},"Ĕ":{"ha":375,"x_min":0,"x_max":0,"o":"m 63 92 l 63 0 l 326 0 l 326 92 z m 154 163 l 154 482 l 306 482 l 306 567 l 154 567 l 154 810 l 63 810 l 63 163 z m 63 881 l 328 881 l 328 972 l 63 972 z m 56 1150 l 56 1139 b 150 1042 56 1083 94 1042 l 239 1042 b 333 1139 294 1042 333 1083 l 333 1150 l 265 1150 l 265 1135 b 238 1106 265 1119 253 1106 l 151 1106 b 124 1135 136 1106 124 1119 l 124 1150 z "},"ĕ":{"ha":375,"x_min":0,"x_max":0,"o":"m 61 288 l 61 0 l 331 0 l 331 86 l 147 86 l 147 288 z m 61 592 l 61 358 l 310 358 l 310 444 l 147 444 l 147 592 z m 61 663 l 331 663 l 331 750 l 61 750 z m 56 972 l 56 961 b 150 864 56 906 94 864 l 239 864 b 333 961 294 864 333 906 l 333 972 l 265 972 l 265 957 b 238 928 265 942 253 928 l 151 928 b 124 957 136 928 124 942 l 124 972 z "},"Ė":{"ha":363,"x_min":0,"x_max":0,"o":"m 56 92 l 56 0 l 319 0 l 319 92 z m 147 163 l 147 482 l 299 482 l 299 567 l 147 567 l 147 810 l 56 810 l 56 163 z m 56 881 l 321 881 l 321 972 l 56 972 z m 146 1140 l 146 1042 l 231 1042 l 231 1140 z "},"ė":{"ha":367,"x_min":0,"x_max":0,"o":"m 56 288 l 56 0 l 325 0 l 325 86 l 142 86 l 142 288 z m 56 592 l 56 358 l 304 358 l 304 444 l 142 444 l 142 592 z m 56 663 l 325 663 l 325 750 l 56 750 z m 149 972 l 149 874 l 233 874 l 233 972 z "},"Ę":{"ha":364,"x_min":0,"x_max":0,"o":"m 56 92 l 56 0 l 256 0 b 201 -122 224 -37 201 -74 b 268 -193 201 -158 224 -193 l 322 -193 l 322 -132 l 290 -132 b 269 -111 276 -132 269 -124 b 319 0 269 -79 288 -40 l 319 92 z m 56 881 l 321 881 l 321 972 l 56 972 z m 56 810 l 56 163 l 147 163 l 147 482 l 299 482 l 299 567 l 147 567 l 147 810 z "},"ę":{"ha":368,"x_min":0,"x_max":0,"o":"m 325 86 l 142 86 l 142 288 l 56 288 l 56 0 l 265 0 b 211 -122 233 -37 211 -74 b 278 -193 211 -158 233 -193 l 332 -193 l 332 -132 l 300 -132 b 279 -111 286 -132 279 -124 b 325 0 279 -71 297 -35 z m 56 592 l 56 358 l 304 358 l 304 444 l 142 444 l 142 592 z m 56 663 l 325 663 l 325 750 l 56 750 z "},"Ě":{"ha":369,"x_min":0,"x_max":0,"o":"m 56 92 l 56 0 l 319 0 l 319 92 z m 147 163 l 147 482 l 299 482 l 299 567 l 147 567 l 147 810 l 56 810 l 56 163 z m 56 881 l 321 881 l 321 972 l 56 972 z m 61 1119 l 186 1042 l 204 1042 l 328 1119 l 286 1172 l 194 1114 l 103 1172 z "},"ě":{"ha":367,"x_min":0,"x_max":0,"o":"m 56 288 l 56 0 l 325 0 l 325 86 l 142 86 l 142 288 z m 56 592 l 56 358 l 304 358 l 304 444 l 142 444 l 142 592 z m 56 663 l 325 663 l 325 750 l 56 750 z m 57 919 l 182 842 l 200 842 l 324 919 l 282 972 l 190 914 l 99 972 z "},"¯":{"ha":390,"x_min":0,"x_max":0,"o":"m 63 972 l 63 901 l 328 901 l 328 972 z "},"˛":{"ha":204,"x_min":0,"x_max":0,"o":"m 110 -111 b 161 0 110 -79 128 -40 l 121 7 l 96 0 b 42 -122 64 -37 42 -74 b 108 -193 42 -158 64 -193 l 163 -193 l 163 -132 l 131 -132 b 110 -111 117 -132 110 -124 z "},"˙":{"ha":168,"x_min":0,"x_max":0,"o":"m 42 972 l 42 874 l 126 874 l 126 972 z "},"Ĝ":{"ha":432,"x_min":0,"x_max":0,"o":"m 376 482 l 225 482 l 225 397 l 376 397 z m 285 326 l 285 131 b 246 92 285 108 267 92 l 186 92 b 147 131 165 92 147 108 l 147 482 l 56 482 l 56 131 b 186 0 56 58 114 0 l 246 0 b 376 131 318 0 376 58 l 376 326 z m 147 553 l 147 842 b 186 881 147 863 165 881 l 246 881 b 285 842 268 881 285 863 l 285 733 l 376 733 l 376 842 b 246 972 376 914 318 972 l 186 972 b 56 842 115 972 56 913 l 56 553 z m 124 1042 l 215 1100 l 307 1042 l 349 1094 l 225 1172 l 207 1172 l 82 1094 z "},"ĝ":{"ha":439,"x_min":0,"x_max":0,"o":"m 383 358 l 229 358 l 229 272 l 383 272 z m 143 619 b 186 663 143 643 163 663 l 254 663 b 297 619 278 663 297 643 l 297 547 l 383 547 l 383 619 b 254 750 383 692 325 750 l 186 750 b 56 619 114 750 56 692 l 56 436 l 143 436 z m 56 365 l 56 129 b 186 0 56 58 114 0 l 254 0 b 383 129 325 0 383 58 l 383 201 l 297 201 l 297 129 b 254 86 297 106 278 86 l 186 86 b 143 129 163 86 143 106 l 143 365 z m 128 842 l 219 900 l 311 842 l 353 894 l 229 972 l 211 972 l 86 894 z "},"Ğ":{"ha":432,"x_min":0,"x_max":0,"o":"m 376 482 l 225 482 l 225 397 l 376 397 z m 285 326 l 285 131 b 246 92 285 108 267 92 l 186 92 b 147 131 165 92 147 108 l 147 482 l 56 482 l 56 131 b 186 0 56 58 114 0 l 246 0 b 376 131 318 0 376 58 l 376 326 z m 147 553 l 147 842 b 186 881 147 863 165 881 l 246 881 b 285 842 268 881 285 863 l 285 733 l 376 733 l 376 842 b 246 972 376 914 318 972 l 186 972 b 56 842 115 972 56 913 l 56 553 z m 76 1150 l 76 1139 b 171 1042 76 1083 115 1042 l 260 1042 b 354 1139 315 1042 354 1083 l 354 1150 l 286 1150 l 286 1135 b 258 1106 286 1119 274 1106 l 172 1106 b 144 1135 157 1106 144 1119 l 144 1150 z "},"ğ":{"ha":439,"x_min":0,"x_max":0,"o":"m 383 358 l 229 358 l 229 272 l 383 272 z m 143 619 b 186 663 143 643 163 663 l 254 663 b 297 619 278 663 297 643 l 297 547 l 383 547 l 383 619 b 254 750 383 692 325 750 l 186 750 b 56 619 114 750 56 692 l 56 436 l 143 436 z m 56 365 l 56 129 b 186 0 56 58 114 0 l 254 0 b 383 129 325 0 383 58 l 383 201 l 297 201 l 297 129 b 254 86 297 106 278 86 l 186 86 b 143 129 163 86 143 106 l 143 365 z m 81 972 l 81 961 b 175 864 81 906 119 864 l 264 864 b 358 961 319 864 358 906 l 358 972 l 290 972 l 290 957 b 263 928 290 942 278 928 l 176 928 b 149 957 161 928 149 942 l 149 972 z "},"Ġ":{"ha":432,"x_min":0,"x_max":0,"o":"m 376 482 l 225 482 l 225 397 l 376 397 z m 285 326 l 285 131 b 246 92 285 108 267 92 l 186 92 b 147 131 165 92 147 108 l 147 482 l 56 482 l 56 131 b 186 0 56 58 114 0 l 246 0 b 376 131 318 0 376 58 l 376 326 z m 147 553 l 147 842 b 186 881 147 863 165 881 l 246 881 b 285 842 268 881 285 863 l 285 733 l 376 733 l 376 842 b 246 972 376 914 318 972 l 186 972 b 56 842 115 972 56 913 l 56 553 z m 174 1140 l 174 1042 l 258 1042 l 258 1140 z "},"ġ":{"ha":439,"x_min":0,"x_max":0,"o":"m 383 358 l 229 358 l 229 272 l 383 272 z m 143 619 b 186 663 143 643 163 663 l 254 663 b 297 619 278 663 297 643 l 297 547 l 383 547 l 383 619 b 254 750 383 692 325 750 l 186 750 b 56 619 114 750 56 692 l 56 436 l 143 436 z m 56 365 l 56 129 b 186 0 56 58 114 0 l 254 0 b 383 129 325 0 383 58 l 383 201 l 297 201 l 297 129 b 254 86 297 106 278 86 l 186 86 b 143 129 163 86 143 106 l 143 365 z m 178 972 l 178 874 l 263 874 l 263 972 z "},"ģ":{"ha":439,"x_min":0,"x_max":0,"o":"m 383 358 l 229 358 l 229 272 l 383 272 z m 143 619 b 186 663 143 643 163 663 l 254 663 b 297 619 278 663 297 643 l 297 547 l 383 547 l 383 619 b 254 750 383 692 325 750 l 186 750 b 56 619 114 750 56 692 l 56 436 l 143 436 z m 56 365 l 56 129 b 186 0 56 58 114 0 l 254 0 b 383 129 325 0 383 58 l 383 201 l 297 201 l 297 129 b 254 86 297 106 278 86 l 186 86 b 143 129 163 86 143 106 l 143 365 z m 178 -44 l 178 -129 l 208 -129 l 178 -215 l 210 -215 l 261 -129 l 261 -44 z "},"Ĥ":{"ha":465,"x_min":0,"x_max":0,"o":"m 318 411 l 318 0 l 410 0 l 410 411 z m 410 482 l 410 972 l 318 972 l 318 567 l 56 567 l 56 0 l 147 0 l 147 482 z m 147 638 l 147 972 l 56 972 l 56 638 z m 140 1042 l 232 1100 l 324 1042 l 365 1094 l 242 1172 l 224 1172 l 99 1094 z "},"ĥ":{"ha":474,"x_min":0,"x_max":0,"o":"m 142 750 l 56 750 l 56 515 l 142 515 z m 418 358 l 418 750 l 332 750 l 332 444 l 56 444 l 56 0 l 142 0 l 142 358 z m 332 0 l 418 0 l 418 288 l 332 288 z m 144 842 l 236 900 l 328 842 l 369 894 l 246 972 l 228 972 l 103 894 z "},"Ħ":{"ha":465,"x_min":0,"x_max":0,"o":"m 318 340 l 318 0 l 410 0 l 410 340 z m 410 411 l 410 972 l 318 972 l 318 722 l 147 722 l 147 972 l 56 972 l 56 638 l 318 638 l 318 496 l 147 496 l 147 567 l 56 567 l 56 0 l 147 0 l 147 411 z "},"ħ":{"ha":474,"x_min":0,"x_max":0,"o":"m 418 750 l 332 750 l 332 572 l 142 572 l 142 750 l 56 750 l 56 486 l 332 486 l 332 372 l 142 372 l 142 415 l 56 415 l 56 0 l 142 0 l 142 286 l 418 286 z m 332 215 l 332 0 l 418 0 l 418 215 z "},"Ĩ":{"ha":404,"x_min":0,"x_max":0,"o":"m 156 482 l 156 92 l 76 92 l 76 0 l 326 0 l 326 92 l 247 92 l 247 482 z m 247 553 l 247 881 l 326 881 l 326 972 l 76 972 l 76 881 l 156 881 l 156 553 z m 114 1042 b 153 1081 114 1065 128 1081 b 258 1042 188 1081 206 1042 b 349 1142 314 1042 349 1086 l 290 1142 b 256 1104 290 1118 281 1104 b 147 1142 217 1104 201 1142 b 56 1042 92 1142 56 1099 z "},"ĩ":{"ha":404,"x_min":0,"x_max":0,"o":"m 244 365 l 158 365 l 158 86 l 74 86 l 74 0 l 329 0 l 329 86 l 244 86 z m 244 436 l 244 663 l 329 663 l 329 750 l 74 750 l 74 663 l 158 663 l 158 436 z m 114 872 b 153 911 114 896 128 911 b 258 872 188 911 206 872 b 349 972 314 872 349 917 l 290 972 b 256 935 290 949 281 935 b 147 972 217 935 201 972 b 56 872 92 972 56 929 z "},"Ī":{"ha":376,"x_min":0,"x_max":0,"o":"m 142 482 l 142 92 l 63 92 l 63 0 l 313 0 l 313 92 l 233 92 l 233 482 z m 233 553 l 233 881 l 313 881 l 313 972 l 63 972 l 63 881 l 142 881 l 142 553 z m 56 1131 l 56 1060 l 321 1060 l 321 1131 z "},"ī":{"ha":376,"x_min":0,"x_max":0,"o":"m 231 365 l 144 365 l 144 86 l 60 86 l 60 0 l 315 0 l 315 86 l 231 86 z m 231 436 l 231 663 l 315 663 l 315 750 l 60 750 l 60 663 l 144 663 l 144 436 z m 56 972 l 56 901 l 321 901 l 321 972 z "},"Ĭ":{"ha":389,"x_min":0,"x_max":0,"o":"m 149 482 l 149 92 l 69 92 l 69 0 l 319 0 l 319 92 l 240 92 l 240 482 z m 240 553 l 240 881 l 319 881 l 319 972 l 69 972 l 69 881 l 149 881 l 149 553 z m 56 1150 l 56 1139 b 150 1042 56 1083 94 1042 l 239 1042 b 333 1139 294 1042 333 1083 l 333 1150 l 265 1150 l 265 1135 b 238 1106 265 1119 253 1106 l 151 1106 b 124 1135 136 1106 124 1119 l 124 1150 z "},"ĭ":{"ha":389,"x_min":0,"x_max":0,"o":"m 238 365 l 151 365 l 151 86 l 67 86 l 67 0 l 322 0 l 322 86 l 238 86 z m 238 436 l 238 663 l 322 663 l 322 750 l 67 750 l 67 663 l 151 663 l 151 436 z m 56 972 l 56 961 b 150 864 56 906 94 864 l 239 864 b 333 961 294 864 333 906 l 333 972 l 265 972 l 265 957 b 238 928 265 942 253 928 l 151 928 b 124 957 136 928 124 942 l 124 972 z "},"Į":{"ha":361,"x_min":0,"x_max":0,"o":"m 175 -111 b 221 0 175 -71 193 -35 l 306 0 l 306 92 l 226 92 l 226 482 l 135 482 l 135 92 l 56 92 l 56 0 l 161 0 b 107 -122 129 -37 107 -74 b 174 -193 107 -158 129 -193 l 228 -193 l 228 -132 l 196 -132 b 175 -111 182 -132 175 -124 z m 226 553 l 226 881 l 306 881 l 306 972 l 56 972 l 56 881 l 135 881 l 135 553 z "},"į":{"ha":367,"x_min":0,"x_max":0,"o":"m 182 -111 b 228 0 182 -71 200 -35 l 311 0 l 311 86 l 226 86 l 226 365 l 140 365 l 140 86 l 56 86 l 56 0 l 167 0 b 114 -122 135 -37 114 -74 b 181 -193 114 -158 136 -193 l 235 -193 l 235 -132 l 203 -132 b 182 -111 189 -132 182 -124 z m 226 436 l 226 663 l 311 663 l 311 750 l 56 750 l 56 663 l 140 663 l 140 436 z "},"İ":{"ha":361,"x_min":0,"x_max":0,"o":"m 135 482 l 135 92 l 56 92 l 56 0 l 306 0 l 306 92 l 226 92 l 226 482 z m 226 553 l 226 881 l 306 881 l 306 972 l 56 972 l 56 881 l 135 881 l 135 553 z m 139 1140 l 139 1042 l 224 1042 l 224 1140 z "},"ı":{"ha":367,"x_min":0,"x_max":0,"o":"m 142 972 l 142 874 l 226 874 l 226 972 z m 226 365 l 140 365 l 140 86 l 56 86 l 56 0 l 311 0 l 311 86 l 226 86 z m 226 436 l 226 663 l 311 663 l 311 750 l 56 750 l 56 663 l 140 663 l 140 436 z "},"Ĵ":{"ha":442,"x_min":0,"x_max":0,"o":"m 264 482 l 264 131 b 225 92 264 108 247 92 l 165 92 b 126 131 144 92 126 108 l 126 279 l 35 279 l 35 131 b 165 0 35 58 94 0 l 225 0 b 356 131 297 0 356 58 l 356 482 z m 264 553 l 356 553 l 356 972 l 133 972 l 133 881 l 264 881 z m 161 1042 l 253 1100 l 344 1042 l 386 1094 l 263 1172 l 244 1172 l 119 1094 z "},"ĵ":{"ha":449,"x_min":0,"x_max":0,"o":"m 363 750 l 143 750 l 143 663 l 276 663 l 276 436 l 363 436 z m 276 365 l 276 129 b 233 86 276 106 257 86 l 165 86 b 122 129 142 86 122 106 l 122 247 l 35 247 l 35 129 b 165 0 35 58 93 0 l 233 0 b 363 129 304 0 363 58 l 363 365 z m 168 842 l 260 900 l 351 842 l 393 894 l 269 972 l 251 972 l 126 894 z "},"Ķ":{"ha":422,"x_min":0,"x_max":0,"o":"m 197 411 l 306 0 l 400 0 l 292 411 z m 274 482 l 258 539 l 401 972 l 307 972 l 182 567 l 56 567 l 56 0 l 147 0 l 147 482 z m 56 638 l 147 638 l 147 972 l 56 972 z m 260 -44 l 260 -129 l 208 -215 l 176 -215 l 207 -129 l 176 -129 l 176 -44 z "},"ķ":{"ha":433,"x_min":0,"x_max":0,"o":"m 142 515 l 142 750 l 56 750 l 56 515 z m 272 358 l 256 400 l 413 750 l 319 750 l 181 444 l 56 444 l 56 0 l 142 0 l 142 358 z m 319 0 l 411 0 l 299 288 l 206 288 z m 183 -44 l 183 -129 l 214 -129 l 183 -215 l 215 -215 l 267 -129 l 267 -44 z "},"":{"ha":167,"x_min":0,"x_max":0,"o":"m 42 -44 l 42 -129 l 72 -129 l 42 -215 l 74 -215 l 125 -129 l 125 -44 z "},"ĸ":{"ha":433,"x_min":0,"x_max":0,"o":"m 142 515 l 142 750 l 56 750 l 56 515 z m 272 358 l 256 400 l 413 750 l 319 750 l 181 444 l 56 444 l 56 0 l 142 0 l 142 358 z m 319 0 l 411 0 l 299 288 l 206 288 z "},"Ĺ":{"ha":361,"x_min":0,"x_max":0,"o":"m 56 92 l 56 0 l 319 0 l 319 92 z m 56 163 l 147 163 l 147 972 l 56 972 z m 189 1186 l 65 1094 l 107 1042 l 231 1133 z "},"ĺ":{"ha":368,"x_min":0,"x_max":0,"o":"m 143 157 l 56 157 l 56 750 l 143 750 z m 326 86 l 326 0 l 56 0 l 56 86 z m 185 972 l 61 881 l 103 828 l 226 919 z "},"Ļ":{"ha":361,"x_min":0,"x_max":0,"o":"m 56 92 l 56 0 l 319 0 l 319 92 z m 56 163 l 147 163 l 147 972 l 56 972 z m 239 -44 l 239 -129 l 188 -215 l 156 -215 l 186 -129 l 156 -129 l 156 -44 z "},"ļ":{"ha":368,"x_min":0,"x_max":0,"o":"m 143 750 l 56 750 l 56 157 l 143 157 z m 56 86 l 56 0 l 326 0 l 326 86 z m 157 -44 l 157 -129 l 188 -129 l 157 -215 l 189 -215 l 240 -129 l 240 -44 z "},"Ľ":{"ha":361,"x_min":0,"x_max":0,"o":"m 56 92 l 56 0 l 319 0 l 319 92 z m 56 163 l 147 163 l 147 972 l 56 972 z m 319 972 l 319 888 l 268 801 l 236 801 l 267 888 l 236 888 l 236 972 z "},"ľ":{"ha":368,"x_min":0,"x_max":0,"o":"m 143 750 l 56 750 l 56 157 l 143 157 z m 56 86 l 56 0 l 326 0 l 326 86 z m 243 750 l 243 665 l 274 665 l 243 579 l 275 579 l 326 665 l 326 750 z "},"Ŀ":{"ha":361,"x_min":0,"x_max":0,"o":"m 56 92 l 56 0 l 319 0 l 319 92 z m 56 163 l 147 163 l 147 972 l 56 972 z m 319 750 l 319 651 l 236 651 l 236 750 z "},"ŀ":{"ha":368,"x_min":0,"x_max":0,"o":"m 143 750 l 56 750 l 56 157 l 143 157 z m 56 86 l 56 0 l 326 0 l 326 86 z m 243 569 l 243 471 l 326 471 l 326 569 z "},"Ł":{"ha":421,"x_min":0,"x_max":0,"o":"m 58 453 l 115 479 l 115 163 l 207 163 l 207 524 l 304 571 l 274 635 l 207 603 l 207 972 l 115 972 l 115 558 l 28 517 z m 115 92 l 115 0 l 379 0 l 379 92 z "},"ł":{"ha":431,"x_min":0,"x_max":0,"o":"m 206 383 l 304 431 l 274 494 l 206 461 l 206 750 l 118 750 l 118 419 l 28 376 l 58 313 l 118 340 l 118 157 l 206 157 z m 118 86 l 118 0 l 389 0 l 389 86 z "},"Ń":{"ha":503,"x_min":0,"x_max":0,"o":"m 300 1186 l 176 1094 l 218 1042 l 342 1133 z m 147 500 l 76 796 l 56 796 l 56 0 l 147 0 z m 393 92 l 174 972 l 56 972 l 56 881 l 110 881 l 329 0 l 447 0 l 447 92 z m 356 472 l 426 176 l 447 176 l 447 972 l 356 972 z "},"ń":{"ha":511,"x_min":0,"x_max":0,"o":"m 311 972 l 188 881 l 229 828 l 353 919 z m 456 88 l 456 0 l 332 0 l 117 663 l 56 663 l 56 750 l 178 750 l 394 88 z m 456 158 l 456 750 l 368 750 l 368 354 l 432 158 z m 79 592 l 143 393 l 143 0 l 56 0 l 56 592 z "},"Ņ":{"ha":503,"x_min":0,"x_max":0,"o":"m 300 -44 l 300 -129 l 249 -215 l 217 -215 l 247 -129 l 217 -129 l 217 -44 z m 147 500 l 76 796 l 56 796 l 56 0 l 147 0 z m 393 92 l 174 972 l 56 972 l 56 881 l 110 881 l 329 0 l 447 0 l 447 92 z m 356 472 l 426 176 l 447 176 l 447 972 l 356 972 z "},"ņ":{"ha":511,"x_min":0,"x_max":0,"o":"m 228 -44 l 228 -129 l 258 -129 l 228 -215 l 260 -215 l 311 -129 l 311 -44 z m 394 88 l 178 750 l 56 750 l 56 663 l 117 663 l 332 0 l 456 0 l 456 88 z m 456 158 l 456 750 l 368 750 l 368 354 l 432 158 z m 56 592 l 56 0 l 143 0 l 143 393 l 79 592 z "},"Ň":{"ha":503,"x_min":0,"x_max":0,"o":"m 125 1119 l 250 1042 l 268 1042 l 392 1119 l 350 1172 l 258 1114 l 167 1172 z m 147 500 l 76 796 l 56 796 l 56 0 l 147 0 z m 393 92 l 174 972 l 56 972 l 56 881 l 110 881 l 329 0 l 447 0 l 447 92 z m 356 472 l 426 176 l 447 176 l 447 972 l 356 972 z "},"ň":{"ha":511,"x_min":0,"x_max":0,"o":"m 136 919 l 261 842 l 279 842 l 403 919 l 361 972 l 269 914 l 178 972 z m 456 88 l 456 0 l 332 0 l 117 663 l 56 663 l 56 750 l 178 750 l 394 88 z m 456 158 l 456 750 l 368 750 l 368 354 l 432 158 z m 79 592 l 143 393 l 143 0 l 56 0 l 56 592 z "},"ŉ":{"ha":567,"x_min":0,"x_max":0,"o":"m 56 972 l 56 888 l 86 888 l 56 801 l 88 801 l 139 888 l 139 972 z m 450 88 l 233 750 l 111 750 l 111 663 l 172 663 l 388 0 l 511 0 l 511 88 z m 511 158 l 511 750 l 424 750 l 424 354 l 488 158 z m 111 592 l 111 0 l 199 0 l 199 393 l 135 592 z "},"Ŋ":{"ha":503,"x_min":0,"x_max":0,"o":"m 71 796 l 56 796 l 56 0 l 147 0 l 147 542 z m 447 222 l 385 222 l 171 972 l 56 972 l 56 881 l 103 881 l 356 0 l 356 -85 b 317 -124 356 -107 339 -124 l 257 -124 l 257 -215 l 317 -215 b 447 -85 389 -215 447 -157 z m 447 307 l 447 972 l 356 972 l 356 547 l 424 307 z "},"ŋ":{"ha":511,"x_min":0,"x_max":0,"o":"m 456 301 l 456 750 l 369 750 l 369 438 l 428 301 z m 392 231 l 169 750 l 56 750 l 56 663 l 110 663 l 369 35 l 369 -11 b 326 -54 369 -35 350 -54 l 258 -54 l 258 -140 l 326 -140 b 456 -11 397 -140 456 -82 l 456 231 z m 56 592 l 56 0 l 143 0 l 143 442 l 76 592 z "},"Ō":{"ha":464,"x_min":0,"x_max":0,"o":"m 197 881 l 197 972 l 186 972 b 56 842 115 972 56 914 l 56 131 b 186 0 56 58 115 0 l 197 0 l 197 92 l 186 92 b 147 131 165 92 147 108 l 147 842 b 186 881 147 863 165 881 z m 268 881 l 278 881 b 317 842 299 881 317 863 l 317 131 b 278 92 317 108 299 92 l 268 92 l 268 0 l 278 0 b 408 131 350 0 408 58 l 408 842 b 278 972 408 914 350 972 l 268 972 z m 100 1131 l 100 1060 l 365 1060 l 365 1131 z "},"ō":{"ha":472,"x_min":0,"x_max":0,"o":"m 286 663 b 329 619 310 663 329 643 l 329 129 b 286 86 329 106 310 86 l 272 86 l 272 0 l 286 0 b 417 129 358 0 417 58 l 417 619 b 286 750 417 692 357 750 l 272 750 l 272 663 z m 201 750 l 186 750 b 56 619 114 750 56 690 l 56 129 b 186 0 56 58 114 0 l 201 0 l 201 86 l 186 86 b 143 129 163 86 143 106 l 143 619 b 186 663 143 643 163 663 l 201 663 z m 104 972 l 104 901 l 369 901 l 369 972 z "},"Ŏ":{"ha":464,"x_min":0,"x_max":0,"o":"m 197 881 l 197 972 l 186 972 b 56 842 115 972 56 914 l 56 131 b 186 0 56 58 115 0 l 197 0 l 197 92 l 186 92 b 147 131 165 92 147 108 l 147 842 b 186 881 147 863 165 881 z m 268 881 l 278 881 b 317 842 299 881 317 863 l 317 131 b 278 92 317 108 299 92 l 268 92 l 268 0 l 278 0 b 408 131 350 0 408 58 l 408 842 b 278 972 408 914 350 972 l 268 972 z m 93 1150 l 93 1139 b 188 1042 93 1083 132 1042 l 276 1042 b 371 1139 332 1042 371 1083 l 371 1150 l 303 1150 l 303 1135 b 275 1106 303 1119 290 1106 l 189 1106 b 161 1135 174 1106 161 1119 l 161 1150 z "},"ő":{"ha":472,"x_min":0,"x_max":0,"o":"m 272 663 l 272 750 l 286 750 b 417 619 357 750 417 692 l 417 129 b 286 0 417 58 358 0 l 272 0 l 272 86 l 286 86 b 329 129 310 86 329 106 l 329 619 b 286 663 329 643 310 663 z m 201 663 l 186 663 b 143 619 163 663 143 643 l 143 129 b 186 86 143 106 163 86 l 201 86 l 201 0 l 186 0 b 56 129 114 0 56 58 l 56 619 b 186 750 56 690 114 750 l 201 750 z m 196 972 l 72 881 l 114 828 l 238 919 z m 360 972 l 236 881 l 278 828 l 401 919 z "},"Ŕ":{"ha":449,"x_min":0,"x_max":0,"o":"m 218 567 l 218 482 l 232 482 b 301 413 278 482 301 460 l 301 0 l 393 0 l 393 419 b 311 525 393 469 367 513 b 393 650 369 553 393 592 l 393 842 b 263 972 393 913 333 972 l 56 972 l 56 881 l 263 881 b 301 842 283 881 301 863 l 301 651 b 224 567 301 599 278 567 z m 147 810 l 56 810 l 56 0 l 147 0 z m 264 1186 l 140 1094 l 182 1042 l 306 1133 z "},"ŕ":{"ha":456,"x_min":0,"x_max":0,"o":"m 204 358 l 204 444 l 249 444 b 314 510 285 444 314 476 l 314 619 b 271 663 314 643 293 663 l 56 663 l 56 750 l 271 750 b 400 619 342 750 400 692 l 400 507 b 332 401 400 465 372 424 b 400 303 372 386 400 346 l 400 0 l 314 0 l 314 294 b 253 358 314 331 289 358 z m 143 0 l 56 0 l 56 592 l 143 592 z m 269 972 l 146 881 l 188 828 l 311 919 z "},"Ŗ":{"ha":449,"x_min":0,"x_max":0,"o":"m 218 567 l 218 482 l 232 482 b 301 413 278 482 301 460 l 301 0 l 393 0 l 393 419 b 311 525 393 469 367 513 b 393 650 369 553 393 592 l 393 842 b 263 972 393 913 333 972 l 56 972 l 56 881 l 263 881 b 301 842 283 881 301 863 l 301 651 b 224 567 301 599 278 567 z m 147 810 l 56 810 l 56 0 l 147 0 z m 265 -44 l 265 -129 l 214 -215 l 182 -215 l 213 -129 l 182 -129 l 182 -44 z "},"ŗ":{"ha":456,"x_min":0,"x_max":0,"o":"m 253 358 b 314 294 289 358 314 331 l 314 0 l 400 0 l 400 303 b 332 401 400 346 372 386 b 400 507 372 424 400 465 l 400 619 b 271 750 400 692 342 750 l 56 750 l 56 663 l 271 663 b 314 619 293 663 314 643 l 314 510 b 249 444 314 476 285 444 l 204 444 l 204 358 z m 143 592 l 56 592 l 56 0 l 143 0 z m 186 -44 l 186 -129 l 217 -129 l 186 -215 l 218 -215 l 269 -129 l 269 -44 z "},"Ř":{"ha":449,"x_min":0,"x_max":0,"o":"m 218 567 l 218 482 l 232 482 b 301 413 278 482 301 460 l 301 0 l 393 0 l 393 419 b 311 525 393 469 367 513 b 393 650 369 553 393 592 l 393 842 b 263 972 393 913 333 972 l 56 972 l 56 881 l 263 881 b 301 842 283 881 301 863 l 301 651 b 224 567 301 599 278 567 z m 147 810 l 56 810 l 56 0 l 147 0 z m 63 1119 l 188 1042 l 206 1042 l 329 1119 l 288 1172 l 196 1114 l 104 1172 z "},"ř":{"ha":456,"x_min":0,"x_max":0,"o":"m 204 358 l 204 444 l 249 444 b 314 510 285 444 314 476 l 314 619 b 271 663 314 643 293 663 l 56 663 l 56 750 l 271 750 b 400 619 342 750 400 692 l 400 507 b 332 401 400 465 372 424 b 400 303 372 386 400 346 l 400 0 l 314 0 l 314 294 b 253 358 314 331 289 358 z m 143 0 l 56 0 l 56 592 l 143 592 z m 81 919 l 206 842 l 224 842 l 347 919 l 306 972 l 214 914 l 122 972 z "},"Ś":{"ha":436,"x_min":0,"x_max":0,"o":"m 183 628 l 176 636 b 147 729 154 664 147 694 l 147 842 b 186 881 147 863 165 881 l 250 881 b 289 842 271 881 289 863 l 289 733 l 381 733 l 381 842 b 250 972 381 914 321 972 l 186 972 b 56 842 115 972 56 913 l 56 729 b 101 582 56 675 68 624 l 183 482 z m 254 539 l 254 396 l 260 389 b 289 296 282 363 289 331 l 289 131 b 250 92 289 108 271 92 l 186 92 b 147 131 165 92 147 108 l 147 279 l 56 279 l 56 131 b 186 0 56 58 114 0 l 250 0 b 381 131 321 0 381 58 l 381 296 b 333 443 381 350 368 401 z m 260 1186 l 136 1094 l 178 1042 l 301 1133 z "},"ś":{"ha":443,"x_min":0,"x_max":0,"o":"m 186 465 l 176 475 b 143 551 154 497 143 519 l 143 619 b 186 663 143 643 163 663 l 257 663 b 301 619 282 663 301 643 l 301 547 l 388 547 l 388 619 b 257 750 388 692 329 750 l 186 750 b 56 619 115 750 56 692 l 56 544 b 114 410 56 486 71 451 l 186 338 z m 257 396 l 257 268 l 272 253 b 301 188 292 233 301 214 l 301 129 b 257 86 301 106 282 86 l 186 86 b 143 129 163 86 143 106 l 143 247 l 56 247 l 56 129 b 186 0 56 58 115 0 l 257 0 b 388 129 329 0 388 58 l 388 194 b 339 315 388 247 376 278 z m 263 972 l 139 881 l 181 828 l 304 919 z "},"Ŝ":{"ha":436,"x_min":0,"x_max":0,"o":"m 183 628 l 176 636 b 147 729 154 664 147 694 l 147 842 b 186 881 147 863 165 881 l 250 881 b 289 842 271 881 289 863 l 289 733 l 381 733 l 381 842 b 250 972 381 914 321 972 l 186 972 b 56 842 115 972 56 913 l 56 729 b 101 582 56 675 68 624 l 183 482 z m 254 539 l 254 396 l 260 389 b 289 296 282 363 289 331 l 289 131 b 250 92 289 108 271 92 l 186 92 b 147 131 165 92 147 108 l 147 279 l 56 279 l 56 131 b 186 0 56 58 114 0 l 250 0 b 381 131 321 0 381 58 l 381 296 b 333 443 381 350 368 401 z m 126 1042 l 218 1100 l 310 1042 l 351 1094 l 228 1172 l 210 1172 l 85 1094 z "},"ŝ":{"ha":443,"x_min":0,"x_max":0,"o":"m 186 465 l 176 475 b 143 551 154 497 143 519 l 143 619 b 186 663 143 643 163 663 l 257 663 b 301 619 282 663 301 643 l 301 547 l 388 547 l 388 619 b 257 750 388 692 329 750 l 186 750 b 56 619 115 750 56 692 l 56 544 b 114 410 56 486 71 451 l 186 338 z m 257 396 l 257 268 l 272 253 b 301 188 292 233 301 214 l 301 129 b 257 86 301 106 282 86 l 186 86 b 143 129 163 86 143 106 l 143 247 l 56 247 l 56 129 b 186 0 56 58 115 0 l 257 0 b 388 129 329 0 388 58 l 388 194 b 339 315 388 247 376 278 z m 129 842 l 221 900 l 313 842 l 354 894 l 231 972 l 213 972 l 88 894 z "},"Ş":{"ha":436,"x_min":0,"x_max":0,"o":"m 254 539 l 254 396 l 260 389 b 289 296 282 363 289 331 l 289 131 b 250 92 289 108 271 92 l 186 92 b 147 131 165 92 147 108 l 147 279 l 56 279 l 56 131 b 181 0 56 60 111 3 l 181 -107 l 238 -107 b 254 -124 247 -107 254 -115 l 254 -135 b 238 -153 254 -144 244 -153 l 171 -153 l 171 -215 l 238 -215 b 318 -133 282 -215 318 -175 l 318 -125 b 238 -46 318 -81 279 -46 l 232 -46 l 232 0 l 250 0 b 381 131 321 0 381 58 l 381 296 b 333 443 381 350 368 401 z m 183 628 l 176 636 b 147 729 154 664 147 694 l 147 842 b 186 881 147 863 165 881 l 250 881 b 289 842 271 881 289 863 l 289 733 l 381 733 l 381 842 b 250 972 381 914 321 972 l 186 972 b 56 842 115 972 56 913 l 56 729 b 101 582 56 675 68 624 l 183 482 z "},"ş":{"ha":443,"x_min":0,"x_max":0,"o":"m 257 396 l 257 268 l 272 253 b 301 188 292 233 301 214 l 301 129 b 257 86 301 106 282 86 l 186 86 b 143 129 163 86 143 106 l 143 247 l 56 247 l 56 129 b 183 0 56 58 114 1 l 183 -107 l 240 -107 b 257 -124 250 -107 257 -115 l 257 -135 b 240 -153 257 -144 247 -153 l 174 -153 l 174 -215 l 240 -215 b 321 -133 285 -215 321 -175 l 321 -125 b 240 -46 321 -81 282 -46 l 235 -46 l 235 0 l 257 0 b 388 129 329 0 388 58 l 388 194 b 339 315 388 247 376 278 z m 186 465 l 176 475 b 143 551 154 497 143 519 l 143 619 b 186 663 143 643 163 663 l 257 663 b 301 619 282 663 301 643 l 301 547 l 388 547 l 388 619 b 257 750 388 692 329 750 l 186 750 b 56 619 115 750 56 692 l 56 544 b 114 410 56 486 71 451 l 186 338 z "},"ŏ":{"ha":472,"x_min":0,"x_max":0,"o":"m 286 663 b 329 619 310 663 329 643 l 329 129 b 286 86 329 106 310 86 l 272 86 l 272 0 l 286 0 b 417 129 358 0 417 58 l 417 619 b 286 750 417 692 357 750 l 272 750 l 272 663 z m 201 750 l 186 750 b 56 619 114 750 56 690 l 56 129 b 186 0 56 58 114 0 l 201 0 l 201 86 l 186 86 b 143 129 163 86 143 106 l 143 619 b 186 663 143 643 163 663 l 201 663 z m 97 972 l 97 961 b 192 864 97 906 136 864 l 281 864 b 375 961 336 864 375 906 l 375 972 l 307 972 l 307 957 b 279 928 307 942 294 928 l 193 928 b 165 957 178 928 165 942 l 165 972 z "},"Ő":{"ha":464,"x_min":0,"x_max":0,"o":"m 197 881 l 197 972 l 186 972 b 56 842 115 972 56 914 l 56 131 b 186 0 56 58 115 0 l 197 0 l 197 92 l 186 92 b 147 131 165 92 147 108 l 147 842 b 186 881 147 863 165 881 z m 268 881 l 278 881 b 317 842 299 881 317 863 l 317 131 b 278 92 317 108 299 92 l 268 92 l 268 0 l 278 0 b 408 131 350 0 408 58 l 408 842 b 278 972 408 914 350 972 l 268 972 z m 192 1186 l 68 1094 l 110 1042 l 233 1133 z m 356 1186 l 232 1094 l 274 1042 l 397 1133 z "},"˝":{"ha":413,"x_min":0,"x_max":0,"o":"m 165 972 l 42 881 l 83 828 l 207 919 z m 329 972 l 206 881 l 247 828 l 371 919 z "},"Ţ":{"ha":386,"x_min":0,"x_max":0,"o":"m 147 810 l 147 0 l 239 0 l 239 810 z m 351 881 l 351 972 l 35 972 l 35 881 z m 235 -44 l 235 -129 l 183 -215 l 151 -215 l 182 -129 l 151 -129 l 151 -44 z "},"ţ":{"ha":393,"x_min":0,"x_max":0,"o":"m 153 592 l 153 0 l 239 0 l 239 592 z m 358 663 l 358 750 l 35 750 l 35 663 z m 154 -44 l 154 -129 l 185 -129 l 154 -215 l 186 -215 l 238 -129 l 238 -44 z "},"Ť":{"ha":386,"x_min":0,"x_max":0,"o":"m 147 810 l 147 0 l 239 0 l 239 810 z m 351 881 l 351 972 l 35 972 l 35 881 z m 60 1119 l 185 1042 l 203 1042 l 326 1119 l 285 1172 l 193 1114 l 101 1172 z "},"ť":{"ha":393,"x_min":0,"x_max":0,"o":"m 239 592 l 239 0 l 153 0 l 153 592 z m 35 663 l 35 750 l 358 750 l 358 663 z m 63 919 l 188 842 l 206 842 l 329 919 l 288 972 l 196 914 l 104 972 z "},"Ŧ":{"ha":386,"x_min":0,"x_max":0,"o":"m 147 810 l 147 0 l 239 0 l 239 810 z m 351 881 l 351 972 l 35 972 l 35 881 z m 61 1131 l 61 1060 l 326 1060 l 326 1131 z "},"ŧ":{"ha":393,"x_min":0,"x_max":0,"o":"m 153 592 l 153 0 l 239 0 l 239 592 z m 358 663 l 358 750 l 35 750 l 35 663 z m 64 972 l 64 901 l 329 901 l 329 972 z "},"Ũ":{"ha":465,"x_min":0,"x_max":0,"o":"m 268 92 l 268 0 l 279 0 b 410 131 350 0 410 58 l 410 972 l 318 972 l 318 131 b 279 92 318 108 300 92 z m 197 92 l 186 92 b 147 131 164 92 147 108 l 147 972 l 56 972 l 56 131 b 186 0 56 58 114 0 l 197 0 z m 144 1042 b 183 1081 144 1065 158 1081 b 289 1042 218 1081 236 1042 b 379 1142 344 1042 379 1086 l 321 1142 b 286 1104 321 1118 311 1104 b 178 1142 247 1104 232 1142 b 86 1042 122 1142 86 1099 z "},"ũ":{"ha":474,"x_min":0,"x_max":0,"o":"m 203 0 l 203 86 l 186 86 b 142 129 161 86 142 106 l 142 750 l 56 750 l 56 129 b 186 0 56 58 114 0 z m 274 0 l 288 0 b 418 129 360 0 418 58 l 418 750 l 332 750 l 332 129 b 288 86 332 106 313 86 l 274 86 z m 149 872 b 188 911 149 896 163 911 b 293 872 222 911 240 872 b 383 972 349 872 383 917 l 325 972 b 290 935 325 949 315 935 b 182 972 251 935 236 972 b 90 872 126 972 90 929 z "},"Ū":{"ha":465,"x_min":0,"x_max":0,"o":"m 268 92 l 268 0 l 279 0 b 410 131 350 0 410 58 l 410 972 l 318 972 l 318 131 b 279 92 318 108 300 92 z m 197 92 l 186 92 b 147 131 164 92 147 108 l 147 972 l 56 972 l 56 131 b 186 0 56 58 114 0 l 197 0 z m 100 1131 l 100 1060 l 365 1060 l 365 1131 z "},"ū":{"ha":474,"x_min":0,"x_max":0,"o":"m 203 0 l 203 86 l 186 86 b 142 129 161 86 142 106 l 142 750 l 56 750 l 56 129 b 186 0 56 58 114 0 z m 274 0 l 288 0 b 418 129 360 0 418 58 l 418 750 l 332 750 l 332 129 b 288 86 332 106 313 86 l 274 86 z m 104 972 l 104 901 l 369 901 l 369 972 z "},"Ŭ":{"ha":465,"x_min":0,"x_max":0,"o":"m 268 92 l 268 0 l 279 0 b 410 131 350 0 410 58 l 410 972 l 318 972 l 318 131 b 279 92 318 108 300 92 z m 197 92 l 186 92 b 147 131 164 92 147 108 l 147 972 l 56 972 l 56 131 b 186 0 56 58 114 0 l 197 0 z m 93 1150 l 93 1139 b 188 1042 93 1083 132 1042 l 276 1042 b 371 1139 332 1042 371 1083 l 371 1150 l 303 1150 l 303 1135 b 275 1106 303 1119 290 1106 l 189 1106 b 161 1135 174 1106 161 1119 l 161 1150 z "},"ŭ":{"ha":474,"x_min":0,"x_max":0,"o":"m 203 0 l 203 86 l 186 86 b 142 129 161 86 142 106 l 142 750 l 56 750 l 56 129 b 186 0 56 58 114 0 z m 274 0 l 288 0 b 418 129 360 0 418 58 l 418 750 l 332 750 l 332 129 b 288 86 332 106 313 86 l 274 86 z m 97 972 l 97 961 b 192 864 97 906 136 864 l 281 864 b 375 961 336 864 375 906 l 375 972 l 307 972 l 307 957 b 279 928 307 942 294 928 l 193 928 b 165 957 178 928 165 942 l 165 972 z "},"Ů":{"ha":465,"x_min":0,"x_max":0,"o":"m 268 92 l 268 0 l 279 0 b 410 131 350 0 410 58 l 410 972 l 318 972 l 318 131 b 279 92 318 108 300 92 z m 197 92 l 186 92 b 147 131 164 92 147 108 l 147 972 l 56 972 l 56 131 b 186 0 56 58 114 0 l 197 0 z m 263 1161 b 281 1124 274 1153 281 1139 b 232 1075 281 1097 258 1075 b 183 1124 206 1075 183 1097 b 203 1163 183 1139 192 1154 l 203 1218 b 133 1124 161 1206 133 1169 b 232 1025 133 1068 176 1025 b 331 1124 288 1025 331 1068 b 263 1218 331 1168 303 1206 z "},"ů":{"ha":474,"x_min":0,"x_max":0,"o":"m 203 0 l 203 86 l 186 86 b 142 129 161 86 142 106 l 142 750 l 56 750 l 56 129 b 186 0 56 58 114 0 z m 274 0 l 288 0 b 418 129 360 0 418 58 l 418 750 l 332 750 l 332 129 b 288 86 332 106 313 86 l 274 86 z m 267 939 b 285 901 278 931 285 917 b 236 853 285 875 263 853 b 188 901 210 853 188 875 b 207 940 188 917 196 932 l 207 996 b 138 901 165 983 138 947 b 236 803 138 846 181 803 b 335 901 292 803 335 846 b 267 996 335 946 307 983 z "},"Ű":{"ha":465,"x_min":0,"x_max":0,"o":"m 268 92 l 268 0 l 279 0 b 410 131 350 0 410 58 l 410 972 l 318 972 l 318 131 b 279 92 318 108 300 92 z m 197 92 l 186 92 b 147 131 164 92 147 108 l 147 972 l 56 972 l 56 131 b 186 0 56 58 114 0 l 197 0 z m 192 1186 l 68 1094 l 110 1042 l 233 1133 z m 356 1186 l 232 1094 l 274 1042 l 397 1133 z "},"ű":{"ha":474,"x_min":0,"x_max":0,"o":"m 203 0 l 203 86 l 186 86 b 142 129 161 86 142 106 l 142 750 l 56 750 l 56 129 b 186 0 56 58 114 0 z m 274 0 l 288 0 b 418 129 360 0 418 58 l 418 750 l 332 750 l 332 129 b 288 86 332 106 313 86 l 274 86 z m 196 972 l 72 881 l 114 828 l 238 919 z m 360 972 l 236 881 l 278 828 l 401 919 z "},"Ų":{"ha":465,"x_min":0,"x_max":0,"o":"m 282 -111 b 340 15 282 -65 307 -25 b 410 131 381 38 410 81 l 410 972 l 318 972 l 318 131 b 279 92 318 108 300 92 l 268 92 l 268 0 b 214 -122 236 -37 214 -74 b 281 -193 214 -158 236 -193 l 335 -193 l 335 -132 l 303 -132 b 282 -111 289 -132 282 -124 z m 197 92 l 186 92 b 147 131 164 92 147 108 l 147 972 l 56 972 l 56 131 b 186 0 56 58 114 0 l 197 0 z "},"ų":{"ha":474,"x_min":0,"x_max":0,"o":"m 288 -111 b 343 13 288 -67 311 -26 b 418 129 388 33 418 78 l 418 750 l 332 750 l 332 129 b 288 86 332 106 313 86 l 274 86 l 274 0 b 219 -122 242 -37 219 -74 b 286 -193 219 -158 242 -193 l 340 -193 l 340 -132 l 308 -132 b 288 -111 294 -132 288 -124 z m 203 0 l 203 86 l 186 86 b 142 129 161 86 142 106 l 142 750 l 56 750 l 56 129 b 186 0 56 58 114 0 z "},"Ŵ":{"ha":744,"x_min":0,"x_max":0,"o":"m 508 92 l 457 551 l 418 781 l 446 972 l 300 972 l 326 781 l 288 551 l 235 92 l 154 92 l 168 0 l 301 0 l 369 571 l 375 571 l 442 0 l 575 0 l 589 92 z m 572 163 l 599 163 l 717 972 l 624 972 l 547 394 z m 197 392 l 119 972 l 28 972 l 144 163 l 171 163 z m 281 1042 l 372 1100 l 464 1042 l 506 1094 l 382 1172 l 364 1172 l 239 1094 z "},"ŵ":{"ha":760,"x_min":0,"x_max":0,"o":"m 193 157 l 210 249 l 115 750 l 28 750 l 142 157 z m 732 750 l 643 750 l 549 249 l 567 157 l 617 157 z m 508 86 l 424 549 l 461 750 l 296 750 l 335 549 l 250 86 l 156 86 l 172 0 l 318 0 l 379 358 l 440 0 l 586 0 l 603 86 z m 288 842 l 379 900 l 471 842 l 513 894 l 389 972 l 371 972 l 246 894 z "},"Ŷ":{"ha":435,"x_min":0,"x_max":0,"o":"m 169 425 l 169 92 l 90 92 l 90 0 l 340 0 l 340 92 l 261 92 l 261 444 l 421 972 l 326 972 z m 181 713 l 108 972 l 14 972 l 136 558 z m 125 1042 l 217 1100 l 308 1042 l 350 1094 l 226 1172 l 208 1172 l 83 1094 z "},"ŷ":{"ha":446,"x_min":0,"x_max":0,"o":"m 268 288 l 181 288 l 181 86 l 97 86 l 97 0 l 353 0 l 353 86 l 268 86 z m 283 358 l 432 750 l 339 750 l 229 444 l 219 444 l 107 750 l 14 750 l 165 358 z m 131 842 l 222 900 l 314 842 l 356 894 l 232 972 l 214 972 l 89 894 z "},"Ź":{"ha":400,"x_min":0,"x_max":0,"o":"m 51 92 l 28 0 l 343 0 l 343 92 z m 69 163 l 168 163 l 331 810 l 232 810 z m 349 881 l 372 972 l 58 972 l 58 881 z m 242 1186 l 118 1094 l 160 1042 l 283 1133 z "},"ź":{"ha":382,"x_min":0,"x_max":0,"o":"m 44 663 l 44 750 l 354 750 l 328 663 z m 211 592 l 306 592 l 171 157 l 76 157 z m 338 86 l 338 0 l 28 0 l 54 86 z m 260 972 l 136 881 l 178 828 l 301 919 z "},"Ż":{"ha":400,"x_min":0,"x_max":0,"o":"m 51 92 l 28 0 l 343 0 l 343 92 z m 69 163 l 168 163 l 331 810 l 232 810 z m 349 881 l 372 972 l 58 972 l 58 881 z m 172 1140 l 172 1042 l 257 1042 l 257 1140 z "},"ż":{"ha":382,"x_min":0,"x_max":0,"o":"m 328 663 l 354 750 l 44 750 l 44 663 z m 76 157 l 171 157 l 306 592 l 211 592 z m 54 86 l 28 0 l 338 0 l 338 86 z m 163 972 l 163 874 l 247 874 l 247 972 z "},"ſ":{"ha":443,"x_min":0,"x_max":0,"o":"m 186 465 l 176 475 b 143 551 154 497 143 519 l 143 619 b 186 663 143 643 163 663 l 257 663 b 301 619 282 663 301 643 l 301 547 l 388 547 l 388 619 b 257 750 388 692 329 750 l 186 750 b 56 619 115 750 56 692 l 56 544 b 114 410 56 486 71 451 l 186 338 z m 257 396 l 257 268 l 272 253 b 301 188 292 233 301 214 l 301 129 b 257 86 301 106 282 86 l 186 86 b 143 129 163 86 143 106 l 143 247 l 56 247 l 56 129 b 186 0 56 58 115 0 l 257 0 b 388 129 329 0 388 58 l 388 194 b 339 315 388 247 376 278 z "},"ǽ":{"ha":672,"x_min":0,"x_max":0,"o":"m 308 663 l 233 404 l 146 404 l 246 750 l 631 750 l 631 663 z m 447 592 l 447 444 l 610 444 l 610 358 l 447 358 l 447 247 l 190 247 l 118 0 l 28 0 l 125 333 l 361 333 l 361 592 z m 447 176 l 447 86 l 631 86 l 631 0 l 361 0 l 361 176 z m 464 972 l 340 881 l 382 828 l 506 919 z "},"Ȁ":{"ha":485,"x_min":0,"x_max":0,"o":"m 228 1133 l 351 1042 l 393 1094 l 269 1186 z m 64 1133 l 188 1042 l 229 1094 l 106 1186 z m 333 215 l 365 0 l 457 0 l 426 215 z m 418 286 l 325 972 l 160 972 l 89 442 l 181 442 l 239 882 l 246 882 l 314 371 l 79 371 l 28 0 l 121 0 l 161 286 z "},"ȁ":{"ha":483,"x_min":0,"x_max":0,"o":"m 335 178 l 367 0 l 456 0 l 422 178 z m 410 249 l 315 750 l 168 750 l 104 406 l 192 406 l 239 664 l 244 664 l 306 335 l 90 335 l 28 0 l 115 0 l 163 249 z m 242 919 l 365 828 l 407 881 l 283 972 z m 78 919 l 201 828 l 243 881 l 119 972 z "},"Ȃ":{"ha":485,"x_min":0,"x_max":0,"o":"m 335 215 l 367 0 l 458 0 l 428 215 z m 419 286 l 326 972 l 161 972 l 90 442 l 182 442 l 240 882 l 247 882 l 315 371 l 81 371 l 29 0 l 122 0 l 163 286 z m 151 1042 l 243 1100 l 335 1042 l 376 1094 l 253 1172 l 235 1172 l 110 1094 z "},"ȃ":{"ha":483,"x_min":0,"x_max":0,"o":"m 335 178 l 367 0 l 456 0 l 422 178 z m 410 249 l 315 750 l 168 750 l 104 406 l 192 406 l 239 664 l 244 664 l 306 335 l 90 335 l 28 0 l 115 0 l 163 249 z m 150 842 l 242 900 l 333 842 l 375 894 l 251 972 l 233 972 l 108 894 z "},"Ȅ":{"ha":426,"x_min":0,"x_max":0,"o":"m 101 92 l 101 0 l 365 0 l 365 92 z m 193 163 l 193 482 l 344 482 l 344 567 l 193 567 l 193 810 l 101 810 l 101 163 z m 101 881 l 367 881 l 367 972 l 101 972 z m 219 1133 l 343 1042 l 385 1094 l 261 1186 z m 56 1133 l 179 1042 l 221 1094 l 97 1186 z "},"ȅ":{"ha":426,"x_min":0,"x_max":0,"o":"m 99 288 l 99 0 l 368 0 l 368 86 l 185 86 l 185 288 z m 99 592 l 99 358 l 347 358 l 347 444 l 185 444 l 185 592 z m 99 663 l 368 663 l 368 750 l 99 750 z m 219 919 l 343 828 l 385 881 l 261 972 z m 56 919 l 179 828 l 221 881 l 97 972 z "},"Ȇ":{"ha":364,"x_min":0,"x_max":0,"o":"m 57 92 l 57 0 l 321 0 l 321 92 z m 149 163 l 149 482 l 300 482 l 300 567 l 149 567 l 149 810 l 57 810 l 57 163 z m 57 881 l 322 881 l 322 972 l 57 972 z m 97 1042 l 189 1100 l 281 1042 l 322 1094 l 199 1172 l 181 1172 l 56 1094 z "},"ȇ":{"ha":367,"x_min":0,"x_max":0,"o":"m 56 288 l 56 0 l 325 0 l 325 86 l 142 86 l 142 288 z m 56 592 l 56 358 l 304 358 l 304 444 l 142 444 l 142 592 z m 56 663 l 325 663 l 325 750 l 56 750 z m 99 842 l 190 900 l 282 842 l 324 894 l 200 972 l 182 972 l 57 894 z "},"Ȉ":{"ha":440,"x_min":0,"x_max":0,"o":"m 188 482 l 188 92 l 108 92 l 108 0 l 358 0 l 358 92 l 279 92 l 279 482 z m 279 553 l 279 881 l 358 881 l 358 972 l 108 972 l 108 881 l 188 881 l 188 553 z m 219 1133 l 343 1042 l 385 1094 l 261 1186 z m 56 1133 l 179 1042 l 221 1094 l 97 1186 z "},"ȉ":{"ha":440,"x_min":0,"x_max":0,"o":"m 263 365 l 176 365 l 176 86 l 92 86 l 92 0 l 347 0 l 347 86 l 263 86 z m 263 436 l 263 663 l 347 663 l 347 750 l 92 750 l 92 663 l 176 663 l 176 436 z m 219 919 l 343 828 l 385 881 l 261 972 z m 56 919 l 179 828 l 221 881 l 97 972 z "},"Ȋ":{"ha":378,"x_min":0,"x_max":0,"o":"m 143 482 l 143 92 l 64 92 l 64 0 l 314 0 l 314 92 l 235 92 l 235 482 z m 235 553 l 235 881 l 314 881 l 314 972 l 64 972 l 64 881 l 143 881 l 143 553 z m 97 1042 l 189 1100 l 281 1042 l 322 1094 l 199 1172 l 181 1172 l 56 1094 z "},"ȋ":{"ha":378,"x_min":0,"x_max":0,"o":"m 232 365 l 146 365 l 146 86 l 61 86 l 61 0 l 317 0 l 317 86 l 232 86 z m 232 436 l 232 663 l 317 663 l 317 750 l 61 750 l 61 663 l 146 663 l 146 436 z m 97 842 l 189 900 l 281 842 l 322 894 l 199 972 l 181 972 l 56 894 z "},"Ȍ":{"ha":464,"x_min":0,"x_max":0,"o":"m 197 881 l 197 972 l 186 972 b 56 842 115 972 56 914 l 56 131 b 186 0 56 58 115 0 l 197 0 l 197 92 l 186 92 b 147 131 165 92 147 108 l 147 842 b 186 881 147 863 165 881 z m 268 881 l 278 881 b 317 842 299 881 317 863 l 317 131 b 278 92 317 108 299 92 l 268 92 l 268 0 l 278 0 b 408 131 350 0 408 58 l 408 842 b 278 972 408 914 350 972 l 268 972 z m 232 1133 l 356 1042 l 397 1094 l 274 1186 z m 68 1133 l 192 1042 l 233 1094 l 110 1186 z "},"ȍ":{"ha":472,"x_min":0,"x_max":0,"o":"m 286 663 b 329 619 310 663 329 643 l 329 129 b 286 86 329 106 310 86 l 272 86 l 272 0 l 286 0 b 417 129 358 0 417 58 l 417 619 b 286 750 417 692 357 750 l 272 750 l 272 663 z m 201 750 l 186 750 b 56 619 114 750 56 690 l 56 129 b 186 0 56 58 114 0 l 201 0 l 201 86 l 186 86 b 143 129 163 86 143 106 l 143 619 b 186 663 143 643 163 663 l 201 663 z m 236 919 l 360 828 l 401 881 l 278 972 z m 72 919 l 196 828 l 238 881 l 114 972 z "},"Ȏ":{"ha":464,"x_min":0,"x_max":0,"o":"m 197 881 l 197 972 l 186 972 b 56 842 115 972 56 914 l 56 131 b 186 0 56 58 115 0 l 197 0 l 197 92 l 186 92 b 147 131 165 92 147 108 l 147 842 b 186 881 147 863 165 881 z m 268 881 l 278 881 b 317 842 299 881 317 863 l 317 131 b 278 92 317 108 299 92 l 268 92 l 268 0 l 278 0 b 408 131 350 0 408 58 l 408 842 b 278 972 408 914 350 972 l 268 972 z m 140 1042 l 232 1100 l 324 1042 l 365 1094 l 242 1172 l 224 1172 l 99 1094 z "},"ȏ":{"ha":472,"x_min":0,"x_max":0,"o":"m 286 663 b 329 619 310 663 329 643 l 329 129 b 286 86 329 106 310 86 l 272 86 l 272 0 l 286 0 b 417 129 358 0 417 58 l 417 619 b 286 750 417 692 357 750 l 272 750 l 272 663 z m 201 750 l 186 750 b 56 619 114 750 56 690 l 56 129 b 186 0 56 58 114 0 l 201 0 l 201 86 l 186 86 b 143 129 163 86 143 106 l 143 619 b 186 663 143 643 163 663 l 201 663 z m 144 842 l 236 900 l 328 842 l 369 894 l 246 972 l 228 972 l 103 894 z "},"Ȑ":{"ha":472,"x_min":0,"x_max":0,"o":"m 242 567 l 242 482 l 256 482 b 325 413 301 482 325 460 l 325 0 l 417 0 l 417 419 b 335 525 417 469 390 513 b 417 650 393 553 417 592 l 417 842 b 286 972 417 913 357 972 l 79 972 l 79 881 l 286 881 b 325 842 307 881 325 863 l 325 651 b 247 567 325 599 301 567 z m 171 810 l 79 810 l 79 0 l 171 0 z m 219 1133 l 343 1042 l 385 1094 l 261 1186 z m 56 1133 l 179 1042 l 221 1094 l 97 1186 z "},"ȑ":{"ha":475,"x_min":0,"x_max":0,"o":"m 272 358 b 333 294 308 358 333 331 l 333 0 l 419 0 l 419 303 b 351 401 419 346 392 386 b 419 507 392 424 419 465 l 419 619 b 290 750 419 692 361 750 l 75 750 l 75 663 l 290 663 b 333 619 313 663 333 643 l 333 510 b 268 444 333 476 304 444 l 224 444 l 224 358 z m 163 592 l 75 592 l 75 0 l 163 0 z m 219 919 l 343 828 l 385 881 l 261 972 z m 56 919 l 179 828 l 221 881 l 97 972 z "},"Ȓ":{"ha":449,"x_min":0,"x_max":0,"o":"m 218 567 l 218 482 l 232 482 b 301 413 278 482 301 460 l 301 0 l 393 0 l 393 419 b 311 525 393 469 367 513 b 393 650 369 553 393 592 l 393 842 b 263 972 393 913 333 972 l 56 972 l 56 881 l 263 881 b 301 842 283 881 301 863 l 301 651 b 224 567 301 599 278 567 z m 147 810 l 56 810 l 56 0 l 147 0 z m 101 1042 l 193 1100 l 285 1042 l 326 1094 l 203 1172 l 185 1172 l 60 1094 z "},"ȓ":{"ha":456,"x_min":0,"x_max":0,"o":"m 253 358 b 314 294 289 358 314 331 l 314 0 l 400 0 l 400 303 b 332 401 400 346 372 386 b 400 507 372 424 400 465 l 400 619 b 271 750 400 692 342 750 l 56 750 l 56 663 l 271 663 b 314 619 293 663 314 643 l 314 510 b 249 444 314 476 285 444 l 204 444 l 204 358 z m 143 592 l 56 592 l 56 0 l 143 0 z m 108 842 l 200 900 l 292 842 l 333 894 l 210 972 l 192 972 l 67 894 z "},"Ȕ":{"ha":467,"x_min":0,"x_max":0,"o":"m 269 92 l 269 0 l 281 0 b 411 131 351 0 411 58 l 411 972 l 319 972 l 319 131 b 281 92 319 108 301 92 z m 199 92 l 188 92 b 149 131 165 92 149 108 l 149 972 l 57 972 l 57 131 b 188 0 57 58 115 0 l 199 0 z m 219 1133 l 343 1042 l 385 1094 l 261 1186 z m 56 1133 l 179 1042 l 221 1094 l 97 1186 z "},"ȕ":{"ha":474,"x_min":0,"x_max":0,"o":"m 203 0 l 203 86 l 186 86 b 142 129 161 86 142 106 l 142 750 l 56 750 l 56 129 b 186 0 56 58 114 0 z m 274 0 l 288 0 b 418 129 360 0 418 58 l 418 750 l 332 750 l 332 129 b 288 86 332 106 313 86 l 274 86 z m 236 919 l 360 828 l 401 881 l 278 972 z m 72 919 l 196 828 l 238 881 l 114 972 z "},"Ȗ":{"ha":465,"x_min":0,"x_max":0,"o":"m 268 92 l 268 0 l 279 0 b 410 131 350 0 410 58 l 410 972 l 318 972 l 318 131 b 279 92 318 108 300 92 z m 197 92 l 186 92 b 147 131 164 92 147 108 l 147 972 l 56 972 l 56 131 b 186 0 56 58 114 0 l 197 0 z m 140 1042 l 232 1100 l 324 1042 l 365 1094 l 242 1172 l 224 1172 l 99 1094 z "},"ȗ":{"ha":474,"x_min":0,"x_max":0,"o":"m 203 0 l 203 86 l 186 86 b 142 129 161 86 142 106 l 142 750 l 56 750 l 56 129 b 186 0 56 58 114 0 z m 274 0 l 288 0 b 418 129 360 0 418 58 l 418 750 l 332 750 l 332 129 b 288 86 332 106 313 86 l 274 86 z m 144 842 l 236 900 l 328 842 l 369 894 l 246 972 l 228 972 l 103 894 z "},"Ș":{"ha":436,"x_min":0,"x_max":0,"o":"m 183 628 l 176 636 b 147 729 154 664 147 694 l 147 842 b 186 881 147 863 165 881 l 250 881 b 289 842 271 881 289 863 l 289 733 l 381 733 l 381 842 b 250 972 381 914 321 972 l 186 972 b 56 842 115 972 56 913 l 56 729 b 101 582 56 675 68 624 l 183 482 z m 254 539 l 254 396 l 260 389 b 289 296 282 363 289 331 l 289 131 b 250 92 289 108 271 92 l 186 92 b 147 131 165 92 147 108 l 147 279 l 56 279 l 56 131 b 186 0 56 58 114 0 l 250 0 b 381 131 321 0 381 58 l 381 296 b 333 443 381 350 368 401 z m 260 -44 l 260 -129 l 208 -215 l 176 -215 l 207 -129 l 176 -129 l 176 -44 z "},"ș":{"ha":443,"x_min":0,"x_max":0,"o":"m 186 465 l 176 475 b 143 551 154 497 143 519 l 143 619 b 186 663 143 643 163 663 l 257 663 b 301 619 282 663 301 643 l 301 547 l 388 547 l 388 619 b 257 750 388 692 329 750 l 186 750 b 56 619 115 750 56 692 l 56 544 b 114 410 56 486 71 451 l 186 338 z m 257 396 l 257 268 l 272 253 b 301 188 292 233 301 214 l 301 129 b 257 86 301 106 282 86 l 186 86 b 143 129 163 86 143 106 l 143 247 l 56 247 l 56 129 b 186 0 56 58 115 0 l 257 0 b 388 129 329 0 388 58 l 388 194 b 339 315 388 247 376 278 z m 263 -44 l 263 -129 l 211 -215 l 179 -215 l 210 -129 l 179 -129 l 179 -44 z "},"Ț":{"ha":386,"x_min":0,"x_max":0,"o":"m 147 810 l 147 0 l 239 0 l 239 810 z m 351 881 l 351 972 l 35 972 l 35 881 z m 235 -44 l 235 -129 l 183 -215 l 151 -215 l 182 -129 l 151 -129 l 151 -44 z "},"ț":{"ha":393,"x_min":0,"x_max":0,"o":"m 153 592 l 153 0 l 239 0 l 239 592 z m 358 663 l 358 750 l 35 750 l 35 663 z m 154 -44 l 154 -129 l 185 -129 l 154 -215 l 186 -215 l 238 -129 l 238 -44 z "},"ȷ":{"ha":418,"x_min":0,"x_max":0,"o":"m 363 750 l 276 750 l 276 436 l 363 436 z m 276 365 l 276 129 b 233 86 276 106 257 86 l 165 86 b 122 129 142 86 122 106 l 122 247 l 35 247 l 35 129 b 165 0 35 58 93 0 l 233 0 b 363 129 304 0 363 58 l 363 365 z "},"Ø":{"ha":588,"x_min":0,"x_max":0,"o":"m 329 0 l 338 0 b 468 131 410 0 468 58 l 468 819 l 532 972 l 476 999 l 440 921 b 338 972 417 951 379 972 l 329 972 l 329 881 l 338 881 b 376 842 358 881 376 863 l 376 765 l 188 314 l 207 561 l 207 842 b 246 881 207 863 225 881 l 258 881 l 258 972 l 246 972 b 115 842 175 972 115 914 l 115 142 l 56 0 l 113 -26 l 144 47 b 246 0 169 18 206 0 l 258 0 l 258 92 l 246 92 b 207 131 225 92 207 108 l 207 196 l 401 658 l 376 421 l 376 131 b 338 92 376 108 358 92 l 329 92 z "},"ø":{"ha":572,"x_min":0,"x_max":0,"o":"m 235 750 b 104 619 163 750 104 690 l 104 129 b 107 99 104 118 104 108 l 57 0 l 115 -32 l 149 32 b 235 0 171 11 201 0 l 250 0 l 250 86 l 235 86 b 193 118 215 86 197 100 l 401 524 l 378 265 l 378 129 b 335 86 378 106 358 86 l 321 86 l 321 0 l 335 0 b 465 129 407 0 465 58 l 465 619 b 463 643 465 628 464 635 l 518 750 l 460 782 l 424 714 b 335 750 400 736 368 750 l 321 750 l 321 663 l 335 663 b 378 622 357 663 376 644 l 168 215 l 192 414 l 192 619 b 235 663 192 643 211 663 l 250 663 l 250 750 z "},"Ǿ":{"ha":588,"x_min":0,"x_max":0,"o":"m 335 1186 l 211 1094 l 253 1042 l 376 1133 z m 329 0 l 338 0 b 468 131 410 0 468 58 l 468 819 l 532 972 l 476 999 l 440 921 b 338 972 417 951 379 972 l 329 972 l 329 881 l 338 881 b 376 842 358 881 376 863 l 376 765 l 188 314 l 207 561 l 207 842 b 246 881 207 863 225 881 l 258 881 l 258 972 l 246 972 b 115 842 175 972 115 914 l 115 142 l 56 0 l 113 -26 l 144 47 b 246 0 169 18 206 0 l 258 0 l 258 92 l 246 92 b 207 131 225 92 207 108 l 207 196 l 401 658 l 376 421 l 376 131 b 338 92 376 108 358 92 l 329 92 z "},"ǿ":{"ha":572,"x_min":0,"x_max":0,"o":"m 329 972 l 206 881 l 247 828 l 371 919 z m 249 750 l 249 663 l 233 663 b 190 619 210 663 190 643 l 190 414 l 167 215 l 376 622 b 333 663 375 644 356 663 l 319 663 l 319 750 l 333 750 b 422 714 367 750 399 736 l 458 782 l 517 750 l 461 643 b 464 619 463 635 464 628 l 464 129 b 333 0 464 58 406 0 l 319 0 l 319 86 l 333 86 b 376 129 357 86 376 106 l 376 265 l 400 524 l 192 118 b 233 86 196 100 214 86 l 249 86 l 249 0 l 233 0 b 147 32 200 0 169 11 l 114 -32 l 56 0 l 106 99 b 103 129 103 108 103 118 l 103 619 b 233 750 103 690 161 750 z "},"̏":{"ha":413,"x_min":0,"x_max":0,"o":"m 206 919 l 329 828 l 371 881 l 247 972 z m 42 919 l 165 828 l 207 881 l 83 972 z "},"Ѐ":{"ha":363,"x_min":0,"x_max":0,"o":"m 56 92 l 56 0 l 319 0 l 319 92 z m 147 163 l 147 482 l 299 482 l 299 567 l 147 567 l 147 810 l 56 810 l 56 163 z m 56 881 l 321 881 l 321 972 l 56 972 z m 113 1106 l 236 1014 l 278 1067 l 154 1158 z "},"Ё":{"ha":363,"x_min":0,"x_max":0,"o":"m 56 92 l 56 0 l 319 0 l 319 92 z m 147 163 l 147 482 l 299 482 l 299 567 l 147 567 l 147 810 l 56 810 l 56 163 z m 56 881 l 321 881 l 321 972 l 56 972 z m 228 1140 l 228 1042 l 311 1042 l 311 1140 z m 65 1140 l 65 1042 l 150 1042 l 150 1140 z "},"Ђ":{"ha":488,"x_min":0,"x_max":0,"o":"m 351 881 l 351 972 l 35 972 l 35 881 z m 310 567 l 310 482 l 353 482 l 353 -86 b 310 -129 353 -110 333 -129 l 242 -129 l 242 -215 l 310 -215 b 439 -86 381 -215 439 -157 l 439 567 z m 239 810 l 147 810 l 147 0 l 239 0 z "},"Ѓ":{"ha":349,"x_min":0,"x_max":0,"o":"m 335 881 l 335 972 l 56 972 l 56 881 z m 147 810 l 56 810 l 56 0 l 147 0 z m 236 1186 l 113 1094 l 154 1042 l 278 1133 z "},"Є":{"ha":413,"x_min":0,"x_max":0,"o":"m 56 567 l 56 131 b 186 0 56 58 115 0 l 226 0 b 357 131 299 0 357 58 l 357 279 l 265 279 l 265 131 b 226 92 265 110 247 92 l 186 92 b 147 131 165 92 147 110 l 147 482 l 258 482 l 258 567 z m 147 842 b 186 881 147 864 165 881 l 226 881 b 265 842 247 881 265 864 l 265 733 l 357 733 l 357 842 b 226 972 357 914 299 972 l 186 972 b 56 842 115 972 56 914 l 56 638 l 147 638 z "},"Ѕ":{"ha":436,"x_min":0,"x_max":0,"o":"m 185 628 l 178 636 b 149 729 156 664 149 694 l 149 842 b 188 881 149 863 167 881 l 251 881 b 290 842 272 881 290 863 l 290 733 l 382 733 l 382 842 b 251 972 382 914 322 972 l 188 972 b 57 842 117 972 57 913 l 57 729 b 103 582 57 675 69 624 l 185 482 z m 256 539 l 256 396 l 261 389 b 290 296 283 363 290 331 l 290 131 b 251 92 290 108 272 92 l 188 92 b 149 131 167 92 149 108 l 149 279 l 57 279 l 57 131 b 188 0 57 58 115 0 l 251 0 b 382 131 322 0 382 58 l 382 296 b 335 443 382 350 369 401 z "},"І":{"ha":361,"x_min":0,"x_max":0,"o":"m 135 482 l 135 92 l 56 92 l 56 0 l 306 0 l 306 92 l 226 92 l 226 482 z m 226 553 l 226 881 l 306 881 l 306 972 l 56 972 l 56 881 l 135 881 l 135 553 z "},"Ї":{"ha":361,"x_min":0,"x_max":0,"o":"m 221 1140 l 221 1042 l 304 1042 l 304 1140 z m 58 1140 l 58 1042 l 143 1042 l 143 1140 z m 135 482 l 135 92 l 56 92 l 56 0 l 306 0 l 306 92 l 226 92 l 226 482 z m 226 553 l 226 881 l 306 881 l 306 972 l 56 972 l 56 881 l 135 881 l 135 553 z "},"Ј":{"ha":411,"x_min":0,"x_max":0,"o":"m 264 482 l 264 131 b 225 92 264 108 247 92 l 165 92 b 126 131 144 92 126 108 l 126 279 l 35 279 l 35 131 b 165 0 35 58 94 0 l 225 0 b 356 131 297 0 356 58 l 356 482 z m 264 553 l 356 553 l 356 972 l 264 972 z "},"Љ":{"ha":732,"x_min":0,"x_max":0,"o":"m 196 810 l 104 810 l 104 358 b 28 76 104 289 104 76 l 28 -15 b 196 393 196 -15 196 224 z m 432 496 l 340 496 l 340 0 l 432 0 z m 503 92 l 503 0 l 560 0 b 690 131 632 0 690 58 l 690 521 b 560 651 690 592 632 651 l 432 651 l 432 972 l 104 972 l 104 881 l 340 881 l 340 567 l 560 567 b 599 528 581 567 599 549 l 599 131 b 560 92 599 110 581 92 z "},"Њ":{"ha":710,"x_min":0,"x_max":0,"o":"m 147 638 l 147 972 l 56 972 l 56 638 z m 410 411 l 318 411 l 318 0 l 410 0 z m 481 92 l 481 0 l 538 0 b 668 131 610 0 668 58 l 668 436 b 538 567 668 507 610 567 l 410 567 l 410 972 l 318 972 l 318 567 l 56 567 l 56 0 l 147 0 l 147 482 l 538 482 b 576 443 558 482 576 464 l 576 131 b 538 92 576 110 558 92 z "},"Ћ":{"ha":590,"x_min":0,"x_max":0,"o":"m 535 411 l 443 411 l 443 0 l 535 0 z m 535 482 l 535 972 l 443 972 l 443 567 l 239 567 l 239 810 l 147 810 l 147 0 l 239 0 l 239 482 z m 346 881 l 346 972 l 35 972 l 35 881 z "},"Ќ":{"ha":424,"x_min":0,"x_max":0,"o":"m 286 1186 l 163 1094 l 204 1042 l 328 1133 z m 297 411 l 201 411 l 308 0 l 403 0 z m 56 567 l 56 0 l 147 0 l 147 482 l 206 482 b 350 644 307 482 350 576 l 350 832 b 396 882 350 858 369 879 l 403 882 l 403 972 l 396 972 b 258 832 319 972 258 908 l 258 639 b 189 567 258 597 232 567 z m 147 638 l 147 972 l 56 972 l 56 638 z "},"Ѝ":{"ha":503,"x_min":0,"x_max":0,"o":"m 147 972 l 56 972 l 56 176 l 76 176 l 147 472 z m 447 881 l 447 972 l 329 972 l 110 92 l 56 92 l 56 0 l 174 0 l 393 881 z m 356 0 l 447 0 l 447 796 l 426 796 l 356 500 z m 165 1133 l 289 1042 l 331 1094 l 207 1186 z "},"Ў":{"ha":413,"x_min":0,"x_max":0,"o":"m 119 371 l 135 279 l 219 279 l 186 0 l 279 0 l 392 972 l 299 972 l 229 371 z m 108 442 l 200 442 l 114 972 l 21 972 z m 72 1150 l 72 1139 b 167 1042 72 1083 111 1042 l 256 1042 b 350 1139 311 1042 350 1083 l 350 1150 l 282 1150 l 282 1135 b 254 1106 282 1119 269 1106 l 168 1106 b 140 1135 153 1106 140 1119 l 140 1150 z "},"Џ":{"ha":465,"x_min":0,"x_max":0,"o":"m 56 92 l 56 0 l 186 0 l 186 -215 l 278 -215 l 278 0 l 410 0 l 410 972 l 318 972 l 318 92 z m 147 163 l 147 972 l 56 972 l 56 163 z "},"ѐ":{"ha":367,"x_min":0,"x_max":0,"o":"m 56 288 l 56 0 l 325 0 l 325 86 l 142 86 l 142 288 z m 56 592 l 56 358 l 304 358 l 304 444 l 142 444 l 142 592 z m 56 663 l 325 663 l 325 750 l 56 750 z m 108 919 l 232 828 l 274 881 l 150 972 z "},"ё":{"ha":367,"x_min":0,"x_max":0,"o":"m 56 288 l 56 0 l 325 0 l 325 86 l 142 86 l 142 288 z m 56 592 l 56 358 l 304 358 l 304 444 l 142 444 l 142 592 z m 56 663 l 325 663 l 325 750 l 56 750 z m 231 972 l 231 874 l 314 874 l 314 972 z m 68 972 l 68 874 l 153 874 l 153 972 z "},"ђ":{"ha":500,"x_min":0,"x_max":0,"o":"m 357 663 l 357 750 l 35 750 l 35 663 z m 358 358 l 358 -11 b 315 -54 358 -35 339 -54 l 247 -54 l 247 -140 l 315 -140 b 444 -11 386 -140 444 -82 l 444 444 l 310 444 l 310 358 z m 239 592 l 153 592 l 153 0 l 239 0 z "},"ѓ":{"ha":356,"x_min":0,"x_max":0,"o":"m 56 664 l 56 750 l 342 750 l 342 664 z m 142 592 l 142 0 l 56 0 l 56 592 z m 240 972 l 117 881 l 158 828 l 282 919 z "},"є":{"ha":418,"x_min":0,"x_max":0,"o":"m 56 129 b 186 0 56 58 114 0 l 233 0 b 363 129 304 0 363 58 l 363 247 l 276 247 l 276 129 b 233 86 276 106 257 86 l 186 86 b 142 129 161 86 142 106 l 142 358 l 276 358 l 276 444 l 56 444 z m 142 515 l 142 619 b 186 663 142 643 161 663 l 233 663 b 276 619 257 663 276 643 l 276 547 l 363 547 l 363 621 b 233 750 363 692 304 750 l 186 750 b 56 621 114 750 56 692 l 56 515 z "},"ѕ":{"ha":443,"x_min":0,"x_max":0,"o":"m 186 465 l 176 475 b 143 551 154 497 143 519 l 143 619 b 186 663 143 643 163 663 l 257 663 b 301 619 282 663 301 643 l 301 547 l 388 547 l 388 619 b 257 750 388 692 329 750 l 186 750 b 56 619 115 750 56 692 l 56 544 b 114 410 56 486 71 451 l 186 338 z m 257 396 l 257 268 l 272 253 b 301 188 292 233 301 214 l 301 129 b 257 86 301 106 282 86 l 186 86 b 143 129 163 86 143 106 l 143 247 l 56 247 l 56 129 b 186 0 56 58 115 0 l 257 0 b 388 129 329 0 388 58 l 388 194 b 339 315 388 247 376 278 z "},"і":{"ha":367,"x_min":0,"x_max":0,"o":"m 226 365 l 140 365 l 140 86 l 56 86 l 56 0 l 311 0 l 311 86 l 226 86 z m 226 436 l 226 663 l 311 663 l 311 750 l 56 750 l 56 663 l 140 663 l 140 436 z "},"ї":{"ha":367,"x_min":0,"x_max":0,"o":"m 226 365 l 140 365 l 140 86 l 56 86 l 56 0 l 311 0 l 311 86 l 226 86 z m 226 436 l 226 663 l 311 663 l 311 750 l 56 750 l 56 663 l 140 663 l 140 436 z m 224 972 l 224 874 l 307 874 l 307 972 z m 61 972 l 61 874 l 146 874 l 146 972 z "},"ј":{"ha":418,"x_min":0,"x_max":0,"o":"m 363 750 l 143 750 l 143 663 l 276 663 l 276 436 l 363 436 z m 276 365 l 276 129 b 233 86 276 106 257 86 l 165 86 b 122 129 142 86 122 106 l 122 247 l 35 247 l 35 129 b 165 0 35 58 93 0 l 233 0 b 363 129 304 0 363 58 l 363 365 z "},"љ":{"ha":742,"x_min":0,"x_max":0,"o":"m 561 0 b 699 138 638 0 699 63 l 699 307 b 561 444 699 383 638 444 l 442 444 l 442 750 l 106 750 l 106 663 l 354 663 l 354 358 l 576 358 b 613 322 596 358 613 342 l 613 122 b 576 86 613 103 596 86 l 513 86 l 513 0 z m 106 592 l 106 375 b 28 79 106 221 101 79 l 28 -7 b 193 385 185 -7 193 183 l 193 592 z m 442 288 l 354 288 l 354 0 l 442 0 z "},"њ":{"ha":718,"x_min":0,"x_max":0,"o":"m 554 358 b 590 322 574 358 590 342 l 590 122 b 554 86 590 103 574 86 l 490 86 l 490 0 l 539 0 b 676 138 615 0 676 63 l 676 307 b 539 444 676 383 615 444 l 419 444 l 419 750 l 332 750 l 332 444 l 56 444 l 56 0 l 142 0 l 142 358 z m 332 0 l 419 0 l 419 288 l 332 288 z m 142 750 l 56 750 l 56 515 l 142 515 z "},"ћ":{"ha":599,"x_min":0,"x_max":0,"o":"m 543 358 l 543 750 l 457 750 l 457 444 l 153 444 l 153 0 l 239 0 l 239 358 z m 239 663 l 358 663 l 358 750 l 35 750 l 35 663 l 153 663 l 153 515 l 239 515 z m 457 0 l 543 0 l 543 288 l 457 288 z "},"ќ":{"ha":431,"x_min":0,"x_max":0,"o":"m 142 515 l 56 515 l 56 750 l 142 750 z m 142 358 l 142 0 l 56 0 l 56 444 l 213 444 b 269 504 244 444 269 472 l 269 613 b 404 750 269 688 329 750 l 410 750 l 410 663 l 404 663 b 357 613 376 663 357 640 l 357 501 b 229 358 357 446 317 358 z m 211 288 l 304 288 l 410 0 l 318 0 z m 274 972 l 150 881 l 192 828 l 315 919 z "},"ѝ":{"ha":511,"x_min":0,"x_max":0,"o":"m 183 919 l 307 828 l 349 881 l 225 972 z m 456 663 l 456 750 l 332 750 l 117 88 l 56 88 l 56 0 l 178 0 l 394 663 z m 432 592 l 368 396 l 368 0 l 456 0 l 456 592 z m 79 158 l 143 357 l 143 750 l 56 750 l 56 158 z "},"ў":{"ha":419,"x_min":0,"x_max":0,"o":"m 85 972 l 85 961 b 179 864 85 906 124 864 l 268 864 b 363 961 324 864 363 906 l 363 972 l 294 972 l 294 957 b 267 928 294 942 282 928 l 181 928 b 153 957 165 928 153 942 l 153 972 z m 85 972 l 85 961 b 179 864 85 906 124 864 l 268 864 b 363 961 324 864 363 906 l 363 972 l 294 972 l 294 957 b 267 928 294 942 282 928 l 181 928 b 153 957 165 928 153 942 l 153 972 z m 131 335 l 154 247 l 210 247 l 158 0 l 246 0 l 399 750 l 311 750 l 228 335 z m 110 750 l 21 750 l 113 406 l 200 406 z "},"џ":{"ha":474,"x_min":0,"x_max":0,"o":"m 56 86 l 56 0 l 194 0 l 194 -140 l 281 -140 l 281 0 l 418 0 l 418 750 l 332 750 l 332 86 z m 142 157 l 142 750 l 56 750 l 56 157 z "},"Ѣ":{"ha":499,"x_min":0,"x_max":0,"o":"m 28 750 l 107 750 l 107 567 l 326 567 b 365 528 349 567 365 549 l 365 131 b 326 92 365 110 347 92 l 269 92 l 269 0 l 326 0 b 457 131 399 0 457 58 l 457 521 b 326 651 457 592 399 651 l 199 651 l 199 750 l 301 750 l 301 821 l 199 821 l 199 972 l 107 972 l 107 821 l 28 821 z m 199 0 l 199 496 l 107 496 l 107 0 z "},"ѣ":{"ha":483,"x_min":0,"x_max":0,"o":"m 28 679 l 97 679 l 97 444 l 319 444 b 356 408 339 444 356 428 l 356 122 b 319 86 356 103 339 86 l 256 86 l 256 0 l 304 0 b 442 138 381 0 442 63 l 442 393 b 304 531 442 469 381 531 l 183 531 l 183 679 l 301 679 l 301 750 l 183 750 l 183 972 l 97 972 l 97 750 l 28 750 z m 183 374 l 97 374 l 97 0 l 183 0 z "},"Ѳ":{"ha":464,"x_min":0,"x_max":0,"o":"m 268 881 l 278 881 b 317 842 299 881 317 863 l 317 568 b 282 538 314 549 304 538 b 181 575 243 538 235 575 b 147 568 168 575 157 572 l 147 842 b 186 881 147 863 165 881 l 197 881 l 197 972 l 186 972 b 56 842 115 972 56 914 l 56 131 b 186 0 56 58 115 0 l 197 0 l 197 92 l 186 92 b 147 131 165 92 147 108 l 147 482 b 186 514 150 501 164 514 b 285 475 221 514 232 475 b 317 481 296 475 307 476 l 317 131 b 278 92 317 108 299 92 l 268 92 l 268 0 l 278 0 b 408 131 350 0 408 58 l 408 842 b 278 972 408 914 350 972 l 268 972 z "},"ѳ":{"ha":472,"x_min":0,"x_max":0,"o":"m 201 750 l 186 750 b 56 619 114 750 56 690 l 56 129 b 186 0 56 58 114 0 l 201 0 l 201 86 l 186 86 b 143 129 163 86 143 106 l 143 360 b 186 393 146 379 163 393 b 293 354 221 393 240 354 b 329 361 306 354 318 357 l 329 129 b 286 86 329 106 310 86 l 272 86 l 272 0 l 286 0 b 417 129 358 0 417 58 l 417 619 b 286 750 417 692 357 750 l 272 750 l 272 663 l 286 663 b 329 619 310 663 329 643 l 329 454 b 290 417 329 431 315 417 b 181 454 251 417 235 454 b 143 446 167 454 154 451 l 143 619 b 186 663 143 643 163 663 l 201 663 z "},"Ѵ":{"ha":513,"x_min":0,"x_max":0,"o":"m 156 92 l 169 0 l 307 0 l 439 847 b 485 897 443 874 458 894 l 492 897 l 492 988 l 485 988 b 346 847 400 988 357 922 l 235 92 z m 144 163 l 175 163 l 208 357 l 115 972 l 21 972 z "},"ѵ":{"ha":517,"x_min":0,"x_max":0,"o":"m 108 750 l 21 750 l 142 157 l 194 157 l 211 238 z m 156 86 l 174 0 l 317 0 l 443 619 b 490 669 449 647 463 669 l 496 669 l 496 757 l 489 757 b 360 639 413 757 374 713 l 250 86 z "},"Ґ":{"ha":349,"x_min":0,"x_max":0,"o":"m 147 810 l 56 810 l 56 0 l 147 0 z m 335 881 l 335 1158 l 243 1158 l 243 972 l 56 972 l 56 881 z "},"ґ":{"ha":356,"x_min":0,"x_max":0,"o":"m 342 664 l 342 972 l 256 972 l 256 750 l 56 750 l 56 664 z m 56 593 l 56 0 l 142 0 l 142 593 z "},"Ғ":{"ha":418,"x_min":0,"x_max":0,"o":"m 217 810 l 125 810 l 125 560 l 56 560 l 56 489 l 125 489 l 125 0 l 217 0 l 217 489 l 329 489 l 329 560 l 217 560 z m 404 881 l 404 972 l 125 972 l 125 881 z "},"ғ":{"ha":431,"x_min":0,"x_max":0,"o":"m 56 367 l 131 367 l 131 0 l 217 0 l 217 367 l 329 367 l 329 438 l 217 438 l 217 592 l 131 592 l 131 438 l 56 438 z m 417 663 l 417 750 l 131 750 l 131 663 z "},"Җ":{"ha":683,"x_min":0,"x_max":0,"o":"m 247 542 b 174 617 204 542 174 574 l 174 832 b 36 972 174 908 114 972 l 21 972 l 21 881 l 36 881 b 82 832 63 879 82 857 l 82 607 b 160 483 82 554 110 504 l 21 0 l 121 0 l 249 457 l 390 457 l 517 0 l 576 0 l 576 -215 l 668 -215 l 668 92 l 592 92 l 592 90 l 478 483 b 556 607 528 503 556 554 l 556 832 b 603 881 556 857 578 879 l 618 881 l 618 972 l 603 972 b 464 832 526 972 464 908 l 464 615 b 392 542 464 574 435 542 z m 274 386 l 274 0 l 365 0 l 365 386 z m 274 613 l 365 613 l 365 972 l 274 972 z "},"җ":{"ha":674,"x_min":0,"x_max":0,"o":"m 235 425 b 176 483 203 425 176 451 l 176 613 b 39 750 176 688 114 750 l 22 750 l 22 663 l 39 663 b 90 613 67 663 90 640 l 90 482 b 175 351 90 424 122 374 l 21 0 l 113 0 l 261 339 l 393 339 l 542 0 l 588 0 l 588 -139 l 674 -139 l 674 86 l 596 86 l 481 351 b 564 482 531 375 564 424 l 564 613 b 615 663 564 640 588 663 l 633 663 l 633 750 l 615 750 b 478 613 540 750 478 688 l 478 483 b 419 425 478 451 451 425 z m 283 268 l 283 0 l 371 0 l 371 268 z m 371 750 l 283 750 l 283 496 l 371 496 z "},"Ҙ":{"ha":404,"x_min":0,"x_max":0,"o":"m 257 279 l 257 131 b 218 92 257 110 240 92 l 165 92 b 126 131 144 92 126 110 l 126 279 l 35 279 l 35 131 b 161 0 35 60 92 1 l 161 -107 l 218 -107 b 235 -124 228 -107 235 -115 l 235 -135 b 218 -153 235 -144 225 -153 l 151 -153 l 151 -215 l 218 -215 b 299 -133 263 -215 299 -175 l 299 -125 b 218 -46 299 -81 260 -46 l 213 -46 l 213 0 l 218 0 b 349 131 290 0 349 60 l 349 279 z m 257 733 l 349 733 l 349 842 b 218 972 349 914 290 972 l 165 972 b 35 842 94 972 35 914 l 35 733 l 126 733 l 126 842 b 165 881 126 864 144 881 l 218 881 b 257 842 239 881 257 864 z m 257 663 l 257 657 b 181 567 257 608 232 567 l 135 567 l 135 482 l 181 482 b 257 411 229 482 257 465 l 257 350 l 349 350 l 349 426 b 275 533 349 476 321 517 b 349 657 325 554 349 604 l 349 663 z "},"ҙ":{"ha":411,"x_min":0,"x_max":0,"o":"m 356 176 l 269 176 l 269 129 b 226 86 269 106 250 86 l 165 86 b 122 129 142 86 122 106 l 122 247 l 35 247 l 35 129 b 158 0 35 60 89 3 l 158 -107 l 215 -107 b 232 -124 225 -107 232 -115 l 232 -135 b 215 -153 232 -144 222 -153 l 149 -153 l 149 -215 l 215 -215 b 296 -133 260 -215 296 -175 l 296 -125 b 215 -46 296 -81 257 -46 l 210 -46 l 210 0 l 226 0 b 356 129 297 0 356 58 z m 356 547 l 269 547 l 269 542 b 179 444 269 489 233 444 l 122 444 l 122 358 l 188 358 b 269 279 239 358 269 338 l 269 247 l 356 247 l 356 307 b 283 401 356 358 328 388 b 356 524 332 426 356 471 z m 356 617 l 356 624 b 226 750 356 694 297 750 l 165 750 b 35 621 93 750 35 692 l 35 547 l 122 547 l 122 619 b 165 663 122 643 140 663 l 226 663 b 269 622 250 663 269 646 l 269 617 z "},"Қ":{"ha":471,"x_min":0,"x_max":0,"o":"m 56 567 l 56 0 l 147 0 l 147 482 l 206 482 b 350 644 307 482 350 576 l 350 832 b 396 882 350 858 369 879 l 403 882 l 403 972 l 396 972 b 258 832 319 972 258 908 l 258 639 b 189 567 258 597 232 567 z m 297 411 l 201 411 l 308 0 l 364 0 l 364 -215 l 456 -215 l 456 92 l 379 92 z m 147 638 l 147 972 l 56 972 l 56 638 z "},"қ":{"ha":450,"x_min":0,"x_max":0,"o":"m 222 358 b 350 501 310 358 350 446 l 350 613 b 397 663 350 640 369 663 l 403 663 l 403 750 l 397 750 b 263 613 322 750 263 688 l 263 504 b 206 444 263 472 238 444 l 49 444 l 49 0 l 135 0 l 135 358 z m 311 0 l 363 0 l 363 -139 l 449 -139 l 449 86 l 371 86 l 297 288 l 204 288 z m 135 750 l 49 750 l 49 515 l 135 515 z "},"Ҝ":{"ha":510,"x_min":0,"x_max":0,"o":"m 190 750 l 190 268 l 256 268 l 256 482 l 269 482 l 394 0 l 489 0 l 358 507 b 436 631 408 528 436 581 l 436 832 b 482 882 436 858 456 879 l 489 882 l 489 972 l 482 972 b 344 832 406 972 344 908 l 344 639 b 269 567 344 597 315 567 l 256 567 l 256 750 z m 147 972 l 56 972 l 56 0 l 147 0 z "},"ҝ":{"ha":510,"x_min":0,"x_max":0,"o":"m 185 615 l 185 133 l 249 133 l 249 358 l 264 358 l 397 0 l 489 0 l 351 374 b 436 501 403 397 436 446 l 436 613 b 483 663 436 640 456 663 l 489 663 l 489 750 l 483 750 b 349 613 408 750 349 688 l 349 504 b 292 444 349 472 324 444 l 249 444 l 249 615 z m 142 750 l 56 750 l 56 0 l 142 0 z "},"Ҡ":{"ha":515,"x_min":0,"x_max":0,"o":"m 389 411 l 293 411 l 400 0 l 494 0 z m 147 567 l 147 0 l 239 0 l 239 482 l 297 482 b 442 644 399 482 442 576 l 442 832 b 488 882 442 858 461 879 l 494 882 l 494 972 l 488 972 b 350 832 411 972 350 908 l 350 639 b 281 567 350 597 324 567 z m 147 638 l 239 638 l 239 972 l 28 972 l 28 888 l 147 888 z "},"ҡ":{"ha":528,"x_min":0,"x_max":0,"o":"m 239 750 l 28 750 l 28 664 l 153 664 l 153 515 l 239 515 z m 326 358 b 454 501 414 358 454 446 l 454 613 b 501 663 454 640 474 663 l 507 663 l 507 750 l 501 750 b 367 613 426 750 367 688 l 367 504 b 310 444 367 472 342 444 l 153 444 l 153 0 l 239 0 l 239 358 z m 415 0 l 507 0 l 401 288 l 308 288 z "},"Ң":{"ha":501,"x_min":0,"x_max":0,"o":"m 410 482 l 410 972 l 318 972 l 318 567 l 56 567 l 56 0 l 147 0 l 147 482 z m 318 411 l 318 0 l 394 0 l 394 -215 l 486 -215 l 486 92 l 410 92 l 410 411 z m 147 638 l 147 972 l 56 972 l 56 638 z "},"ң":{"ha":490,"x_min":0,"x_max":0,"o":"m 411 358 l 411 750 l 325 750 l 325 444 l 49 444 l 49 0 l 135 0 l 135 358 z m 325 0 l 403 0 l 403 -139 l 489 -139 l 489 86 l 411 86 l 411 288 l 325 288 z m 135 750 l 49 750 l 49 515 l 135 515 z "},"Ҫ":{"ha":432,"x_min":0,"x_max":0,"o":"m 200 -111 b 246 0 200 -71 218 -35 b 376 131 318 0 376 58 l 376 279 l 285 279 l 285 131 b 246 92 285 108 267 92 l 186 92 b 147 131 165 92 147 108 l 147 482 l 56 482 l 56 131 b 186 0 56 58 115 0 b 132 -122 154 -37 132 -74 b 199 -193 132 -158 154 -193 l 253 -193 l 253 -132 l 221 -132 b 200 -111 207 -132 200 -124 z m 285 733 l 376 733 l 376 842 b 246 972 376 914 318 972 l 186 972 b 56 842 115 972 56 914 l 56 553 l 147 553 l 147 842 b 186 881 147 863 165 881 l 246 881 b 285 842 268 881 285 863 z "},"ҫ":{"ha":439,"x_min":0,"x_max":0,"o":"m 207 -111 b 253 0 207 -71 225 -35 b 383 129 325 0 383 58 l 383 247 l 296 247 l 296 129 b 253 86 296 106 276 86 l 185 86 b 142 129 161 86 142 106 l 142 365 l 56 365 l 56 129 b 185 0 56 58 114 0 l 193 0 b 139 -122 161 -37 139 -74 b 206 -193 139 -158 161 -193 l 260 -193 l 260 -132 l 228 -132 b 207 -111 214 -132 207 -124 z m 56 436 l 142 436 l 142 619 b 185 663 142 643 161 663 l 253 663 b 296 619 276 663 296 643 l 296 547 l 383 547 l 383 619 b 253 750 383 692 325 750 l 185 750 b 56 619 114 750 56 692 z "},"Ү":{"ha":435,"x_min":0,"x_max":0,"o":"m 169 425 l 169 92 l 90 92 l 90 0 l 340 0 l 340 92 l 261 92 l 261 444 l 421 972 l 326 972 z m 181 713 l 108 972 l 14 972 l 136 558 z "},"ү":{"ha":446,"x_min":0,"x_max":0,"o":"m 268 288 l 181 288 l 181 86 l 97 86 l 97 0 l 353 0 l 353 86 l 268 86 z m 283 358 l 432 750 l 339 750 l 229 444 l 219 444 l 107 750 l 14 750 l 165 358 z "},"Ұ":{"ha":435,"x_min":0,"x_max":0,"o":"m 79 367 l 169 367 l 169 92 l 90 92 l 90 0 l 340 0 l 340 92 l 261 92 l 261 367 l 353 367 l 353 438 l 261 438 l 261 444 l 421 972 l 326 972 l 172 438 l 79 438 z m 181 713 l 108 972 l 14 972 l 136 558 z "},"ұ":{"ha":446,"x_min":0,"x_max":0,"o":"m 363 288 l 363 358 l 283 358 l 432 750 l 339 750 l 229 444 l 219 444 l 107 750 l 14 750 l 165 358 l 89 358 l 89 288 z m 268 217 l 181 217 l 181 86 l 97 86 l 97 0 l 353 0 l 353 86 l 268 86 z "},"Ҳ":{"ha":540,"x_min":0,"x_max":0,"o":"m 249 578 l 153 578 l 169 521 l 21 0 l 117 0 l 249 464 l 343 464 l 326 521 l 463 972 l 367 972 z m 363 393 l 269 393 l 382 0 l 435 0 l 435 -215 l 526 -215 l 526 92 l 450 92 z m 228 649 l 131 972 l 36 972 l 132 649 z "},"ҳ":{"ha":504,"x_min":0,"x_max":0,"o":"m 200 515 l 122 750 l 29 750 l 114 515 z m 328 358 l 313 401 l 439 750 l 346 750 l 243 444 l 140 444 l 156 401 l 14 0 l 106 0 l 224 358 z m 364 0 l 404 0 l 404 -139 l 490 -139 l 490 86 l 425 86 l 353 288 l 268 288 z "},"Ҹ":{"ha":463,"x_min":0,"x_max":0,"o":"m 407 482 l 269 482 l 269 750 l 204 750 l 204 482 l 186 482 b 147 521 165 482 147 500 l 147 972 l 56 972 l 56 526 b 186 396 56 454 114 396 l 204 396 l 204 268 l 269 268 l 269 396 l 315 396 l 315 0 l 407 0 z m 407 568 l 407 972 l 315 972 l 315 568 z "},"ҹ":{"ha":469,"x_min":0,"x_max":0,"o":"m 269 358 l 269 615 l 206 615 l 206 358 l 178 358 b 142 394 158 358 142 375 l 142 750 l 56 750 l 56 410 b 193 272 56 333 117 272 l 206 272 l 206 133 l 269 133 l 269 272 l 326 272 l 326 0 l 414 0 l 414 358 z m 414 750 l 326 750 l 326 429 l 414 429 z "},"Һ":{"ha":465,"x_min":0,"x_max":0,"o":"m 147 397 l 56 397 l 56 0 l 147 0 z m 279 482 b 318 443 300 482 318 464 l 318 0 l 410 0 l 410 436 b 279 567 410 507 351 567 l 147 567 l 147 972 l 56 972 l 56 482 z "},"һ":{"ha":474,"x_min":0,"x_max":0,"o":"m 289 358 b 332 315 313 358 332 339 l 332 0 l 418 0 l 418 314 b 289 444 418 386 360 444 l 142 444 l 142 750 l 56 750 l 56 358 z m 56 274 l 56 0 l 142 0 l 142 274 z "},"Ӑ":{"ha":485,"x_min":0,"x_max":0,"o":"m 333 215 l 365 0 l 457 0 l 426 215 z m 418 286 l 325 972 l 160 972 l 89 442 l 181 442 l 239 882 l 246 882 l 314 371 l 79 371 l 28 0 l 121 0 l 161 286 z m 103 1150 l 103 1139 b 197 1042 103 1083 142 1042 l 286 1042 b 381 1139 342 1042 381 1083 l 381 1150 l 313 1150 l 313 1135 b 285 1106 313 1119 300 1106 l 199 1106 b 171 1135 183 1106 171 1119 l 171 1150 z "},"ӑ":{"ha":483,"x_min":0,"x_max":0,"o":"m 335 178 l 367 0 l 456 0 l 422 178 z m 410 249 l 315 750 l 168 750 l 104 406 l 192 406 l 239 664 l 244 664 l 306 335 l 90 335 l 28 0 l 115 0 l 163 249 z m 103 972 l 103 961 b 197 864 103 906 142 864 l 286 864 b 381 961 342 864 381 906 l 381 972 l 313 972 l 313 957 b 285 928 313 942 300 928 l 199 928 b 171 957 183 928 171 942 l 171 972 z "},"Ӓ":{"ha":485,"x_min":0,"x_max":0,"o":"m 282 1140 l 282 1042 l 365 1042 l 365 1140 z m 119 1140 l 119 1042 l 204 1042 l 204 1140 z m 333 215 l 365 0 l 457 0 l 426 215 z m 418 286 l 325 972 l 160 972 l 89 442 l 181 442 l 239 882 l 246 882 l 314 371 l 79 371 l 28 0 l 121 0 l 161 286 z m 282 1140 l 282 1042 l 365 1042 l 365 1140 z m 119 1140 l 119 1042 l 204 1042 l 204 1140 z "},"ӓ":{"ha":483,"x_min":0,"x_max":0,"o":"m 282 972 l 282 874 l 365 874 l 365 972 z m 119 972 l 119 874 l 204 874 l 204 972 z m 335 178 l 367 0 l 456 0 l 422 178 z m 410 249 l 315 750 l 168 750 l 104 406 l 192 406 l 239 664 l 244 664 l 306 335 l 90 335 l 28 0 l 115 0 l 163 249 z m 282 972 l 282 874 l 365 874 l 365 972 z m 119 972 l 119 874 l 204 874 l 204 972 z "},"Ӕ":{"ha":665,"x_min":0,"x_max":0,"o":"m 451 208 l 358 208 l 358 0 l 624 0 l 624 92 l 451 92 z m 451 279 l 451 482 l 603 482 l 603 567 l 451 567 l 451 810 l 358 810 l 358 364 l 106 364 l 28 0 l 121 0 l 182 279 z m 624 881 l 624 972 l 236 972 l 121 435 l 214 435 l 308 881 z "},"ӕ":{"ha":672,"x_min":0,"x_max":0,"o":"m 631 663 l 631 750 l 246 750 l 146 404 l 233 404 l 308 663 z m 361 592 l 361 333 l 125 333 l 28 0 l 118 0 l 190 247 l 447 247 l 447 358 l 610 358 l 610 444 l 447 444 l 447 592 z m 361 176 l 361 0 l 631 0 l 631 86 l 447 86 l 447 176 z "},"Ӗ":{"ha":375,"x_min":0,"x_max":0,"o":"m 63 92 l 63 0 l 326 0 l 326 92 z m 154 163 l 154 482 l 306 482 l 306 567 l 154 567 l 154 810 l 63 810 l 63 163 z m 63 881 l 328 881 l 328 972 l 63 972 z m 56 1150 l 56 1139 b 150 1042 56 1083 94 1042 l 239 1042 b 333 1139 294 1042 333 1083 l 333 1150 l 265 1150 l 265 1135 b 238 1106 265 1119 253 1106 l 151 1106 b 124 1135 136 1106 124 1119 l 124 1150 z "},"ӗ":{"ha":375,"x_min":0,"x_max":0,"o":"m 60 288 l 60 0 l 329 0 l 329 86 l 146 86 l 146 288 z m 60 592 l 60 358 l 308 358 l 308 444 l 146 444 l 146 592 z m 60 663 l 329 663 l 329 750 l 60 750 z m 56 972 l 56 961 b 150 864 56 906 94 864 l 239 864 b 333 961 294 864 333 906 l 333 972 l 265 972 l 265 957 b 238 928 265 942 253 928 l 151 928 b 124 957 136 928 124 942 l 124 972 z "},"Ә":{"ha":432,"x_min":0,"x_max":0,"o":"m 285 131 b 246 92 285 108 267 92 l 186 92 b 147 131 165 92 147 108 l 147 279 l 56 279 l 56 131 b 186 0 56 58 114 0 l 246 0 b 376 131 317 0 376 58 l 376 567 l 147 567 l 147 842 b 186 881 147 863 164 881 l 246 881 b 285 842 267 881 285 863 l 285 651 l 376 651 l 376 842 b 246 972 376 914 317 972 l 186 972 b 56 842 114 972 56 914 l 56 482 l 285 482 z "},"ә":{"ha":439,"x_min":0,"x_max":0,"o":"m 143 444 l 143 619 b 186 663 143 643 163 663 l 254 663 b 297 619 278 663 297 643 l 297 531 l 383 531 l 383 619 b 254 750 383 692 325 750 l 186 750 b 56 619 114 750 56 692 l 56 358 l 297 358 l 297 129 b 254 86 297 106 278 86 l 186 86 b 143 129 163 86 143 106 l 143 247 l 56 247 l 56 129 b 186 0 56 58 114 0 l 254 0 b 383 129 325 0 383 58 l 383 444 z "},"Ӛ":{"ha":432,"x_min":0,"x_max":0,"o":"m 256 1140 l 256 1042 l 339 1042 l 339 1140 z m 93 1140 l 93 1042 l 178 1042 l 178 1140 z m 285 131 b 246 92 285 108 267 92 l 186 92 b 147 131 165 92 147 108 l 147 279 l 56 279 l 56 131 b 186 0 56 58 114 0 l 246 0 b 376 131 317 0 376 58 l 376 567 l 147 567 l 147 842 b 186 881 147 863 164 881 l 246 881 b 285 842 267 881 285 863 l 285 651 l 376 651 l 376 842 b 246 972 376 914 317 972 l 186 972 b 56 842 114 972 56 914 l 56 482 l 285 482 z m 256 1140 l 256 1042 l 339 1042 l 339 1140 z m 93 1140 l 93 1042 l 178 1042 l 178 1140 z "},"ӛ":{"ha":439,"x_min":0,"x_max":0,"o":"m 260 972 l 260 874 l 343 874 l 343 972 z m 97 972 l 97 874 l 182 874 l 182 972 z m 143 444 l 143 619 b 186 663 143 643 163 663 l 254 663 b 297 619 278 663 297 643 l 297 531 l 383 531 l 383 619 b 254 750 383 692 325 750 l 186 750 b 56 619 114 750 56 692 l 56 358 l 297 358 l 297 129 b 254 86 297 106 278 86 l 186 86 b 143 129 163 86 143 106 l 143 247 l 56 247 l 56 129 b 186 0 56 58 114 0 l 254 0 b 383 129 325 0 383 58 l 383 444 z m 260 972 l 260 874 l 343 874 l 343 972 z m 97 972 l 97 874 l 182 874 l 182 972 z "},"Ӝ":{"ha":639,"x_min":0,"x_max":0,"o":"m 360 1140 l 360 1042 l 443 1042 l 443 1140 z m 197 1140 l 197 1042 l 282 1042 l 282 1140 z m 274 386 l 274 0 l 365 0 l 365 386 z m 247 542 b 174 617 204 542 174 574 l 174 832 b 36 972 174 908 114 972 l 21 972 l 21 881 l 36 881 b 82 832 63 879 82 857 l 82 607 b 160 483 82 554 110 504 l 21 0 l 121 0 l 249 457 l 390 457 l 517 0 l 618 0 l 478 483 b 556 607 528 503 556 554 l 556 832 b 603 881 556 857 578 879 l 618 881 l 618 972 l 603 972 b 464 832 526 972 464 908 l 464 615 b 392 542 464 574 435 542 z m 274 613 l 365 613 l 365 972 l 274 972 z m 360 1140 l 360 1042 l 443 1042 l 443 1140 z m 197 1140 l 197 1042 l 282 1042 l 282 1140 z "},"ӝ":{"ha":654,"x_min":0,"x_max":0,"o":"m 371 750 l 283 750 l 283 496 l 371 496 z m 235 425 b 176 483 203 425 176 451 l 176 613 b 39 750 176 688 114 750 l 22 750 l 22 663 l 39 663 b 90 613 67 663 90 640 l 90 482 b 175 351 90 424 122 374 l 21 0 l 113 0 l 261 339 l 393 339 l 542 0 l 633 0 l 481 351 b 564 482 531 375 564 424 l 564 613 b 615 663 564 640 588 663 l 633 663 l 633 750 l 615 750 b 478 613 540 750 478 688 l 478 483 b 419 425 478 451 451 425 z m 283 268 l 283 0 l 371 0 l 371 268 z m 367 972 l 367 874 l 450 874 l 450 972 z m 204 972 l 204 874 l 289 874 l 289 972 z "},"Ӟ":{"ha":404,"x_min":0,"x_max":0,"o":"m 257 279 l 257 131 b 218 92 257 110 240 92 l 165 92 b 126 131 144 92 126 110 l 126 279 l 35 279 l 35 131 b 165 0 35 58 94 0 l 218 0 b 349 131 290 0 349 60 l 349 279 z m 257 663 l 257 657 b 181 567 257 608 232 567 l 135 567 l 135 482 l 181 482 b 257 411 229 482 257 465 l 257 350 l 349 350 l 349 426 b 275 533 349 476 321 517 b 349 657 325 554 349 604 l 349 663 z m 257 733 l 349 733 l 349 842 b 218 972 349 914 290 972 l 165 972 b 35 842 94 972 35 914 l 35 733 l 126 733 l 126 842 b 165 881 126 864 144 881 l 218 881 b 257 842 239 881 257 864 z m 232 1140 l 232 1042 l 315 1042 l 315 1140 z m 69 1140 l 69 1042 l 154 1042 l 154 1140 z "},"ӟ":{"ha":411,"x_min":0,"x_max":0,"o":"m 356 176 l 269 176 l 269 129 b 226 86 269 106 250 86 l 165 86 b 122 129 142 86 122 106 l 122 247 l 35 247 l 35 129 b 165 0 35 58 93 0 l 226 0 b 356 129 297 0 356 58 z m 356 547 l 269 547 l 269 542 b 179 444 269 489 233 444 l 122 444 l 122 358 l 188 358 b 269 279 239 358 269 338 l 269 247 l 356 247 l 356 307 b 283 401 356 358 328 388 b 356 524 332 426 356 471 z m 356 617 l 356 624 b 226 750 356 694 297 750 l 165 750 b 35 621 93 750 35 692 l 35 547 l 122 547 l 122 619 b 165 663 122 643 140 663 l 226 663 b 269 622 250 663 269 646 l 269 617 z m 235 972 l 235 874 l 318 874 l 318 972 z m 72 972 l 72 874 l 157 874 l 157 972 z "},"Ӣ":{"ha":503,"x_min":0,"x_max":0,"o":"m 115 1131 l 115 1060 l 381 1060 l 381 1131 z m 147 972 l 56 972 l 56 176 l 76 176 l 147 472 z m 447 881 l 447 972 l 329 972 l 110 92 l 56 92 l 56 0 l 174 0 l 393 881 z m 356 0 l 447 0 l 447 796 l 426 796 l 356 500 z "},"ӣ":{"ha":511,"x_min":0,"x_max":0,"o":"m 456 663 l 456 750 l 332 750 l 117 88 l 56 88 l 56 0 l 178 0 l 394 663 z m 432 592 l 368 396 l 368 0 l 456 0 l 456 592 z m 79 158 l 143 357 l 143 750 l 56 750 l 56 158 z m 128 972 l 128 901 l 393 901 l 393 972 z "},"Ӥ":{"ha":503,"x_min":0,"x_max":0,"o":"m 288 1140 l 288 1042 l 371 1042 l 371 1140 z m 125 1140 l 125 1042 l 210 1042 l 210 1140 z m 147 972 l 56 972 l 56 176 l 76 176 l 147 472 z m 447 881 l 447 972 l 329 972 l 110 92 l 56 92 l 56 0 l 174 0 l 393 881 z m 356 0 l 447 0 l 447 796 l 426 796 l 356 500 z "},"ӥ":{"ha":511,"x_min":0,"x_max":0,"o":"m 454 663 l 454 750 l 331 750 l 115 88 l 54 88 l 54 0 l 176 0 l 393 663 z m 431 592 l 367 396 l 367 0 l 454 0 l 454 592 z m 78 158 l 142 357 l 142 750 l 54 750 l 54 158 z m 299 972 l 299 874 l 382 874 l 382 972 z m 136 972 l 136 874 l 221 874 l 221 972 z "},"Ӧ":{"ha":464,"x_min":0,"x_max":0,"o":"m 197 881 l 197 972 l 186 972 b 56 842 115 972 56 914 l 56 131 b 186 0 56 58 115 0 l 197 0 l 197 92 l 186 92 b 147 131 165 92 147 108 l 147 842 b 186 881 147 863 165 881 z m 268 881 l 278 881 b 317 842 299 881 317 863 l 317 131 b 278 92 317 108 299 92 l 268 92 l 268 0 l 278 0 b 408 131 350 0 408 58 l 408 842 b 278 972 408 914 350 972 l 268 972 z m 272 1140 l 272 1042 l 356 1042 l 356 1140 z m 110 1140 l 110 1042 l 194 1042 l 194 1140 z "},"ӧ":{"ha":472,"x_min":0,"x_max":0,"o":"m 286 663 b 329 619 310 663 329 643 l 329 129 b 286 86 329 106 310 86 l 272 86 l 272 0 l 286 0 b 417 129 358 0 417 58 l 417 619 b 286 750 417 692 357 750 l 272 750 l 272 663 z m 201 750 l 186 750 b 56 619 114 750 56 690 l 56 129 b 186 0 56 58 114 0 l 201 0 l 201 86 l 186 86 b 143 129 163 86 143 106 l 143 619 b 186 663 143 643 163 663 l 201 663 z m 276 972 l 276 874 l 360 874 l 360 972 z m 114 972 l 114 874 l 199 874 l 199 972 z "},"Ө":{"ha":464,"x_min":0,"x_max":0,"o":"m 268 881 l 278 881 b 317 842 299 881 317 863 l 317 567 l 147 567 l 147 842 b 186 881 147 863 165 881 l 197 881 l 197 972 l 186 972 b 56 842 115 972 56 914 l 56 131 b 186 0 56 58 115 0 l 197 0 l 197 92 l 186 92 b 147 131 165 92 147 108 l 147 482 l 317 482 l 317 131 b 278 92 317 108 299 92 l 268 92 l 268 0 l 278 0 b 408 131 350 0 408 58 l 408 842 b 278 972 408 914 350 972 l 268 972 z "},"ө":{"ha":472,"x_min":0,"x_max":0,"o":"m 201 750 l 186 750 b 56 619 114 750 56 690 l 56 129 b 186 0 56 58 114 0 l 201 0 l 201 86 l 186 86 b 143 129 163 86 143 106 l 143 358 l 329 358 l 329 129 b 286 86 329 106 310 86 l 272 86 l 272 0 l 286 0 b 417 129 358 0 417 58 l 417 619 b 286 750 417 692 357 750 l 272 750 l 272 663 l 286 663 b 329 619 310 663 329 643 l 329 444 l 143 444 l 143 619 b 186 663 143 643 163 663 l 201 663 z "},"Ӫ":{"ha":464,"x_min":0,"x_max":0,"o":"m 268 881 l 278 881 b 317 842 299 881 317 863 l 317 567 l 147 567 l 147 842 b 186 881 147 863 165 881 l 197 881 l 197 972 l 186 972 b 56 842 115 972 56 914 l 56 131 b 186 0 56 58 115 0 l 197 0 l 197 92 l 186 92 b 147 131 165 92 147 108 l 147 482 l 317 482 l 317 131 b 278 92 317 108 299 92 l 268 92 l 268 0 l 278 0 b 408 131 350 0 408 58 l 408 842 b 278 972 408 914 350 972 l 268 972 z m 272 1140 l 272 1042 l 356 1042 l 356 1140 z m 110 1140 l 110 1042 l 194 1042 l 194 1140 z "},"ӫ":{"ha":472,"x_min":0,"x_max":0,"o":"m 201 750 l 186 750 b 56 619 114 750 56 690 l 56 129 b 186 0 56 58 114 0 l 201 0 l 201 86 l 186 86 b 143 129 163 86 143 106 l 143 358 l 329 358 l 329 129 b 286 86 329 106 310 86 l 272 86 l 272 0 l 286 0 b 417 129 358 0 417 58 l 417 619 b 286 750 417 692 357 750 l 272 750 l 272 663 l 286 663 b 329 619 310 663 329 643 l 329 444 l 143 444 l 143 619 b 186 663 143 643 163 663 l 201 663 z m 276 972 l 276 874 l 360 874 l 360 972 z m 114 972 l 114 874 l 199 874 l 199 972 z "},"Ӭ":{"ha":385,"x_min":0,"x_max":0,"o":"m 126 567 l 126 482 l 238 482 l 238 131 b 199 92 238 110 219 92 l 158 92 b 119 131 138 92 119 110 l 119 279 l 28 279 l 28 131 b 158 0 28 58 86 0 l 199 0 b 329 131 269 0 329 58 l 329 567 z m 238 638 l 329 638 l 329 842 b 199 972 329 914 269 972 l 158 972 b 28 842 86 972 28 914 l 28 733 l 119 733 l 119 842 b 158 881 119 864 138 881 l 199 881 b 238 842 219 881 238 864 z m 218 1140 l 218 1042 l 301 1042 l 301 1140 z m 56 1140 l 56 1042 l 140 1042 l 140 1140 z "},"ӭ":{"ha":390,"x_min":0,"x_max":0,"o":"m 335 444 l 114 444 l 114 358 l 249 358 l 249 129 b 204 86 249 106 229 86 l 157 86 b 114 129 133 86 114 106 l 114 247 l 28 247 l 28 129 b 157 0 28 58 86 0 l 204 0 b 335 129 276 0 335 58 z m 335 515 l 335 621 b 204 750 335 692 276 750 l 157 750 b 28 621 86 750 28 692 l 28 547 l 114 547 l 114 619 b 157 663 114 643 133 663 l 204 663 b 249 619 229 663 249 643 l 249 515 z m 221 972 l 221 874 l 304 874 l 304 972 z m 58 972 l 58 874 l 143 874 l 143 972 z "},"Ӯ":{"ha":406,"x_min":0,"x_max":0,"o":"m 113 371 l 128 279 l 213 279 l 179 0 l 272 0 l 385 972 l 292 972 l 222 371 z m 101 442 l 193 442 l 107 972 l 14 972 z m 67 1131 l 67 1060 l 332 1060 l 332 1131 z "},"ӯ":{"ha":419,"x_min":0,"x_max":0,"o":"m 78 972 l 78 901 l 343 901 l 343 972 z m 131 335 l 154 247 l 210 247 l 158 0 l 246 0 l 399 750 l 311 750 l 228 335 z m 110 750 l 21 750 l 113 406 l 200 406 z "},"Ӱ":{"ha":406,"x_min":0,"x_max":0,"o":"m 113 371 l 128 279 l 213 279 l 179 0 l 272 0 l 385 972 l 292 972 l 222 371 z m 101 442 l 193 442 l 107 972 l 14 972 z m 239 1140 l 239 1042 l 322 1042 l 322 1140 z m 76 1140 l 76 1042 l 161 1042 l 161 1140 z "},"ӱ":{"ha":419,"x_min":0,"x_max":0,"o":"m 250 972 l 250 874 l 333 874 l 333 972 z m 88 972 l 88 874 l 172 874 l 172 972 z m 131 335 l 154 247 l 210 247 l 158 0 l 246 0 l 399 750 l 311 750 l 228 335 z m 110 750 l 21 750 l 113 406 l 200 406 z "},"Ӳ":{"ha":413,"x_min":0,"x_max":0,"o":"m 113 371 l 128 279 l 213 279 l 179 0 l 272 0 l 385 972 l 292 972 l 222 371 z m 101 442 l 193 442 l 107 972 l 14 972 z m 186 1186 l 63 1094 l 104 1042 l 228 1133 z m 350 1186 l 226 1094 l 268 1042 l 392 1133 z "},"ӳ":{"ha":429,"x_min":0,"x_max":0,"o":"m 203 972 l 79 881 l 121 828 l 244 919 z m 367 972 l 243 881 l 285 828 l 408 919 z m 228 335 l 311 750 l 399 750 l 246 0 l 158 0 l 210 247 l 154 247 l 131 335 z m 200 406 l 113 406 l 21 750 l 110 750 z "},"Ӵ":{"ha":463,"x_min":0,"x_max":0,"o":"m 407 482 l 186 482 b 147 521 165 482 147 500 l 147 972 l 56 972 l 56 526 b 186 396 56 454 114 396 l 315 396 l 315 0 l 407 0 z m 407 568 l 407 972 l 315 972 l 315 568 z m 271 1140 l 271 1042 l 354 1042 l 354 1140 z m 108 1140 l 108 1042 l 193 1042 l 193 1140 z "},"ӵ":{"ha":469,"x_min":0,"x_max":0,"o":"m 414 750 l 326 750 l 326 429 l 414 429 z m 178 358 b 142 394 158 358 142 375 l 142 750 l 56 750 l 56 410 b 193 272 56 333 117 272 l 326 272 l 326 0 l 414 0 l 414 358 z m 275 972 l 275 874 l 358 874 l 358 972 z m 113 972 l 113 874 l 197 874 l 197 972 z "},"Ӹ":{"ha":626,"x_min":0,"x_max":0,"o":"m 479 0 l 571 0 l 571 972 l 479 972 z m 147 0 l 147 496 l 56 496 l 56 0 z m 147 972 l 56 972 l 56 567 l 275 567 b 314 528 297 567 314 549 l 314 131 b 275 92 314 110 296 92 l 218 92 l 218 0 l 275 0 b 406 131 347 0 406 58 l 406 521 b 275 651 406 592 347 651 l 147 651 z m 353 1140 l 353 1042 l 436 1042 l 436 1140 z m 190 1140 l 190 1042 l 275 1042 l 275 1140 z "},"ӹ":{"ha":624,"x_min":0,"x_max":0,"o":"m 568 0 l 568 750 l 481 750 l 481 0 z m 260 0 b 397 138 336 0 397 63 l 397 393 b 260 531 397 469 336 531 l 143 531 l 143 750 l 56 750 l 56 444 l 275 444 b 311 408 294 444 311 428 l 311 122 b 275 86 311 103 294 86 l 214 86 l 214 0 z m 143 374 l 56 374 l 56 0 l 143 0 z m 358 972 l 358 874 l 442 874 l 442 972 z m 196 972 l 196 874 l 281 874 l 281 972 z "},"Ẁ":{"ha":744,"x_min":0,"x_max":0,"o":"m 508 92 l 457 551 l 418 781 l 446 972 l 300 972 l 326 781 l 288 551 l 235 92 l 154 92 l 168 0 l 301 0 l 369 571 l 375 571 l 442 0 l 575 0 l 589 92 z m 572 163 l 599 163 l 717 972 l 624 972 l 547 394 z m 197 392 l 119 972 l 28 972 l 144 163 l 171 163 z m 290 1133 l 414 1042 l 456 1094 l 332 1186 z "},"ẁ":{"ha":760,"x_min":0,"x_max":0,"o":"m 193 157 l 210 249 l 115 750 l 28 750 l 142 157 z m 732 750 l 643 750 l 549 249 l 567 157 l 617 157 z m 508 86 l 424 549 l 461 750 l 296 750 l 335 549 l 250 86 l 156 86 l 172 0 l 318 0 l 379 358 l 440 0 l 586 0 l 603 86 z m 297 919 l 421 828 l 463 881 l 339 972 z "},"Ẃ":{"ha":744,"x_min":0,"x_max":0,"o":"m 508 92 l 457 551 l 418 781 l 446 972 l 300 972 l 326 781 l 288 551 l 235 92 l 154 92 l 168 0 l 301 0 l 369 571 l 375 571 l 442 0 l 575 0 l 589 92 z m 572 163 l 599 163 l 717 972 l 624 972 l 547 394 z m 197 392 l 119 972 l 28 972 l 144 163 l 171 163 z m 414 1186 l 290 1094 l 332 1042 l 456 1133 z "},"ẃ":{"ha":760,"x_min":0,"x_max":0,"o":"m 142 157 l 28 750 l 115 750 l 210 249 l 193 157 z m 617 157 l 567 157 l 549 249 l 643 750 l 732 750 z m 603 86 l 586 0 l 440 0 l 379 358 l 318 0 l 172 0 l 156 86 l 250 86 l 335 549 l 296 750 l 461 750 l 424 549 l 508 86 z m 421 972 l 297 881 l 339 828 l 463 919 z "},"Ẅ":{"ha":744,"x_min":0,"x_max":0,"o":"m 508 92 l 457 551 l 418 781 l 446 972 l 300 972 l 326 781 l 288 551 l 235 92 l 154 92 l 168 0 l 301 0 l 369 571 l 375 571 l 442 0 l 575 0 l 589 92 z m 572 163 l 599 163 l 717 972 l 624 972 l 547 394 z m 197 392 l 119 972 l 28 972 l 144 163 l 171 163 z m 413 1140 l 413 1042 l 496 1042 l 496 1140 z m 250 1140 l 250 1042 l 335 1042 l 335 1140 z "},"ẅ":{"ha":760,"x_min":0,"x_max":0,"o":"m 193 157 l 210 249 l 115 750 l 28 750 l 142 157 z m 732 750 l 643 750 l 549 249 l 567 157 l 617 157 z m 508 86 l 424 549 l 461 750 l 296 750 l 335 549 l 250 86 l 156 86 l 172 0 l 318 0 l 379 358 l 440 0 l 586 0 l 603 86 z m 419 972 l 419 874 l 503 874 l 503 972 z m 257 972 l 257 874 l 342 874 l 342 972 z "},"Ỳ":{"ha":435,"x_min":0,"x_max":0,"o":"m 169 425 l 169 92 l 90 92 l 90 0 l 340 0 l 340 92 l 261 92 l 261 444 l 421 972 l 326 972 z m 181 713 l 108 972 l 14 972 l 136 558 z m 135 1133 l 258 1042 l 300 1094 l 176 1186 z "},"ỳ":{"ha":446,"x_min":0,"x_max":0,"o":"m 268 288 l 181 288 l 181 86 l 97 86 l 97 0 l 353 0 l 353 86 l 268 86 z m 283 358 l 432 750 l 339 750 l 229 444 l 219 444 l 107 750 l 14 750 l 165 358 z m 140 919 l 264 828 l 306 881 l 182 972 z "},"Ǽ":{"ha":665,"x_min":0,"x_max":0,"o":"m 451 208 l 358 208 l 358 0 l 624 0 l 624 92 l 451 92 z m 451 279 l 451 482 l 603 482 l 603 567 l 451 567 l 451 810 l 358 810 l 358 364 l 106 364 l 28 0 l 121 0 l 182 279 z m 624 881 l 624 972 l 236 972 l 121 435 l 214 435 l 308 881 z m 458 1186 l 335 1094 l 376 1042 l 500 1133 z "},"Ģ":{"ha":432,"x_min":0,"x_max":0,"o":"m 376 397 l 225 397 l 225 482 l 376 482 z m 376 326 l 376 131 b 246 0 376 58 318 0 l 186 0 b 56 131 114 0 56 58 l 56 482 l 147 482 l 147 131 b 186 92 147 108 165 92 l 246 92 b 285 131 267 92 285 108 l 285 326 z m 147 553 l 147 842 b 186 881 147 863 165 881 l 246 881 b 285 842 268 881 285 863 l 285 733 l 376 733 l 376 842 b 246 972 376 914 318 972 l 186 972 b 56 842 115 972 56 913 l 56 553 z m 257 -44 l 257 -129 l 206 -215 l 174 -215 l 204 -129 l 174 -129 l 174 -44 z "},"℃":{"ha":771,"x_min":0,"x_max":0,"o":"m 539 92 b 500 131 518 92 500 108 l 500 482 l 408 482 l 408 131 b 539 0 408 58 468 0 l 599 0 b 729 131 671 0 729 58 l 729 279 l 638 279 l 638 131 b 599 92 638 108 619 92 z m 638 733 l 729 733 l 729 842 b 599 972 729 914 671 972 l 539 972 b 408 842 468 972 408 914 l 408 553 l 500 553 l 500 842 b 539 881 500 863 518 881 l 599 881 b 638 842 621 881 638 863 z m 164 744 b 104 832 128 757 104 792 b 199 925 104 883 146 925 b 292 832 247 925 292 883 b 235 746 292 793 268 760 l 235 681 b 353 832 303 697 353 758 b 199 988 353 914 285 988 b 42 832 113 988 42 918 b 164 681 42 757 94 696 z "},"℉":{"ha":725,"x_min":0,"x_max":0,"o":"m 164 744 b 104 832 128 757 104 792 b 199 925 104 883 146 925 b 292 832 247 925 292 883 b 235 746 292 793 268 760 l 235 681 b 353 832 303 697 353 758 b 199 988 353 914 285 988 b 42 832 113 988 42 918 b 164 681 42 757 94 696 z m 418 411 l 418 0 l 510 0 l 510 411 z m 418 482 l 663 482 l 663 567 l 510 567 l 510 881 l 683 881 l 683 972 l 418 972 z "},"ß":{"ha":590,"x_min":0,"x_max":0,"o":"m 493 663 l 493 750 l 186 750 b 56 619 114 750 56 690 l 56 0 l 143 0 l 143 619 b 186 663 143 643 163 663 z m 535 247 l 447 247 l 447 126 b 406 85 447 103 429 85 l 346 85 b 304 126 324 85 304 103 l 304 247 l 219 247 l 219 126 b 346 0 219 57 276 0 l 408 0 b 535 126 478 0 535 57 z m 535 318 l 535 360 b 404 490 535 432 475 490 l 392 490 l 454 592 l 347 592 l 229 411 l 297 358 b 368 401 313 381 332 401 l 406 401 b 447 360 429 401 447 383 l 447 318 z "},"ẞ":{"ha":590,"x_min":0,"x_max":0,"o":"m 499 881 l 499 972 l 186 972 b 56 842 115 972 56 914 l 56 0 l 147 0 l 147 842 b 186 881 147 863 165 881 z m 535 279 l 443 279 l 443 131 b 404 92 443 108 425 92 l 343 92 b 304 131 322 92 304 108 l 304 279 l 213 279 l 213 131 b 343 0 213 58 271 0 l 404 0 b 535 131 475 0 535 58 z m 535 350 l 535 496 b 404 626 535 568 475 626 l 375 626 l 465 810 l 361 810 l 215 524 l 297 483 b 367 535 311 513 329 535 l 404 535 b 443 496 425 535 443 517 l 443 350 z "},"×":{"ha":457,"x_min":0,"x_max":0,"o":"m 365 708 l 229 572 l 92 708 l 42 658 l 178 522 l 42 385 l 92 335 l 229 472 l 365 335 l 415 385 l 279 522 l 415 658 z "},"¤":{"ha":535,"x_min":0,"x_max":0,"o":"m 392 490 b 268 397 376 438 326 397 b 146 490 211 397 161 438 l 72 490 b 104 411 76 461 88 435 l 42 349 l 92 299 l 154 361 b 268 326 186 339 225 326 b 381 361 310 326 349 339 l 443 299 l 493 349 l 432 410 b 465 490 449 433 460 461 z m 465 561 b 432 639 460 590 449 617 l 493 700 l 443 750 l 382 689 b 268 725 350 713 311 725 b 153 689 225 725 186 711 l 92 750 l 42 700 l 104 638 b 72 561 89 615 78 589 l 146 561 b 268 654 161 614 211 654 b 392 561 326 654 376 614 z "},"÷":{"ha":596,"x_min":0,"x_max":0,"o":"m 554 557 l 554 482 l 42 482 l 42 557 z m 235 651 l 333 651 l 333 750 l 235 750 z m 235 293 l 333 293 l 333 392 l 235 392 z "},"¬":{"ha":650,"x_min":0,"x_max":0,"o":"m 521 375 l 608 375 l 608 667 l 42 667 l 42 579 l 521 579 z "},"D":{"ha":457,"x_min":0,"x_max":0,"o":"m 218 0 l 272 0 b 401 131 343 0 401 58 l 401 842 b 272 972 401 914 343 972 l 56 972 l 56 881 l 272 881 b 310 842 293 881 310 864 l 310 131 b 272 92 310 110 293 92 l 218 92 z m 147 0 l 56 0 l 56 810 l 147 810 z "},"A":{"ha":485,"x_min":0,"x_max":0,"o":"m 333 215 l 365 0 l 457 0 l 426 215 z m 418 286 l 325 972 l 160 972 l 89 442 l 181 442 l 239 882 l 246 882 l 314 371 l 79 371 l 28 0 l 121 0 l 161 286 z "},"B":{"ha":461,"x_min":0,"x_max":0,"o":"m 314 131 b 275 92 314 108 297 92 l 56 92 l 56 0 l 275 0 b 406 131 347 0 406 58 l 406 403 b 326 524 406 450 381 504 b 406 657 381 546 406 610 l 406 842 b 275 972 406 914 347 972 l 218 972 l 218 881 l 275 881 b 314 842 297 881 314 863 l 314 661 b 243 567 314 608 297 567 l 147 567 l 147 972 l 56 972 l 56 163 l 147 163 l 147 482 l 236 482 b 314 413 276 482 314 475 z "},"C":{"ha":432,"x_min":0,"x_max":0,"o":"m 186 92 b 147 131 165 92 147 108 l 147 482 l 56 482 l 56 131 b 186 0 56 58 115 0 l 246 0 b 376 131 318 0 376 58 l 376 279 l 285 279 l 285 131 b 246 92 285 108 267 92 z m 285 733 l 376 733 l 376 842 b 246 972 376 914 318 972 l 186 972 b 56 842 115 972 56 914 l 56 553 l 147 553 l 147 842 b 186 881 147 863 165 881 l 246 881 b 285 842 268 881 285 863 z "},"☇":{"ha":315,"x_min":0,"x_max":0,"o":"m 274 583 l 188 583 l 265 863 l 139 863 l 42 456 l 125 456 l 58 47 z "}}}
